<svg width="81" height="121" viewBox="0 0 81 121" fill="none" xmlns="http://www.w3.org/2000/svg">
<path d="M43.0913 40.8414H20.2341C9.18842 40.8414 0.234131 31.8871 0.234131 20.8414C0.234131 9.79572 9.18842 0.841431 20.2341 0.841431H43.0913V40.8414Z" fill="#E64A19"/>
<path d="M40.2341 80.8414H20.2341C9.18842 80.8414 0.234131 71.8871 0.234131 60.8414C0.234131 49.7957 9.18842 40.8414 20.2341 40.8414H40.2341V80.8414Z" fill="#7C4DFF"/>
<path d="M20.2341 120.841C9.18842 120.841 0.234131 111.887 0.234131 100.841C0.234131 89.7957 9.18842 80.8414 20.2341 80.8414H40.2341V100.841C40.2341 111.887 31.2798 120.841 20.2341 120.841Z" fill="#66BB6A"/>
<path d="M60.2341 40.8414H40.2341V0.841431H60.2341C71.2798 0.841431 80.2341 9.79572 80.2341 20.8414C80.2341 31.8871 71.2798 40.8414 60.2341 40.8414Z" fill="#FF7043"/>
<path d="M60.2341 80.8414C71.2798 80.8414 80.2341 71.8871 80.2341 60.8414C80.2341 49.7957 71.2798 40.8414 60.2341 40.8414C49.1884 40.8414 40.2341 49.7957 40.2341 60.8414C40.2341 71.8871 49.1884 80.8414 60.2341 80.8414Z" fill="#29B6F6"/>
</svg>
