<svg width="108" height="121" viewBox="0 0 108 121" fill="none" xmlns="http://www.w3.org/2000/svg">
<path d="M107.655 0.0848389H0.286621L9.76031 107.453L53.9708 120.085L98.1814 107.453L107.655 0.0848389Z" fill="#E65100"/>
<path d="M53.9709 9.55847V110.295L89.3394 100.19L97.2341 9.55847H53.9709Z" fill="#FF6D00"/>
<path d="M53.9709 63.2428V50.6112H81.1288L78.9183 86.927L53.9709 95.1375V81.8743L66.9183 77.4533L67.8657 63.2428H53.9709V63.2428ZM82.0762 37.9796L83.0236 25.348H53.9709V37.9796H82.0762Z" fill="white"/>
<path d="M53.9707 81.8743V95.1375L29.0234 86.927L27.7602 69.5586H40.3918L41.0234 77.4533L53.9707 81.8743ZM38.497 37.9796H53.9707V25.348H25.2339L27.4444 63.2428H53.9707V50.6112H39.4444L38.497 37.9796Z" fill="#EEEEEE"/>
</svg>
