<svg width="280" height="121" viewBox="0 0 280 121" fill="none" xmlns="http://www.w3.org/2000/svg">
<path d="M110.154 54.9891C106.504 54.9891 103.541 56.0735 101.267 58.2291C98.9923 60.3846 97.8286 63.2278 97.8286 66.6926C97.8286 68.4911 98.1195 70.1309 98.6749 71.6385C99.2303 73.146 100.13 74.5478 101.293 75.8041C102.457 77.0604 104.837 78.7796 108.368 81.0938C112.693 83.7387 115.509 85.881 116.885 87.5472C118.162 89.0019 118.884 90.8617 118.921 92.7973C118.921 95.2438 118.128 97.1877 116.462 98.6556C114.795 100.123 112.587 100.851 109.849 100.851C106.94 100.851 104.56 99.8326 102.259 97.8093C99.9577 95.7859 98.9923 93.0882 98.9526 89.716H97.6038V101.935H98.9526C99.3494 100.771 99.9312 100.19 100.672 100.19C101.029 100.19 101.862 100.454 103.317 100.904C106.49 102.041 109.109 102.583 111.172 102.583C114.716 102.583 117.731 101.34 120.257 98.8275C121.474 97.6488 122.438 96.2337 123.088 94.6691C123.738 93.1045 124.062 91.4235 124.039 89.7292C124.039 86.9786 123.206 84.5321 121.553 82.403C119.9 80.2739 116.713 77.7745 111.926 74.9313C107.826 72.4584 105.142 70.4351 103.912 68.8746C102.708 67.4099 102.049 65.5733 102.047 63.6775C102.013 62.7352 102.198 61.798 102.588 60.9396C102.979 60.0813 103.563 59.3254 104.295 58.7316C105.79 57.5017 107.734 56.8802 110.18 56.8802C112.931 56.8802 115.205 57.7001 117.03 59.3399C118.916 61.1402 120.05 63.5877 120.204 66.1901H121.553V55.6107H120.297C120.138 56.1396 120.006 56.4967 119.873 56.6686C119.741 56.8405 119.503 56.9066 119.146 56.9066C118.71 56.9066 117.929 56.7215 116.832 56.3777C114.451 55.5842 112.283 55.1875 110.286 55.1875L110.154 54.9891ZM154.19 54.9891C149.747 54.9891 145.727 56.0471 142.064 58.1365C138.441 60.2024 135.443 63.2089 133.389 66.8381C131.29 70.4238 130.19 74.5059 130.202 78.6605C130.155 84.1826 132.131 89.5308 135.756 93.6965C139.459 98.087 143.928 100.838 149.086 101.896C150.276 102.517 151.955 104.104 154.164 106.656C156.676 109.566 158.766 111.655 160.512 112.898C162.207 114.119 164.093 115.053 166.092 115.662C168.178 116.278 170.344 116.582 172.519 116.561C175.323 116.561 177.809 116.072 180.057 115.067L179.554 113.837C178.272 114.3 176.91 114.525 175.455 114.525C173.498 114.525 171.527 113.863 169.544 112.581C167.56 111.298 165.087 108.812 162.138 105.175L159.255 101.896C164.915 100.798 169.57 98.0605 173.18 93.6701C176.732 89.4852 178.662 84.1627 178.616 78.6738C178.676 75.5334 178.077 72.4151 176.859 69.5202C175.64 66.6252 173.829 64.0177 171.541 61.8657C166.833 57.3034 161.054 54.9891 154.19 54.9891V54.9891ZM181.697 54.9891L181.763 56.4438C184.725 56.4438 186.391 57.3166 186.748 59.0622C186.881 59.6837 186.947 60.8475 186.96 62.5005L186.934 94.3974C186.907 96.7778 186.563 98.2985 185.915 98.9598C185.267 99.621 184.156 100.018 182.556 100.19L182.49 101.644H211.98L212.734 94.4106H211.385C210.988 96.3943 210.116 97.796 208.714 98.5895C207.312 99.3829 204.813 99.7797 201.216 99.7797H198.439C195.199 99.7797 193.334 98.6159 192.832 96.262C192.732 95.7658 192.683 95.2606 192.686 94.7545L192.818 62.4873C192.818 60.1069 193.123 58.52 193.744 57.7266C194.366 56.9331 195.503 56.5099 197.143 56.4041L197.077 54.9495L181.697 54.9891ZM154.666 56.7347C157.039 56.6832 159.389 57.1972 161.523 58.2344C163.657 59.2715 165.513 60.8019 166.939 62.6989C170.112 66.6661 171.673 72.141 171.673 79.0573C171.673 85.6165 170.086 90.8533 166.912 94.7941C165.41 96.7083 163.477 98.2412 161.271 99.2683C159.066 100.295 156.649 100.788 154.217 100.705C151.823 100.761 149.451 100.236 147.304 99.1741C145.157 98.1123 143.3 96.5459 141.892 94.609C138.744 90.5359 137.184 85.2462 137.184 78.7399C137.184 72.0616 138.771 66.8381 141.945 62.7121C145.118 58.5861 149.35 56.7347 154.693 56.7347H154.666ZM222.507 63.6113C221.793 63.6113 221.237 63.8494 220.827 64.3387C220.621 64.584 220.477 64.8759 220.408 65.1891C220.338 65.5023 220.346 65.8277 220.431 66.1372C220.593 66.8631 221.005 67.509 221.594 67.9621C222.216 68.4911 222.89 68.7556 223.604 68.7556C224.319 68.7556 224.834 68.4911 225.218 67.9621C225.601 67.4332 225.72 66.8381 225.575 66.1372C225.429 65.4363 225.046 64.8148 224.464 64.3387C223.882 63.8626 223.221 63.6113 222.52 63.6113H222.507ZM241.946 68.5043C240.73 73.2122 238.072 75.7512 234.012 76.1744L234.065 77.5233H238.826L238.759 93.4188L239.024 98.8804C239.487 101.089 240.941 102.213 243.348 102.213C246.839 102.213 250.489 100.097 254.324 95.8256L253.161 94.8338C250.384 97.6373 247.95 99.0391 245.808 99.0391C244.485 99.0391 243.692 98.2853 243.375 96.791C243.287 96.3693 243.247 95.9389 243.256 95.5082L243.309 77.4704H250.582L250.516 75.3148H243.348V68.4646L241.946 68.5043ZM270.008 74.5081C265.948 74.5081 262.642 76.4918 260.09 80.3929C257.538 84.2941 256.744 88.6581 257.749 93.4453C258.169 95.9557 259.427 98.2496 261.32 99.9516C263.118 101.486 265.419 102.239 268.13 102.239C270.67 102.239 274.214 101.578 275.695 100.295C277.176 99.0127 278.564 96.8968 279.834 94.0271L278.816 92.9692C276.792 96.6984 272.706 98.5763 269.612 98.5763C265.38 98.5763 262.775 96.2488 261.677 91.6203C261.549 90.9957 261.456 90.3643 261.399 89.7292C266.425 88.9358 270.26 87.5208 272.838 85.471C275.417 83.4213 277.996 81.2393 277.52 78.9647C277.259 77.6624 276.518 76.5058 275.443 75.7248C274.346 74.9313 271.476 74.4949 269.889 74.4949L270.008 74.5081ZM225.628 74.68L216.873 76.6901V78.2506L219.915 77.8539C221.37 77.8539 222.242 78.5151 222.52 79.8375C222.63 80.4441 222.688 81.0591 222.692 81.6757L222.599 95.9843C222.573 97.9679 222.361 99.1185 221.912 99.4623C221.462 99.8061 220.285 99.9913 218.394 99.9913L218.341 101.34H232.227L232.2 99.9913C230.269 99.9913 229.026 99.859 228.471 99.5416C227.916 99.2243 227.545 98.7085 227.387 97.8886C227.254 97.2935 227.201 96.2752 227.201 94.847L227.254 74.6536H225.667L225.628 74.68ZM267.787 77.3249C268.633 77.3249 269.453 77.6555 270.273 78.2903C271.093 78.925 271.595 79.6391 271.727 80.4061C272.521 84.2147 269.149 86.8331 261.545 88.301C261.333 85.6562 261.809 83.0113 263.039 80.7367C264.269 78.4622 265.843 77.2984 267.773 77.2984L267.787 77.3249Z" fill="#003B57"/>
<path d="M85.1467 5.79614H9.8478C4.79613 5.79614 0.670166 9.92211 0.670166 14.9738V98.0221C0.670166 103.074 4.79613 107.2 9.8478 107.2H59.4387C58.8701 82.5232 67.3072 34.6382 85.1467 5.82259V5.79614Z" fill="#0F80CC"/>
<path d="M82.4093 8.46562H9.84786C8.99468 8.46387 8.14956 8.63063 7.36099 8.95632C6.57242 9.28202 5.85594 9.76023 5.25265 10.3635C4.64936 10.9668 4.17115 11.6833 3.84546 12.4719C3.51977 13.2604 3.35301 14.1055 3.35475 14.9587V91.9239C19.7925 85.6159 44.4425 80.1807 61.5018 80.4188C64.9401 62.4999 74.9905 27.5218 82.3961 8.45239L82.4093 8.46562Z" fill="url(#paint0_linear_123_41)"/>
<path d="M102.708 3.07148C97.4181 -1.53056 91.3085 0.320831 85.146 5.78245L82.4085 8.45374C71.8688 19.6547 62.0829 40.3639 59.0413 56.1801C60.3637 58.5869 61.1572 61.6417 61.7655 64.1146L62.1622 65.7544L62.5589 67.6058C62.5589 67.6058 62.4664 67.2488 62.0829 66.1247L61.8184 65.3974C61.7688 65.2638 61.7159 65.1315 61.6597 65.0006C60.972 63.4137 59.0677 60.0283 58.2214 58.5604C57.558 60.5054 56.9319 62.463 56.3435 64.432C58.7636 68.8489 60.2315 76.4264 60.2315 76.4264C60.2315 76.4264 60.0992 75.9371 59.4909 74.2179C58.9619 72.6971 56.2642 68.0025 55.6294 66.8917C54.545 70.9119 54.1086 73.6361 54.5054 74.2973C55.2592 75.58 55.9865 77.7885 56.6213 80.2217C57.6111 84.2475 58.4186 88.3159 59.0413 92.4145L59.1339 93.5386C58.9579 98.0853 59.0595 102.638 59.438 107.173C59.9141 112.899 60.8001 117.818 61.9506 120.463L62.7176 120.04C61.0514 114.856 60.3637 108.046 60.6679 100.204C61.1175 88.2092 63.8814 73.7551 68.9727 58.6794C77.5685 35.9337 89.5364 17.6843 100.473 8.95627C90.5018 17.9488 77.013 47.095 72.9664 57.886C68.4437 69.973 65.2435 81.2929 63.3127 92.1765C66.6452 81.9938 77.423 77.6298 77.423 77.6298C77.423 77.6298 82.7127 71.1102 88.8752 61.8004L77.0659 64.9477L73.2574 66.6404C73.2574 66.6404 82.9772 60.716 91.3217 58.0447C102.787 39.9804 115.284 14.3121 102.695 3.09792" fill="#003B57"/>
<defs>
<linearGradient id="paint0_linear_123_41" x1="48.9387" y1="10.1848" x2="48.9387" y2="87.2954" gradientUnits="userSpaceOnUse">
<stop stop-color="#97D9F6"/>
<stop offset="0.92024" stop-color="#0F80CC"/>
<stop offset="1" stop-color="#0F80CC"/>
</linearGradient>
</defs>
</svg>
