<svg width="1000" height="110" viewBox="0 0 1000 110" fill="none" xmlns="http://www.w3.org/2000/svg">
<path d="M1000 0H0V109.043H1000V0Z" fill="#252525"/>
<path d="M0 11.478L7.2 16.2606C14.3 21.0432 28.7 30.6084 43.2 31.0867C57.7 31.5649 72.3 22.9563 86.8 20.565C101.3 18.1737 115.7 21.9997 130.2 28.2171C144.7 34.4345 159.3 43.0432 173.8 40.4606C188.3 37.9736 202.7 24.1997 217.2 21.2345C231.7 18.1737 246.3 25.8258 260.8 26.591C275.3 27.4519 289.7 21.3302 304.2 22.765C318.7 24.1997 333.3 33.191 347.8 41.3214C362.3 49.4519 376.7 56.7214 391.2 59.591C405.7 62.4605 420.3 60.9301 434.8 54.3301C449.3 47.8258 463.7 36.3475 478.2 29.9389C492.7 23.6258 507.3 22.2867 521.8 21.3302C536.3 20.3737 550.7 19.7998 565.2 27.0693C579.7 34.4345 594.3 49.7388 608.8 55.9562C623.3 62.1736 637.7 59.304 652.2 50.4084C666.7 41.4171 681.3 26.4954 695.8 24.5823C710.3 22.6693 724.7 33.7649 739.2 33.2867C753.7 32.8084 768.3 20.7563 782.8 17.4084C797.3 14.0606 811.7 19.4171 826.2 20.0867C840.7 20.7563 855.3 16.5476 869.8 22.6693C884.3 28.6954 898.7 44.9562 913.2 51.6519C927.7 58.3475 942.3 55.4779 956.8 47.8258C971.3 40.1736 985.7 27.7389 992.8 21.5215L1000 15.3041V110H992.8C985.7 110 971.3 110 956.8 110C942.3 110 927.7 110 913.2 110C898.7 110 884.3 110 869.8 110C855.3 110 840.7 110 826.2 110C811.7 110 797.3 110 782.8 110C768.3 110 753.7 110 739.2 110C724.7 110 710.3 110 695.8 110C681.3 110 666.7 110 652.2 110C637.7 110 623.3 110 608.8 110C594.3 110 579.7 110 565.2 110C550.7 110 536.3 110 521.8 110C507.3 110 492.7 110 478.2 110C463.7 110 449.3 110 434.8 110C420.3 110 405.7 110 391.2 110C376.7 110 362.3 110 347.8 110C333.3 110 318.7 110 304.2 110C289.7 110 275.3 110 260.8 110C246.3 110 231.7 110 217.2 110C202.7 110 188.3 110 173.8 110C159.3 110 144.7 110 130.2 110C115.7 110 101.3 110 86.8 110C72.3 110 57.7 110 43.2 110C28.7 110 14.3 110 7.2 110H0V11.478Z" fill="#CDCDCD"/>
<path d="M0 24.8696L7.2 26.4957C14.3 28.0261 28.7 31.2783 43.2 35.8696C57.7 40.4609 72.3 46.5826 86.8 45.1478C101.3 43.7131 115.7 34.7218 130.2 32.0435C144.7 29.3653 159.3 32.8087 173.8 39.9826C188.3 47.1565 202.7 58.0609 217.2 59.9739C231.7 61.8869 246.3 54.8087 260.8 54.3304C275.3 53.8522 289.7 59.9739 304.2 57.6783C318.7 55.4783 333.3 44.9565 347.8 44.1913C362.3 43.3305 376.7 52.3217 391.2 54.713C405.7 57.1043 420.3 52.8957 434.8 47.1565C449.3 41.4174 463.7 34.1479 478.2 32.8087C492.7 31.5653 507.3 36.3479 521.8 36.5392C536.3 36.6348 550.7 32.2348 565.2 35.1044C579.7 37.9739 594.3 48.1131 608.8 52.8957C623.3 57.6783 637.7 57.1043 652.2 52.6087C666.7 48.1131 681.3 39.887 695.8 37.9739C710.3 36.0609 724.7 40.4609 739.2 46.6783C753.7 52.8957 768.3 60.9304 782.8 56.7217C797.3 52.6087 811.7 36.3479 826.2 30.3218C840.7 24.2001 855.3 28.4087 869.8 31.2783C884.3 34.1479 898.7 35.6783 913.2 38.0696C927.7 40.4609 942.3 43.7131 956.8 42.5652C971.3 41.4174 985.7 36.0609 992.8 33.287L1000 30.6087V110H992.8C985.7 110 971.3 110 956.8 110C942.3 110 927.7 110 913.2 110C898.7 110 884.3 110 869.8 110C855.3 110 840.7 110 826.2 110C811.7 110 797.3 110 782.8 110C768.3 110 753.7 110 739.2 110C724.7 110 710.3 110 695.8 110C681.3 110 666.7 110 652.2 110C637.7 110 623.3 110 608.8 110C594.3 110 579.7 110 565.2 110C550.7 110 536.3 110 521.8 110C507.3 110 492.7 110 478.2 110C463.7 110 449.3 110 434.8 110C420.3 110 405.7 110 391.2 110C376.7 110 362.3 110 347.8 110C333.3 110 318.7 110 304.2 110C289.7 110 275.3 110 260.8 110C246.3 110 231.7 110 217.2 110C202.7 110 188.3 110 173.8 110C159.3 110 144.7 110 130.2 110C115.7 110 101.3 110 86.8 110C72.3 110 57.7 110 43.2 110C28.7 110 14.3 110 7.2 110H0V24.8696Z" fill="#B2B2B2"/>
<path d="M0 72.6954L7.2 69.3476C14.3 65.9998 28.7 59.3041 43.2 58.6345C57.7 58.0606 72.3 63.4171 86.8 61.6954C101.3 59.9737 115.7 50.9824 130.2 46.5824C144.7 42.0867 159.3 42.0867 173.8 41.3215C188.3 40.4607 202.7 38.9302 217.2 42.0868C231.7 45.2433 246.3 53.278 260.8 55.765C275.3 58.3476 289.7 55.478 304.2 53.0867C318.7 50.6954 333.3 48.7824 347.8 45.7215C362.3 42.7563 376.7 38.5476 391.2 36.6346C405.7 34.7216 420.3 35.1042 434.8 37.7824C449.3 40.4607 463.7 45.6259 478.2 49.7389C492.7 53.8519 507.3 57.1041 521.8 59.9737C536.3 62.8432 550.7 65.3302 565.2 65.3302C579.7 65.3302 594.3 62.8432 608.8 58.5389C623.3 54.2346 637.7 48.1128 652.2 49.0694C666.7 50.0259 681.3 58.0606 695.8 57.5824C710.3 57.1041 724.7 48.1128 739.2 44.765C753.7 41.4172 768.3 43.7128 782.8 46.1998C797.3 48.7824 811.7 51.652 826.2 54.0433C840.7 56.4346 855.3 58.3476 869.8 60.2606C884.3 62.1737 898.7 64.0867 913.2 60.9302C927.7 57.678 942.3 49.452 956.8 44.2868C971.3 39.2172 985.7 37.3042 992.8 36.3476L1000 35.3911V110H992.8C985.7 110 971.3 110 956.8 110C942.3 110 927.7 110 913.2 110C898.7 110 884.3 110 869.8 110C855.3 110 840.7 110 826.2 110C811.7 110 797.3 110 782.8 110C768.3 110 753.7 110 739.2 110C724.7 110 710.3 110 695.8 110C681.3 110 666.7 110 652.2 110C637.7 110 623.3 110 608.8 110C594.3 110 579.7 110 565.2 110C550.7 110 536.3 110 521.8 110C507.3 110 492.7 110 478.2 110C463.7 110 449.3 110 434.8 110C420.3 110 405.7 110 391.2 110C376.7 110 362.3 110 347.8 110C333.3 110 318.7 110 304.2 110C289.7 110 275.3 110 260.8 110C246.3 110 231.7 110 217.2 110C202.7 110 188.3 110 173.8 110C159.3 110 144.7 110 130.2 110C115.7 110 101.3 110 86.8 110C72.3 110 57.7 110 43.2 110C28.7 110 14.3 110 7.2 110H0V72.6954Z" fill="#979797"/>
<path d="M0 45.9131L7.2 46.2C14.3 46.5827 28.7 47.1566 43.2 48.0174C57.7 48.7826 72.3 49.7392 86.8 51.1739C101.3 52.6087 115.7 54.5218 130.2 58.6348C144.7 62.8435 159.3 69.1565 173.8 71.5478C188.3 73.9391 202.7 72.4087 217.2 71.0695C231.7 69.8261 246.3 68.8696 260.8 69.6348C275.3 70.4956 289.7 72.9826 304.2 71.7391C318.7 70.4956 333.3 65.3304 347.8 63.8C362.3 62.1739 376.7 64.087 391.2 66.9565C405.7 69.8261 420.3 73.6522 434.8 70.7826C449.3 67.913 463.7 58.3478 478.2 53.7565C492.7 49.0696 507.3 49.4522 521.8 53.7565C536.3 58.0609 550.7 66.287 565.2 66.7652C579.7 67.2435 594.3 59.9739 608.8 55.7652C623.3 51.6522 637.7 50.6957 652.2 49.5479C666.7 48.4957 681.3 47.1566 695.8 51.8435C710.3 56.4348 724.7 66.9565 739.2 68.3913C753.7 69.8261 768.3 62.1739 782.8 58.5391C797.3 54.8087 811.7 55.1913 826.2 56.2435C840.7 57.3913 855.3 59.3044 869.8 62.3652C884.3 65.3304 898.7 69.5391 913.2 67.4348C927.7 65.3304 942.3 57.1044 956.8 57.3913C971.3 57.6783 985.7 66.6696 992.8 71.0695L1000 75.5652V110H992.8C985.7 110 971.3 110 956.8 110C942.3 110 927.7 110 913.2 110C898.7 110 884.3 110 869.8 110C855.3 110 840.7 110 826.2 110C811.7 110 797.3 110 782.8 110C768.3 110 753.7 110 739.2 110C724.7 110 710.3 110 695.8 110C681.3 110 666.7 110 652.2 110C637.7 110 623.3 110 608.8 110C594.3 110 579.7 110 565.2 110C550.7 110 536.3 110 521.8 110C507.3 110 492.7 110 478.2 110C463.7 110 449.3 110 434.8 110C420.3 110 405.7 110 391.2 110C376.7 110 362.3 110 347.8 110C333.3 110 318.7 110 304.2 110C289.7 110 275.3 110 260.8 110C246.3 110 231.7 110 217.2 110C202.7 110 188.3 110 173.8 110C159.3 110 144.7 110 130.2 110C115.7 110 101.3 110 86.8 110C72.3 110 57.7 110 43.2 110C28.7 110 14.3 110 7.2 110H0V45.9131Z" fill="#7D7D7D"/>
<path d="M0 70.7826L7.2 72.4087C14.3 73.9392 28.7 77.1913 43.2 79.3913C57.7 81.5913 72.3 82.9305 86.8 81.0174C101.3 79.1044 115.7 73.9391 130.2 73.4609C144.7 72.9826 159.3 77.1913 173.8 79.6783C188.3 82.2609 202.7 83.2174 217.2 79.8696C231.7 76.5218 246.3 68.8696 260.8 68.6783C275.3 68.5826 289.7 75.8522 304.2 77.4783C318.7 79.1044 333.3 74.8957 347.8 73.4609C362.3 72.0261 376.7 73.3652 391.2 71.2609C405.7 69.1566 420.3 63.8001 434.8 64.8522C449.3 66 463.7 73.6522 478.2 76.0435C492.7 78.4348 507.3 75.5652 521.8 73.9391C536.3 72.4087 550.7 72.0261 565.2 70.4957C579.7 68.8696 594.3 66 608.8 65.3305C623.3 64.7566 637.7 66.287 652.2 66.4783C666.7 66.6696 681.3 65.3305 695.8 67.1479C710.3 68.8696 724.7 73.6522 739.2 73.4609C753.7 73.3652 768.3 68.2 782.8 65.5218C797.3 62.8435 811.7 62.4609 826.2 61.6957C840.7 60.9305 855.3 59.5914 869.8 60.2609C884.3 60.9305 898.7 63.4174 913.2 67.2435C927.7 71.0696 942.3 76.2348 956.8 79.1044C971.3 81.9739 985.7 82.5479 992.8 82.9305L1000 83.2174V110H992.8C985.7 110 971.3 110 956.8 110C942.3 110 927.7 110 913.2 110C898.7 110 884.3 110 869.8 110C855.3 110 840.7 110 826.2 110C811.7 110 797.3 110 782.8 110C768.3 110 753.7 110 739.2 110C724.7 110 710.3 110 695.8 110C681.3 110 666.7 110 652.2 110C637.7 110 623.3 110 608.8 110C594.3 110 579.7 110 565.2 110C550.7 110 536.3 110 521.8 110C507.3 110 492.7 110 478.2 110C463.7 110 449.3 110 434.8 110C420.3 110 405.7 110 391.2 110C376.7 110 362.3 110 347.8 110C333.3 110 318.7 110 304.2 110C289.7 110 275.3 110 260.8 110C246.3 110 231.7 110 217.2 110C202.7 110 188.3 110 173.8 110C159.3 110 144.7 110 130.2 110C115.7 110 101.3 110 86.8 110C72.3 110 57.7 110 43.2 110C28.7 110 14.3 110 7.2 110H0V70.7826Z" fill="#646464"/>
<path d="M0 73.6519L7.2 74.3214C14.3 74.8953 28.7 76.2345 43.2 77.6693C57.7 79.104 72.3 80.6344 86.8 81.591C101.3 82.5475 115.7 82.9301 130.2 83.8866C144.7 84.8431 159.3 86.3736 173.8 87.5214C188.3 88.6692 202.7 89.2431 217.2 87.8083C231.7 86.3736 246.3 82.9301 260.8 79.8692C275.3 76.8084 289.7 74.3214 304.2 75.8518C318.7 77.4779 333.3 83.217 347.8 83.0257C362.3 82.9301 376.7 76.8084 391.2 76.7127C405.7 76.5214 420.3 82.2605 434.8 85.1301C449.3 87.9997 463.7 87.9996 478.2 87.3301C492.7 86.7562 507.3 85.417 521.8 83.9823C536.3 82.5475 550.7 81.017 565.2 82.0692C579.7 83.217 594.3 87.0431 608.8 85.7997C623.3 84.4605 637.7 78.1475 652.2 77.2866C666.7 76.5214 681.3 81.304 695.8 83.9823C710.3 86.7562 724.7 87.3301 739.2 87.3301C753.7 87.3301 768.3 86.7562 782.8 85.417C797.3 84.1736 811.7 82.2605 826.2 81.304C840.7 80.3475 855.3 80.3475 869.8 80.5388C884.3 80.6345 898.7 81.0171 913.2 82.7388C927.7 84.4605 942.3 87.7127 956.8 87.9997C971.3 88.2866 985.7 85.7996 992.8 84.4605L1000 83.2171V110H992.8C985.7 110 971.3 110 956.8 110C942.3 110 927.7 110 913.2 110C898.7 110 884.3 110 869.8 110C855.3 110 840.7 110 826.2 110C811.7 110 797.3 110 782.8 110C768.3 110 753.7 110 739.2 110C724.7 110 710.3 110 695.8 110C681.3 110 666.7 110 652.2 110C637.7 110 623.3 110 608.8 110C594.3 110 579.7 110 565.2 110C550.7 110 536.3 110 521.8 110C507.3 110 492.7 110 478.2 110C463.7 110 449.3 110 434.8 110C420.3 110 405.7 110 391.2 110C376.7 110 362.3 110 347.8 110C333.3 110 318.7 110 304.2 110C289.7 110 275.3 110 260.8 110C246.3 110 231.7 110 217.2 110C202.7 110 188.3 110 173.8 110C159.3 110 144.7 110 130.2 110C115.7 110 101.3 110 86.8 110C72.3 110 57.7 110 43.2 110C28.7 110 14.3 110 7.2 110H0V73.6519Z" fill="#4C4C4C"/>
<path d="M0 95.6523L7.2 93.5479C14.3 91.5392 28.7 87.3305 43.2 87.0436C57.7 86.7566 72.3 90.2001 86.8 92.1131C101.3 94.0262 115.7 94.4088 130.2 92.974C144.7 91.5392 159.3 88.287 173.8 87.3305C188.3 86.374 202.7 87.7132 217.2 89.1479C231.7 90.5827 246.3 92.1131 260.8 92.3044C275.3 92.4957 289.7 91.1566 304.2 89.9131C318.7 88.6697 333.3 87.3305 347.8 87.0436C362.3 86.7566 376.7 87.3305 391.2 86.8523C405.7 86.374 420.3 84.8436 434.8 85.4175C449.3 86.087 463.7 88.9566 478.2 90.3914C492.7 91.8262 507.3 91.8262 521.8 92.5914C536.3 93.4523 550.7 94.9827 565.2 94.9827C579.7 94.9827 594.3 93.4523 608.8 92.3044C623.3 91.1566 637.7 90.5827 652.2 91.3479C666.7 92.1131 681.3 94.4088 695.8 94.5044C710.3 94.6957 724.7 92.7827 739.2 90.5827C753.7 88.2871 768.3 85.8001 782.8 85.8001C797.3 85.8001 811.7 88.2871 826.2 89.4349C840.7 90.5827 855.3 90.2001 869.8 90.5827C884.3 90.8697 898.7 91.8262 913.2 92.4958C927.7 93.0697 942.3 93.4523 956.8 92.5914C971.3 91.8262 985.7 89.9131 992.8 88.9566L1000 88.0001V110H992.8C985.7 110 971.3 110 956.8 110C942.3 110 927.7 110 913.2 110C898.7 110 884.3 110 869.8 110C855.3 110 840.7 110 826.2 110C811.7 110 797.3 110 782.8 110C768.3 110 753.7 110 739.2 110C724.7 110 710.3 110 695.8 110C681.3 110 666.7 110 652.2 110C637.7 110 623.3 110 608.8 110C594.3 110 579.7 110 565.2 110C550.7 110 536.3 110 521.8 110C507.3 110 492.7 110 478.2 110C463.7 110 449.3 110 434.8 110C420.3 110 405.7 110 391.2 110C376.7 110 362.3 110 347.8 110C333.3 110 318.7 110 304.2 110C289.7 110 275.3 110 260.8 110C246.3 110 231.7 110 217.2 110C202.7 110 188.3 110 173.8 110C159.3 110 144.7 110 130.2 110C115.7 110 101.3 110 86.8 110C72.3 110 57.7 110 43.2 110C28.7 110 14.3 110 7.2 110H0V95.6523Z" fill="#353535"/>
</svg>
