<svg width="1000" height="200" viewBox="0 0 1000 200" fill="none" xmlns="http://www.w3.org/2000/svg">
<path d="M1000 0H0V200H1000V0Z" fill="#353535"/>
<path d="M0 22L16.7 38C33.3 54 66.7 86 100 95.8C133.3 105.7 166.7 93.3 200 87.3C233.3 81.3 266.7 81.7 300 75.8C333.3 70 366.7 58 400 64C433.3 70 466.7 94 500 100.3C533.3 106.7 566.7 95.3 600 79.5C633.3 63.7 666.7 43.3 700 35C733.3 26.7 766.7 30.3 800 33.8C833.3 37.3 866.7 40.7 900 39.5C933.3 38.3 966.7 32.7 983.3 29.8L1000 27V201H983.3C966.7 201 933.3 201 900 201C866.7 201 833.3 201 800 201C766.7 201 733.3 201 700 201C666.7 201 633.3 201 600 201C566.7 201 533.3 201 500 201C466.7 201 433.3 201 400 201C366.7 201 333.3 201 300 201C266.7 201 233.3 201 200 201C166.7 201 133.3 201 100 201C66.7 201 33.3 201 16.7 201H0V22Z" fill="#CDCDCD"/>
<path d="M0 119L16.7 105.8C33.3 92.7001 66.7 66.3001 100 59.7001C133.3 53.0001 166.7 66.0001 200 70.0001C233.3 74.0001 266.7 69.0001 300 70.5001C333.3 72.0001 366.7 80.0001 400 84.5001C433.3 89.0001 466.7 90.0001 500 87.3001C533.3 84.7001 566.7 78.3001 600 81.3001C633.3 84.3001 666.7 96.7001 700 90.2001C733.3 83.7001 766.7 58.3001 800 60.8001C833.3 63.3001 866.7 93.7001 900 99.7001C933.3 105.7 966.7 87.3001 983.3 78.2001L1000 69.0001V201H983.3C966.7 201 933.3 201 900 201C866.7 201 833.3 201 800 201C766.7 201 733.3 201 700 201C666.7 201 633.3 201 600 201C566.7 201 533.3 201 500 201C466.7 201 433.3 201 400 201C366.7 201 333.3 201 300 201C266.7 201 233.3 201 200 201C166.7 201 133.3 201 100 201C66.7 201 33.3 201 16.7 201H0V119Z" fill="#B2B2B2"/>
<path d="M0 79.0001L16.7 77.8001C33.3 76.7001 66.7 74.3001 100 83.3001C133.3 92.3001 166.7 112.7 200 111.8C233.3 111 266.7 89.0001 300 85.7001C333.3 82.3001 366.7 97.7001 400 97.0001C433.3 96.3001 466.7 79.7001 500 70.5001C533.3 61.3001 566.7 59.7001 600 58.7001C633.3 57.7001 666.7 57.3001 700 64.0001C733.3 70.7001 766.7 84.3001 800 85.7001C833.3 87.0001 866.7 76.0001 900 80.0001C933.3 84.0001 966.7 103 983.3 112.5L1000 122V201H983.3C966.7 201 933.3 201 900 201C866.7 201 833.3 201 800 201C766.7 201 733.3 201 700 201C666.7 201 633.3 201 600 201C566.7 201 533.3 201 500 201C466.7 201 433.3 201 400 201C366.7 201 333.3 201 300 201C266.7 201 233.3 201 200 201C166.7 201 133.3 201 100 201C66.7 201 33.3 201 16.7 201H0V79.0001Z" fill="#989898"/>
<path d="M0 133L16.7 136.3C33.3 139.7 66.7 146.3 100 147C133.3 147.7 166.7 142.3 200 132.7C233.3 123 266.7 109 300 108.2C333.3 107.3 366.7 119.7 400 125.8C433.3 132 466.7 132 500 128.5C533.3 125 566.7 118 600 116.5C633.3 115 666.7 119 700 123.2C733.3 127.3 766.7 131.7 800 128C833.3 124.3 866.7 112.7 900 102.5C933.3 92.3 966.7 83.7 983.3 79.3L1000 75V201H983.3C966.7 201 933.3 201 900 201C866.7 201 833.3 201 800 201C766.7 201 733.3 201 700 201C666.7 201 633.3 201 600 201C566.7 201 533.3 201 500 201C466.7 201 433.3 201 400 201C366.7 201 333.3 201 300 201C266.7 201 233.3 201 200 201C166.7 201 133.3 201 100 201C66.7 201 33.3 201 16.7 201H0V133Z" fill="#7F7F7F"/>
<path d="M0 101L16.7 110.3C33.3 119.7 66.7 138.3 100 137.3C133.3 136.3 166.7 115.7 200 110.3C233.3 105 266.7 115 300 115.2C333.3 115.3 366.7 105.7 400 105C433.3 104.3 466.7 112.7 500 123.7C533.3 134.7 566.7 148.3 600 150.7C633.3 153 666.7 144 700 141.3C733.3 138.7 766.7 142.3 800 144.8C833.3 147.3 866.7 148.7 900 140.7C933.3 132.7 966.7 115.3 983.3 106.7L1000 98V201H983.3C966.7 201 933.3 201 900 201C866.7 201 833.3 201 800 201C766.7 201 733.3 201 700 201C666.7 201 633.3 201 600 201C566.7 201 533.3 201 500 201C466.7 201 433.3 201 400 201C366.7 201 333.3 201 300 201C266.7 201 233.3 201 200 201C166.7 201 133.3 201 100 201C66.7 201 33.3 201 16.7 201H0V101Z" fill="#676767"/>
<path d="M0 132H16.7C33.3 132 66.7 132 100 136C133.3 140 166.7 148 200 151C233.3 154 266.7 152 300 147C333.3 142 366.7 134 400 131C433.3 128 466.7 130 500 136.7C533.3 143.3 566.7 154.7 600 160.2C633.3 165.7 666.7 165.3 700 157C733.3 148.7 766.7 132.3 800 125C833.3 117.7 866.7 119.3 900 124C933.3 128.7 966.7 136.3 983.3 140.2L1000 144V201H983.3C966.7 201 933.3 201 900 201C866.7 201 833.3 201 800 201C766.7 201 733.3 201 700 201C666.7 201 633.3 201 600 201C566.7 201 533.3 201 500 201C466.7 201 433.3 201 400 201C366.7 201 333.3 201 300 201C266.7 201 233.3 201 200 201C166.7 201 133.3 201 100 201C66.7 201 33.3 201 16.7 201H0V132Z" fill="#505050"/>
<path d="M0 169L16.7 170.2C33.3 171.3 66.7 173.7 100 173.5C133.3 173.3 166.7 170.7 200 165.7C233.3 160.7 266.7 153.3 300 150.8C333.3 148.3 366.7 150.7 400 152C433.3 153.3 466.7 153.7 500 151.8C533.3 150 566.7 146 600 146.3C633.3 146.7 666.7 151.3 700 156.7C733.3 162 766.7 168 800 164.8C833.3 161.7 866.7 149.3 900 145.3C933.3 141.3 966.7 145.7 983.3 147.8L1000 150V201H983.3C966.7 201 933.3 201 900 201C866.7 201 833.3 201 800 201C766.7 201 733.3 201 700 201C666.7 201 633.3 201 600 201C566.7 201 533.3 201 500 201C466.7 201 433.3 201 400 201C366.7 201 333.3 201 300 201C266.7 201 233.3 201 200 201C166.7 201 133.3 201 100 201C66.7 201 33.3 201 16.7 201H0V169Z" fill="#3A3A3A"/>
<path d="M0 159L16.7 163.2C33.3 167.3 66.7 175.7 100 177.7C133.3 179.7 166.7 175.3 200 171.2C233.3 167 266.7 163 300 164.5C333.3 166 366.7 173 400 174.7C433.3 176.3 466.7 172.7 500 169.5C533.3 166.3 566.7 163.7 600 163.7C633.3 163.7 666.7 166.3 700 167.2C733.3 168 766.7 167 800 167.5C833.3 168 866.7 170 900 171C933.3 172 966.7 172 983.3 172H1000V201H983.3C966.7 201 933.3 201 900 201C866.7 201 833.3 201 800 201C766.7 201 733.3 201 700 201C666.7 201 633.3 201 600 201C566.7 201 533.3 201 500 201C466.7 201 433.3 201 400 201C366.7 201 333.3 201 300 201C266.7 201 233.3 201 200 201C166.7 201 133.3 201 100 201C66.7 201 33.3 201 16.7 201H0V159Z" fill="#252525"/>
</svg>
