<svg width="1000" height="200" viewBox="0 0 1000 200" fill="none" xmlns="http://www.w3.org/2000/svg">
<path d="M1000 0H0V200H1000V0Z" fill="#252525"/>
<path d="M0 34L16.7 33C33.3 32 66.7 30 100 38.5C133.3 47 166.7 66 200 66.5C233.3 67 266.7 49 300 52.3C333.3 55.7 366.7 80.3 400 78.8C433.3 77.3 466.7 49.7 500 45.3C533.3 41 566.7 60 600 68.5C633.3 77 666.7 75 700 70.2C733.3 65.3 766.7 57.7 800 51.3C833.3 45 866.7 40 900 38.3C933.3 36.7 966.7 38.3 983.3 39.2L1000 40V200H983.3C966.7 200 933.3 200 900 200C866.7 200 833.3 200 800 200C766.7 200 733.3 200 700 200C666.7 200 633.3 200 600 200C566.7 200 533.3 200 500 200C466.7 200 433.3 200 400 200C366.7 200 333.3 200 300 200C266.7 200 233.3 200 200 200C166.7 200 133.3 200 100 200C66.7 200 33.3 200 16.7 200H0V34Z" fill="#CDCDCD"/>
<path d="M0 123L16.7 121.8C33.3 120.7 66.7 118.3 100 116C133.3 113.7 166.7 111.3 200 109C233.3 106.7 266.7 104.3 300 100.8C333.3 97.3001 366.7 92.7001 400 85.8001C433.3 79.0001 466.7 70.0001 500 68.8001C533.3 67.7001 566.7 74.3001 600 82.0001C633.3 89.7001 666.7 98.3001 700 107.2C733.3 116 766.7 125 800 117.2C833.3 109.3 866.7 84.7001 900 84.0001C933.3 83.3001 966.7 106.7 983.3 118.3L1000 130V200H983.3C966.7 200 933.3 200 900 200C866.7 200 833.3 200 800 200C766.7 200 733.3 200 700 200C666.7 200 633.3 200 600 200C566.7 200 533.3 200 500 200C466.7 200 433.3 200 400 200C366.7 200 333.3 200 300 200C266.7 200 233.3 200 200 200C166.7 200 133.3 200 100 200C66.7 200 33.3 200 16.7 200H0V123Z" fill="#B5B5B5"/>
<path d="M0 72L16.7 78.3C33.3 84.7 66.7 97.3 100 99.7C133.3 102 166.7 94 200 94.2C233.3 94.3 266.7 102.7 300 99.7C333.3 96.7 366.7 82.3 400 88.2C433.3 94 466.7 120 500 125.2C533.3 130.3 566.7 114.7 600 102.5C633.3 90.3 666.7 81.7 700 85.2C733.3 88.7 766.7 104.3 800 104.8C833.3 105.3 866.7 90.7 900 86.8C933.3 83 966.7 90 983.3 93.5L1000 97V200H983.3C966.7 200 933.3 200 900 200C866.7 200 833.3 200 800 200C766.7 200 733.3 200 700 200C666.7 200 633.3 200 600 200C566.7 200 533.3 200 500 200C466.7 200 433.3 200 400 200C366.7 200 333.3 200 300 200C266.7 200 233.3 200 200 200C166.7 200 133.3 200 100 200C66.7 200 33.3 200 16.7 200H0V72Z" fill="#9E9E9E"/>
<path d="M0 116L16.7 115.2C33.3 114.3 66.7 112.7 100 113.7C133.3 114.7 166.7 118.3 200 115.7C233.3 113 266.7 104 300 97.2002C333.3 90.3002 366.7 85.7002 400 85.7002C433.3 85.7002 466.7 90.3002 500 99.8002C533.3 109.3 566.7 123.7 600 122.8C633.3 122 666.7 106 700 102.3C733.3 98.7002 766.7 107.3 800 111.2C833.3 115 866.7 114 900 117.8C933.3 121.7 966.7 130.3 983.3 134.7L1000 139V200H983.3C966.7 200 933.3 200 900 200C866.7 200 833.3 200 800 200C766.7 200 733.3 200 700 200C666.7 200 633.3 200 600 200C566.7 200 533.3 200 500 200C466.7 200 433.3 200 400 200C366.7 200 333.3 200 300 200C266.7 200 233.3 200 200 200C166.7 200 133.3 200 100 200C66.7 200 33.3 200 16.7 200H0V116Z" fill="#888888"/>
<path d="M0 126L16.7 122.2C33.3 118.3 66.7 110.7 100 107.8C133.3 105 166.7 107 200 114.5C233.3 122 266.7 135 300 140C333.3 145 366.7 142 400 140.2C433.3 138.3 466.7 137.7 500 136.8C533.3 136 566.7 135 600 129.3C633.3 123.7 666.7 113.3 700 117.2C733.3 121 766.7 139 800 143.8C833.3 148.7 866.7 140.3 900 133.3C933.3 126.3 966.7 120.7 983.3 117.8L1000 115V200H983.3C966.7 200 933.3 200 900 200C866.7 200 833.3 200 800 200C766.7 200 733.3 200 700 200C666.7 200 633.3 200 600 200C566.7 200 533.3 200 500 200C466.7 200 433.3 200 400 200C366.7 200 333.3 200 300 200C266.7 200 233.3 200 200 200C166.7 200 133.3 200 100 200C66.7 200 33.3 200 16.7 200H0V126Z" fill="#727272"/>
<path d="M0 119L16.7 125.5C33.3 132 66.7 145 100 151.7C133.3 158.3 166.7 158.7 200 156.8C233.3 155 266.7 151 300 151.8C333.3 152.7 366.7 158.3 400 155.8C433.3 153.3 466.7 142.7 500 136.7C533.3 130.7 566.7 129.3 600 129C633.3 128.7 666.7 129.3 700 127.7C733.3 126 766.7 122 800 120.5C833.3 119 866.7 120 900 124.7C933.3 129.3 966.7 137.7 983.3 141.8L1000 146V200H983.3C966.7 200 933.3 200 900 200C866.7 200 833.3 200 800 200C766.7 200 733.3 200 700 200C666.7 200 633.3 200 600 200C566.7 200 533.3 200 500 200C466.7 200 433.3 200 400 200C366.7 200 333.3 200 300 200C266.7 200 233.3 200 200 200C166.7 200 133.3 200 100 200C66.7 200 33.3 200 16.7 200H0V119Z" fill="#5D5D5D"/>
<path d="M0 154L16.7 153C33.3 152 66.7 150 100 149.2C133.3 148.3 166.7 148.7 200 152C233.3 155.3 266.7 161.7 300 162C333.3 162.3 366.7 156.7 400 157.8C433.3 159 466.7 167 500 168.7C533.3 170.3 566.7 165.7 600 162.5C633.3 159.3 666.7 157.7 700 158.5C733.3 159.3 766.7 162.7 800 165.2C833.3 167.7 866.7 169.3 900 164.5C933.3 159.7 966.7 148.3 983.3 142.7L1000 137V200H983.3C966.7 200 933.3 200 900 200C866.7 200 833.3 200 800 200C766.7 200 733.3 200 700 200C666.7 200 633.3 200 600 200C566.7 200 533.3 200 500 200C466.7 200 433.3 200 400 200C366.7 200 333.3 200 300 200C266.7 200 233.3 200 200 200C166.7 200 133.3 200 100 200C66.7 200 33.3 200 16.7 200H0V154Z" fill="#484848"/>
<path d="M0 173H16.7C33.3 173 66.7 173 100 173.5C133.3 174 166.7 175 200 176.3C233.3 177.7 266.7 179.3 300 178.8C333.3 178.3 366.7 175.7 400 175.8C433.3 176 466.7 179 500 177.3C533.3 175.7 566.7 169.3 600 166C633.3 162.7 666.7 162.3 700 162C733.3 161.7 766.7 161.3 800 162.7C833.3 164 866.7 167 900 166.7C933.3 166.3 966.7 162.7 983.3 160.8L1000 159V200H983.3C966.7 200 933.3 200 900 200C866.7 200 833.3 200 800 200C766.7 200 733.3 200 700 200C666.7 200 633.3 200 600 200C566.7 200 533.3 200 500 200C466.7 200 433.3 200 400 200C366.7 200 333.3 200 300 200C266.7 200 233.3 200 200 200C166.7 200 133.3 200 100 200C66.7 200 33.3 200 16.7 200H0V173Z" fill="#353535"/>
</svg>
