<svg width="1000" height="200" viewBox="0 0 1000 200" fill="none" xmlns="http://www.w3.org/2000/svg">
<path d="M1000 0H0V200H1000V0Z" fill="#252525"/>
<path d="M0 89.9999L16.7 93.4999C33.3 96.9999 66.7 104 100 93.2C133.3 82.3 166.7 53.6999 200 37.7999C233.3 21.9999 266.7 18.9999 300 20.7999C333.3 22.6999 366.7 29.3 400 44.2C433.3 59 466.7 82 500 78C533.3 74 566.7 42.9999 600 47.7999C633.3 52.6999 666.7 93.3 700 93.7C733.3 94 766.7 53.9999 800 42.2999C833.3 30.6999 866.7 47.2999 900 65.7999C933.3 84.2999 966.7 104.7 983.3 114.8L1000 125V200H983.3C966.7 200 933.3 200 900 200C866.7 200 833.3 200 800 200C766.7 200 733.3 200 700 200C666.7 200 633.3 200 600 200C566.7 200 533.3 200 500 200C466.7 200 433.3 200 400 200C366.7 200 333.3 200 300 200C266.7 200 233.3 200 200 200C166.7 200 133.3 200 100 200C66.7 200 33.3 200 16.7 200H0V89.9999Z" fill="#CDCDCD"/>
<path d="M0 58L16.7 62.7C33.3 67.3 66.7 76.7 100 86.7C133.3 96.7 166.7 107.3 200 114.5C233.3 121.7 266.7 125.3 300 113.2C333.3 101 366.7 73 400 68.7C433.3 64.3 466.7 83.7 500 96.7C533.3 109.7 566.7 116.3 600 112C633.3 107.7 666.7 92.3 700 95.3C733.3 98.3 766.7 119.7 800 128.7C833.3 137.7 866.7 134.3 900 119.8C933.3 105.3 966.7 79.7 983.3 66.8L1000 54V200H983.3C966.7 200 933.3 200 900 200C866.7 200 833.3 200 800 200C766.7 200 733.3 200 700 200C666.7 200 633.3 200 600 200C566.7 200 533.3 200 500 200C466.7 200 433.3 200 400 200C366.7 200 333.3 200 300 200C266.7 200 233.3 200 200 200C166.7 200 133.3 200 100 200C66.7 200 33.3 200 16.7 200H0V58Z" fill="#B5B5B5"/>
<path d="M0 74L16.7 83C33.3 92 66.7 110 100 115.5C133.3 121 166.7 114 200 106.2C233.3 98.3 266.7 89.7 300 96.7C333.3 103.7 366.7 126.3 400 137C433.3 147.7 466.7 146.3 500 130.5C533.3 114.7 566.7 84.3 600 73.5C633.3 62.7 666.7 71.3 700 73C733.3 74.7 766.7 69.3 800 76.3C833.3 83.3 866.7 102.7 900 109.3C933.3 116 966.7 110 983.3 107L1000 104V200H983.3C966.7 200 933.3 200 900 200C866.7 200 833.3 200 800 200C766.7 200 733.3 200 700 200C666.7 200 633.3 200 600 200C566.7 200 533.3 200 500 200C466.7 200 433.3 200 400 200C366.7 200 333.3 200 300 200C266.7 200 233.3 200 200 200C166.7 200 133.3 200 100 200C66.7 200 33.3 200 16.7 200H0V74Z" fill="#9E9E9E"/>
<path d="M0 126L16.7 127.5C33.3 129 66.7 132 100 129.3C133.3 126.7 166.7 118.3 200 119.8C233.3 121.3 266.7 132.7 300 133.5C333.3 134.3 366.7 124.7 400 121.5C433.3 118.3 466.7 121.7 500 122.3C533.3 123 566.7 121 600 122.2C633.3 123.3 666.7 127.7 700 128.3C733.3 129 766.7 126 800 119C833.3 112 866.7 101 900 96.2999C933.3 91.6999 966.7 93.3 983.3 94.2L1000 95V200H983.3C966.7 200 933.3 200 900 200C866.7 200 833.3 200 800 200C766.7 200 733.3 200 700 200C666.7 200 633.3 200 600 200C566.7 200 533.3 200 500 200C466.7 200 433.3 200 400 200C366.7 200 333.3 200 300 200C266.7 200 233.3 200 200 200C166.7 200 133.3 200 100 200C66.7 200 33.3 200 16.7 200H0V126Z" fill="#888888"/>
<path d="M0 119L16.7 118.8C33.3 118.7 66.7 118.3 100 116.2C133.3 114 166.7 110 200 114.8C233.3 119.7 266.7 133.3 300 133.7C333.3 134 366.7 121 400 112.7C433.3 104.3 466.7 100.7 500 104.5C533.3 108.3 566.7 119.7 600 119.7C633.3 119.7 666.7 108.3 700 103.8C733.3 99.3 766.7 101.7 800 111C833.3 120.3 866.7 136.7 900 138.2C933.3 139.7 966.7 126.3 983.3 119.7L1000 113V200H983.3C966.7 200 933.3 200 900 200C866.7 200 833.3 200 800 200C766.7 200 733.3 200 700 200C666.7 200 633.3 200 600 200C566.7 200 533.3 200 500 200C466.7 200 433.3 200 400 200C366.7 200 333.3 200 300 200C266.7 200 233.3 200 200 200C166.7 200 133.3 200 100 200C66.7 200 33.3 200 16.7 200H0V119Z" fill="#727272"/>
<path d="M0 170L16.7 169.3C33.3 168.7 66.7 167.3 100 160.2C133.3 153 166.7 140 200 134.8C233.3 129.7 266.7 132.3 300 135.7C333.3 139 366.7 143 400 144.5C433.3 146 466.7 145 500 141.8C533.3 138.7 566.7 133.3 600 134C633.3 134.7 666.7 141.3 700 148C733.3 154.7 766.7 161.3 800 159.2C833.3 157 866.7 146 900 138.8C933.3 131.7 966.7 128.3 983.3 126.7L1000 125V200H983.3C966.7 200 933.3 200 900 200C866.7 200 833.3 200 800 200C766.7 200 733.3 200 700 200C666.7 200 633.3 200 600 200C566.7 200 533.3 200 500 200C466.7 200 433.3 200 400 200C366.7 200 333.3 200 300 200C266.7 200 233.3 200 200 200C166.7 200 133.3 200 100 200C66.7 200 33.3 200 16.7 200H0V170Z" fill="#5D5D5D"/>
<path d="M0 173L16.7 168.3C33.3 163.7 66.7 154.3 100 149.3C133.3 144.3 166.7 143.7 200 147.7C233.3 151.7 266.7 160.3 300 163.2C333.3 166 366.7 163 400 159.3C433.3 155.7 466.7 151.3 500 148.8C533.3 146.3 566.7 145.7 600 147.3C633.3 149 666.7 153 700 155.7C733.3 158.3 766.7 159.7 800 161.8C833.3 164 866.7 167 900 163.2C933.3 159.3 966.7 148.7 983.3 143.3L1000 138V200H983.3C966.7 200 933.3 200 900 200C866.7 200 833.3 200 800 200C766.7 200 733.3 200 700 200C666.7 200 633.3 200 600 200C566.7 200 533.3 200 500 200C466.7 200 433.3 200 400 200C366.7 200 333.3 200 300 200C266.7 200 233.3 200 200 200C166.7 200 133.3 200 100 200C66.7 200 33.3 200 16.7 200H0V173Z" fill="#484848"/>
<path d="M0 183L16.7 178.5C33.3 174 66.7 165 100 164.2C133.3 163.3 166.7 170.7 200 172C233.3 173.3 266.7 168.7 300 169.7C333.3 170.7 366.7 177.3 400 178.8C433.3 180.3 466.7 176.7 500 176.3C533.3 176 566.7 179 600 180C633.3 181 666.7 180 700 178.2C733.3 176.3 766.7 173.7 800 174.2C833.3 174.7 866.7 178.3 900 180.3C933.3 182.3 966.7 182.7 983.3 182.8L1000 183V200H983.3C966.7 200 933.3 200 900 200C866.7 200 833.3 200 800 200C766.7 200 733.3 200 700 200C666.7 200 633.3 200 600 200C566.7 200 533.3 200 500 200C466.7 200 433.3 200 400 200C366.7 200 333.3 200 300 200C266.7 200 233.3 200 200 200C166.7 200 133.3 200 100 200C66.7 200 33.3 200 16.7 200H0V183Z" fill="#353535"/>
</svg>
