<svg width="1000" height="200" viewBox="0 0 1000 200" fill="none" xmlns="http://www.w3.org/2000/svg">
<path d="M1000 0H0V200H1000V0Z" fill="#252525"/>
<path d="M0 25L16.7 30C33.3 35 66.7 45 100 50.2C133.3 55.3 166.7 55.7 200 49.5C233.3 43.3 266.7 30.7 300 32.5C333.3 34.3 366.7 50.7 400 54.5C433.3 58.3 466.7 49.7 500 58.7C533.3 67.7 566.7 94.3 600 101C633.3 107.7 666.7 94.3 700 87.3C733.3 80.3 766.7 79.7 800 82C833.3 84.3 866.7 89.7 900 81.3C933.3 73 966.7 51 983.3 40L1000 29V197H983.3C966.7 197 933.3 197 900 197C866.7 197 833.3 197 800 197C766.7 197 733.3 197 700 197C666.7 197 633.3 197 600 197C566.7 197 533.3 197 500 197C466.7 197 433.3 197 400 197C366.7 197 333.3 197 300 197C266.7 197 233.3 197 200 197C166.7 197 133.3 197 100 197C66.7 197 33.3 197 16.7 197H0V25Z" fill="#CDCDCD"/>
<path d="M0 105L16.7 93C33.3 81 66.7 57 100 50C133.3 43 166.7 53 200 62.8C233.3 72.7 266.7 82.3 300 81.3C333.3 80.3 366.7 68.7001 400 71.2001C433.3 73.7001 466.7 90.3 500 89.5C533.3 88.7 566.7 70.3 600 62.3C633.3 54.3 666.7 56.7 700 62C733.3 67.3 766.7 75.7001 800 85.2001C833.3 94.7001 866.7 105.3 900 109.7C933.3 114 966.7 112 983.3 111L1000 110V197H983.3C966.7 197 933.3 197 900 197C866.7 197 833.3 197 800 197C766.7 197 733.3 197 700 197C666.7 197 633.3 197 600 197C566.7 197 533.3 197 500 197C466.7 197 433.3 197 400 197C366.7 197 333.3 197 300 197C266.7 197 233.3 197 200 197C166.7 197 133.3 197 100 197C66.7 197 33.3 197 16.7 197H0V105Z" fill="#B5B5B5"/>
<path d="M0 130L16.7 126C33.3 122 66.7 114 100 116C133.3 118 166.7 130 200 124C233.3 118 266.7 94.0001 300 91.8001C333.3 89.7001 366.7 109.3 400 118.5C433.3 127.7 466.7 126.3 500 125.5C533.3 124.7 566.7 124.3 600 112.7C633.3 101 666.7 78.0001 700 71.3001C733.3 64.7001 766.7 74.3001 800 86.7001C833.3 99.0001 866.7 114 900 117.5C933.3 121 966.7 113 983.3 109L1000 105V197H983.3C966.7 197 933.3 197 900 197C866.7 197 833.3 197 800 197C766.7 197 733.3 197 700 197C666.7 197 633.3 197 600 197C566.7 197 533.3 197 500 197C466.7 197 433.3 197 400 197C366.7 197 333.3 197 300 197C266.7 197 233.3 197 200 197C166.7 197 133.3 197 100 197C66.7 197 33.3 197 16.7 197H0V130Z" fill="#9E9E9E"/>
<path d="M0 113L16.7 118.7C33.3 124.3 66.7 135.7 100 132.2C133.3 128.7 166.7 110.3 200 109.2C233.3 108 266.7 124 300 129.5C333.3 135 366.7 130 400 124.5C433.3 119 466.7 113 500 115C533.3 117 566.7 127 600 132.5C633.3 138 666.7 139 700 130.3C733.3 121.7 766.7 103.3 800 100.7C833.3 97.9999 866.7 111 900 114.3C933.3 117.7 966.7 111.3 983.3 108.2L1000 105V197H983.3C966.7 197 933.3 197 900 197C866.7 197 833.3 197 800 197C766.7 197 733.3 197 700 197C666.7 197 633.3 197 600 197C566.7 197 533.3 197 500 197C466.7 197 433.3 197 400 197C366.7 197 333.3 197 300 197C266.7 197 233.3 197 200 197C166.7 197 133.3 197 100 197C66.7 197 33.3 197 16.7 197H0V113Z" fill="#888888"/>
<path d="M0 122L16.7 125.7C33.3 129.3 66.7 136.7 100 137.7C133.3 138.7 166.7 133.3 200 131.7C233.3 130 266.7 132 300 126.3C333.3 120.7 366.7 107.3 400 106.8C433.3 106.3 466.7 118.7 500 122.7C533.3 126.7 566.7 122.3 600 124.7C633.3 127 666.7 136 700 132.8C733.3 129.7 766.7 114.3 800 114.3C833.3 114.3 866.7 129.7 900 132.2C933.3 134.7 966.7 124.3 983.3 119.2L1000 114V197H983.3C966.7 197 933.3 197 900 197C866.7 197 833.3 197 800 197C766.7 197 733.3 197 700 197C666.7 197 633.3 197 600 197C566.7 197 533.3 197 500 197C466.7 197 433.3 197 400 197C366.7 197 333.3 197 300 197C266.7 197 233.3 197 200 197C166.7 197 133.3 197 100 197C66.7 197 33.3 197 16.7 197H0V122Z" fill="#727272"/>
<path d="M0 128L16.7 127.3C33.3 126.7 66.7 125.3 100 131C133.3 136.7 166.7 149.3 200 151.5C233.3 153.7 266.7 145.3 300 138C333.3 130.7 366.7 124.3 400 127.3C433.3 130.3 466.7 142.7 500 142C533.3 141.3 566.7 127.7 600 126.7C633.3 125.7 666.7 137.3 700 140C733.3 142.7 766.7 136.3 800 131C833.3 125.7 866.7 121.3 900 126.7C933.3 132 966.7 147 983.3 154.5L1000 162V197H983.3C966.7 197 933.3 197 900 197C866.7 197 833.3 197 800 197C766.7 197 733.3 197 700 197C666.7 197 633.3 197 600 197C566.7 197 533.3 197 500 197C466.7 197 433.3 197 400 197C366.7 197 333.3 197 300 197C266.7 197 233.3 197 200 197C166.7 197 133.3 197 100 197C66.7 197 33.3 197 16.7 197H0V128Z" fill="#5D5D5D"/>
<path d="M0 157L16.7 157.2C33.3 157.3 66.7 157.7 100 159.8C133.3 162 166.7 166 200 167.2C233.3 168.3 266.7 166.7 300 166.3C333.3 166 366.7 167 400 164C433.3 161 466.7 154 500 150C533.3 146 566.7 145 600 148.3C633.3 151.7 666.7 159.3 700 162C733.3 164.7 766.7 162.3 800 161.5C833.3 160.7 866.7 161.3 900 160.8C933.3 160.3 966.7 158.7 983.3 157.8L1000 157V197H983.3C966.7 197 933.3 197 900 197C866.7 197 833.3 197 800 197C766.7 197 733.3 197 700 197C666.7 197 633.3 197 600 197C566.7 197 533.3 197 500 197C466.7 197 433.3 197 400 197C366.7 197 333.3 197 300 197C266.7 197 233.3 197 200 197C166.7 197 133.3 197 100 197C66.7 197 33.3 197 16.7 197H0V157Z" fill="#484848"/>
<path d="M0 157L16.7 156.7C33.3 156.3 66.7 155.7 100 157.7C133.3 159.7 166.7 164.3 200 164.7C233.3 165 266.7 161 300 163C333.3 165 366.7 173 400 175.8C433.3 178.7 466.7 176.3 500 175.2C533.3 174 566.7 174 600 170.8C633.3 167.7 666.7 161.3 700 159.7C733.3 158 766.7 161 800 161.8C833.3 162.7 866.7 161.3 900 163.8C933.3 166.3 966.7 172.7 983.3 175.8L1000 179V197H983.3C966.7 197 933.3 197 900 197C866.7 197 833.3 197 800 197C766.7 197 733.3 197 700 197C666.7 197 633.3 197 600 197C566.7 197 533.3 197 500 197C466.7 197 433.3 197 400 197C366.7 197 333.3 197 300 197C266.7 197 233.3 197 200 197C166.7 197 133.3 197 100 197C66.7 197 33.3 197 16.7 197H0V157Z" fill="#353535"/>
</svg>
