<svg width="1000" height="118" viewBox="0 0 1000 118" fill="none" xmlns="http://www.w3.org/2000/svg">
<path d="M1000 0H0V117H1000V0Z" fill="#252525"/>
<path d="M0 13L15.2 21C30.3 29 60.7 45 91 48.7C121.3 52.3 151.7 43.7 182 37.7C212.3 31.7 242.7 28.3 273 32.2C303.3 36 333.7 47 364 50.3C394.3 53.7 424.7 49.3 454.8 44C485 38.7 515 32.3 545.2 35.5C575.3 38.7 605.7 51.3 636 55.2C666.3 59 696.7 54 727 51.5C757.3 49 787.7 49 818 52.2C848.3 55.3 878.7 61.7 909 64C939.3 66.3 969.7 64.7 984.8 63.8L1000 63V118H984.8C969.7 118 939.3 118 909 118C878.7 118 848.3 118 818 118C787.7 118 757.3 118 727 118C696.7 118 666.3 118 636 118C605.7 118 575.3 118 545.2 118C515 118 485 118 454.8 118C424.7 118 394.3 118 364 118C333.7 118 303.3 118 273 118C242.7 118 212.3 118 182 118C151.7 118 121.3 118 91 118C60.7 118 30.3 118 15.2 118H0V13Z" fill="#CDCDCD"/>
<path d="M0 43.9998L15.2 47.1998C30.3 50.2998 60.7 56.6998 91 58.1998C121.3 59.6998 151.7 56.2998 182 59.1998C212.3 61.9998 242.7 70.9998 273 73.1998C303.3 75.2998 333.7 70.6998 364 64.6998C394.3 58.6998 424.7 51.2998 454.8 46.9998C485 42.6998 515 41.2998 545.2 41.2998C575.3 41.2998 605.7 42.6998 636 44.1998C666.3 45.6998 696.7 47.2998 727 50.1998C757.3 52.9998 787.7 56.9998 818 58.7998C848.3 60.6998 878.7 60.2998 909 58.4998C939.3 56.6998 969.7 53.2998 984.8 51.6998L1000 49.9998V118H984.8C969.7 118 939.3 118 909 118C878.7 118 848.3 118 818 118C787.7 118 757.3 118 727 118C696.7 118 666.3 118 636 118C605.7 118 575.3 118 545.2 118C515 118 485 118 454.8 118C424.7 118 394.3 118 364 118C333.7 118 303.3 118 273 118C242.7 118 212.3 118 182 118C151.7 118 121.3 118 91 118C60.7 118 30.3 118 15.2 118H0V43.9998Z" fill="#7D7D7D"/>
<path d="M0 76L15.2 77.3C30.3 78.7 60.7 81.3 91 79.3C121.3 77.3 151.7 70.7 182 68C212.3 65.3 242.7 66.7 273 69C303.3 71.3 333.7 74.7 364 76.5C394.3 78.3 424.7 78.7 454.8 77.5C485 76.3 515 73.7 545.2 72.2C575.3 70.7 605.7 70.3 636 69.7C666.3 69 696.7 68 727 69C757.3 70 787.7 73 818 75.8C848.3 78.7 878.7 81.3 909 81C939.3 80.7 969.7 77.3 984.8 75.7L1000 74V118H984.8C969.7 118 939.3 118 909 118C878.7 118 848.3 118 818 118C787.7 118 757.3 118 727 118C696.7 118 666.3 118 636 118C605.7 118 575.3 118 545.2 118C515 118 485 118 454.8 118C424.7 118 394.3 118 364 118C333.7 118 303.3 118 273 118C242.7 118 212.3 118 182 118C151.7 118 121.3 118 91 118C60.7 118 30.3 118 15.2 118H0V76Z" fill="#353535"/>
</svg>
