<svg width="1000" height="200" viewBox="0 0 1000 200" fill="none" xmlns="http://www.w3.org/2000/svg">
<path d="M1000 0H0V200H1000V0Z" fill="#252525"/>
<path d="M0 16L16.7 20.7C33.3 25.3 66.7 34.7 100 47.8C133.3 61 166.7 78 200 92.8C233.3 107.7 266.7 120.3 300 126.5C333.3 132.7 366.7 132.3 400 117.3C433.3 102.3 466.7 72.7 500 62.7C533.3 52.7 566.7 62.3 600 75.2C633.3 88 666.7 104 700 107.5C733.3 111 766.7 102 800 98C833.3 94 866.7 95 900 96.8C933.3 98.7 966.7 101.3 983.3 102.7L1000 104V200H983.3C966.7 200 933.3 200 900 200C866.7 200 833.3 200 800 200C766.7 200 733.3 200 700 200C666.7 200 633.3 200 600 200C566.7 200 533.3 200 500 200C466.7 200 433.3 200 400 200C366.7 200 333.3 200 300 200C266.7 200 233.3 200 200 200C166.7 200 133.3 200 100 200C66.7 200 33.3 200 16.7 200H0V16Z" fill="#CDCDCD"/>
<path d="M0 34L16.7 43.2C33.3 52.3 66.7 70.7 100 88.2C133.3 105.7 166.7 122.3 200 119.2C233.3 116 266.7 93 300 83.7C333.3 74.3 366.7 78.7 400 75.5C433.3 72.3 466.7 61.7 500 59.3C533.3 57 566.7 63 600 61.8C633.3 60.7 666.7 52.3 700 56.3C733.3 60.3 766.7 76.7 800 75C833.3 73.3 866.7 53.7 900 46.5C933.3 39.3 966.7 44.7 983.3 47.3L1000 50V200H983.3C966.7 200 933.3 200 900 200C866.7 200 833.3 200 800 200C766.7 200 733.3 200 700 200C666.7 200 633.3 200 600 200C566.7 200 533.3 200 500 200C466.7 200 433.3 200 400 200C366.7 200 333.3 200 300 200C266.7 200 233.3 200 200 200C166.7 200 133.3 200 100 200C66.7 200 33.3 200 16.7 200H0V34Z" fill="#B5B5B5"/>
<path d="M0 59L16.7 67.3C33.3 75.7 66.7 92.3 100 95C133.3 97.7 166.7 86.3 200 89.5C233.3 92.7 266.7 110.3 300 118.5C333.3 126.7 366.7 125.3 400 121.5C433.3 117.7 466.7 111.3 500 100.7C533.3 90 566.7 75 600 78.8C633.3 82.7 666.7 105.3 700 118.8C733.3 132.3 766.7 136.7 800 126.2C833.3 115.7 866.7 90.3 900 80C933.3 69.7 966.7 74.3 983.3 76.7L1000 79V200H983.3C966.7 200 933.3 200 900 200C866.7 200 833.3 200 800 200C766.7 200 733.3 200 700 200C666.7 200 633.3 200 600 200C566.7 200 533.3 200 500 200C466.7 200 433.3 200 400 200C366.7 200 333.3 200 300 200C266.7 200 233.3 200 200 200C166.7 200 133.3 200 100 200C66.7 200 33.3 200 16.7 200H0V59Z" fill="#9E9E9E"/>
<path d="M0 101L16.7 108.8C33.3 116.7 66.7 132.3 100 139.7C133.3 147 166.7 146 200 135.8C233.3 125.7 266.7 106.3 300 101.3C333.3 96.3002 366.7 105.7 400 108.8C433.3 112 466.7 109 500 114.7C533.3 120.3 566.7 134.7 600 132C633.3 129.3 666.7 109.7 700 104.3C733.3 99.0002 766.7 108 800 108.8C833.3 109.7 866.7 102.3 900 104C933.3 105.7 966.7 116.3 983.3 121.7L1000 127V200H983.3C966.7 200 933.3 200 900 200C866.7 200 833.3 200 800 200C766.7 200 733.3 200 700 200C666.7 200 633.3 200 600 200C566.7 200 533.3 200 500 200C466.7 200 433.3 200 400 200C366.7 200 333.3 200 300 200C266.7 200 233.3 200 200 200C166.7 200 133.3 200 100 200C66.7 200 33.3 200 16.7 200H0V101Z" fill="#888888"/>
<path d="M0 130L16.7 127.5C33.3 125 66.7 120 100 118C133.3 116 166.7 117 200 117.8C233.3 118.7 266.7 119.3 300 126.3C333.3 133.3 366.7 146.7 400 148.8C433.3 151 466.7 142 500 135.7C533.3 129.3 566.7 125.7 600 124.5C633.3 123.3 666.7 124.7 700 128.7C733.3 132.7 766.7 139.3 800 136.3C833.3 133.3 866.7 120.7 900 122.8C933.3 125 966.7 142 983.3 150.5L1000 159V200H983.3C966.7 200 933.3 200 900 200C866.7 200 833.3 200 800 200C766.7 200 733.3 200 700 200C666.7 200 633.3 200 600 200C566.7 200 533.3 200 500 200C466.7 200 433.3 200 400 200C366.7 200 333.3 200 300 200C266.7 200 233.3 200 200 200C166.7 200 133.3 200 100 200C66.7 200 33.3 200 16.7 200H0V130Z" fill="#727272"/>
<path d="M0 156L16.7 151C33.3 146 66.7 136 100 134.7C133.3 133.3 166.7 140.7 200 144.3C233.3 148 266.7 148 300 149C333.3 150 366.7 152 400 153C433.3 154 466.7 154 500 152.5C533.3 151 566.7 148 600 150.2C633.3 152.3 666.7 159.7 700 154.7C733.3 149.7 766.7 132.3 800 128.2C833.3 124 866.7 133 900 135.2C933.3 137.3 966.7 132.7 983.3 130.3L1000 128V200H983.3C966.7 200 933.3 200 900 200C866.7 200 833.3 200 800 200C766.7 200 733.3 200 700 200C666.7 200 633.3 200 600 200C566.7 200 533.3 200 500 200C466.7 200 433.3 200 400 200C366.7 200 333.3 200 300 200C266.7 200 233.3 200 200 200C166.7 200 133.3 200 100 200C66.7 200 33.3 200 16.7 200H0V156Z" fill="#5D5D5D"/>
<path d="M0 174L16.7 168C33.3 162 66.7 150 100 144C133.3 138 166.7 138 200 137.7C233.3 137.3 266.7 136.7 300 142C333.3 147.3 366.7 158.7 400 163.3C433.3 168 466.7 166 500 160.8C533.3 155.7 566.7 147.3 600 146.3C633.3 145.3 666.7 151.7 700 152.2C733.3 152.7 766.7 147.3 800 149.8C833.3 152.3 866.7 162.7 900 161.7C933.3 160.7 966.7 148.3 983.3 142.2L1000 136V200H983.3C966.7 200 933.3 200 900 200C866.7 200 833.3 200 800 200C766.7 200 733.3 200 700 200C666.7 200 633.3 200 600 200C566.7 200 533.3 200 500 200C466.7 200 433.3 200 400 200C366.7 200 333.3 200 300 200C266.7 200 233.3 200 200 200C166.7 200 133.3 200 100 200C66.7 200 33.3 200 16.7 200H0V174Z" fill="#484848"/>
<path d="M0 177L16.7 175.3C33.3 173.7 66.7 170.3 100 170C133.3 169.7 166.7 172.3 200 174.7C233.3 177 266.7 179 300 179.8C333.3 180.7 366.7 180.3 400 179.5C433.3 178.7 466.7 177.3 500 177.3C533.3 177.3 566.7 178.7 600 177.3C633.3 176 666.7 172 700 171.8C733.3 171.7 766.7 175.3 800 174C833.3 172.7 866.7 166.3 900 167C933.3 167.7 966.7 175.3 983.3 179.2L1000 183V200H983.3C966.7 200 933.3 200 900 200C866.7 200 833.3 200 800 200C766.7 200 733.3 200 700 200C666.7 200 633.3 200 600 200C566.7 200 533.3 200 500 200C466.7 200 433.3 200 400 200C366.7 200 333.3 200 300 200C266.7 200 233.3 200 200 200C166.7 200 133.3 200 100 200C66.7 200 33.3 200 16.7 200H0V177Z" fill="#353535"/>
</svg>
