<svg width="1000" height="108" viewBox="0 0 1000 108" fill="none" xmlns="http://www.w3.org/2000/svg">
<path d="M1000 0H0V107H1000V0Z" fill="#252525"/>
<path d="M0 42L11.8 36.7C23.7 31.3 47.3 20.7 71.2 22.8C95 25 119 40 142.8 48.5C166.7 57 190.3 59 214.2 54.2C238 49.3 262 37.7 285.8 30C309.7 22.3 333.3 18.7 357.2 21.5C381 24.3 405 33.7 428.8 36.8C452.7 40 476.3 37 500 34.2C523.7 31.3 547.3 28.7 571.2 29.5C595 30.3 619 34.7 642.8 39C666.7 43.3 690.3 47.7 714.2 50C738 52.3 762 52.7 785.8 46C809.7 39.3 833.3 25.7 857.2 26.7C881 27.7 905 43.3 928.8 44.2C952.7 45 976.3 31 988.2 24L1000 17V108H988.2C976.3 108 952.7 108 928.8 108C905 108 881 108 857.2 108C833.3 108 809.7 108 785.8 108C762 108 738 108 714.2 108C690.3 108 666.7 108 642.8 108C619 108 595 108 571.2 108C547.3 108 523.7 108 500 108C476.3 108 452.7 108 428.8 108C405 108 381 108 357.2 108C333.3 108 309.7 108 285.8 108C262 108 238 108 214.2 108C190.3 108 166.7 108 142.8 108C119 108 95 108 71.2 108C47.3 108 23.7 108 11.8 108H0V42Z" fill="#CDCDCD"/>
<path d="M0 56L11.8 55C23.7 54 47.3 52 71.2 47.3C95 42.7 119 35.3 142.8 34.5C166.7 33.7 190.3 39.3 214.2 40.2C238 41 262 37 285.8 35.7C309.7 34.3 333.3 35.7 357.2 37C381 38.3 405 39.7 428.8 40.7C452.7 41.7 476.3 42.3 500 38.5C523.7 34.7 547.3 26.3 571.2 27.8C595 29.3 619 40.7 642.8 40.3C666.7 40 690.3 28 714.2 23C738 18 762 20 785.8 27.2C809.7 34.3 833.3 46.7 857.2 53.3C881 60 905 61 928.8 53.7C952.7 46.3 976.3 30.7 988.2 22.8L1000 15V108H988.2C976.3 108 952.7 108 928.8 108C905 108 881 108 857.2 108C833.3 108 809.7 108 785.8 108C762 108 738 108 714.2 108C690.3 108 666.7 108 642.8 108C619 108 595 108 571.2 108C547.3 108 523.7 108 500 108C476.3 108 452.7 108 428.8 108C405 108 381 108 357.2 108C333.3 108 309.7 108 285.8 108C262 108 238 108 214.2 108C190.3 108 166.7 108 142.8 108C119 108 95 108 71.2 108C47.3 108 23.7 108 11.8 108H0V56Z" fill="#B2B2B2"/>
<path d="M0 70.0002L11.8 69.7002C23.7 69.3002 47.3 68.7002 71.2 67.8002C95 67.0002 119 66.0002 142.8 64.5002C166.7 63.0002 190.3 61.0002 214.2 55.2002C238 49.3002 262 39.7002 285.8 39.5002C309.7 39.3002 333.3 48.7002 357.2 52.7002C381 56.7002 405 55.3002 428.8 51.3002C452.7 47.3002 476.3 40.7002 500 41.7002C523.7 42.7002 547.3 51.3002 571.2 51.0002C595 50.7002 619 41.3002 642.8 42.5002C666.7 43.7002 690.3 55.3002 714.2 61.3002C738 67.3002 762 67.7002 785.8 62.0002C809.7 56.3002 833.3 44.7002 857.2 39.8002C881 35.0002 905 37.0002 928.8 39.7002C952.7 42.3002 976.3 45.7002 988.2 47.3002L1000 49.0002V108H988.2C976.3 108 952.7 108 928.8 108C905 108 881 108 857.2 108C833.3 108 809.7 108 785.8 108C762 108 738 108 714.2 108C690.3 108 666.7 108 642.8 108C619 108 595 108 571.2 108C547.3 108 523.7 108 500 108C476.3 108 452.7 108 428.8 108C405 108 381 108 357.2 108C333.3 108 309.7 108 285.8 108C262 108 238 108 214.2 108C190.3 108 166.7 108 142.8 108C119 108 95 108 71.2 108C47.3 108 23.7 108 11.8 108H0V70.0002Z" fill="#979797"/>
<path d="M0 48.0002L11.8 48.2002C23.7 48.3002 47.3 48.7002 71.2 53.5002C95 58.3002 119 67.7002 142.8 71.3002C166.7 75.0002 190.3 73.0002 214.2 68.3002C238 63.7002 262 56.3002 285.8 54.5002C309.7 52.7002 333.3 56.3002 357.2 55.5002C381 54.7002 405 49.3002 428.8 49.2002C452.7 49.0002 476.3 54.0002 500 55.7002C523.7 57.3002 547.3 55.7002 571.2 57.8002C595 60.0002 619 66.0002 642.8 67.2002C666.7 68.3002 690.3 64.7002 714.2 62.8002C738 61.0002 762 61.0002 785.8 58.0002C809.7 55.0002 833.3 49.0002 857.2 47.7002C881 46.3002 905 49.7002 928.8 54.2002C952.7 58.7002 976.3 64.3002 988.2 67.2002L1000 70.0002V108H988.2C976.3 108 952.7 108 928.8 108C905 108 881 108 857.2 108C833.3 108 809.7 108 785.8 108C762 108 738 108 714.2 108C690.3 108 666.7 108 642.8 108C619 108 595 108 571.2 108C547.3 108 523.7 108 500 108C476.3 108 452.7 108 428.8 108C405 108 381 108 357.2 108C333.3 108 309.7 108 285.8 108C262 108 238 108 214.2 108C190.3 108 166.7 108 142.8 108C119 108 95 108 71.2 108C47.3 108 23.7 108 11.8 108H0V48.0002Z" fill="#7D7D7D"/>
<path d="M0 65.9999L11.8 64.6999C23.7 63.2999 47.3 60.6999 71.2 60.2999C95 59.9999 119 61.9999 142.8 64.4999C166.7 66.9999 190.3 69.9999 214.2 68.9999C238 67.9999 262 62.9999 285.8 63.9999C309.7 64.9999 333.3 71.9999 357.2 73.6999C381 75.2999 405 71.6999 428.8 69.9999C452.7 68.2999 476.3 68.6999 500 69.6999C523.7 70.6999 547.3 72.2999 571.2 74.4999C595 76.6999 619 79.2999 642.8 76.1999C666.7 72.9999 690.3 63.9999 714.2 63.2999C738 62.6999 762 70.2999 785.8 73.9999C809.7 77.6999 833.3 77.2999 857.2 76.1999C881 74.9999 905 72.9999 928.8 71.2999C952.7 69.6999 976.3 68.2999 988.2 67.6999L1000 66.9999V108H988.2C976.3 108 952.7 108 928.8 108C905 108 881 108 857.2 108C833.3 108 809.7 108 785.8 108C762 108 738 108 714.2 108C690.3 108 666.7 108 642.8 108C619 108 595 108 571.2 108C547.3 108 523.7 108 500 108C476.3 108 452.7 108 428.8 108C405 108 381 108 357.2 108C333.3 108 309.7 108 285.8 108C262 108 238 108 214.2 108C190.3 108 166.7 108 142.8 108C119 108 95 108 71.2 108C47.3 108 23.7 108 11.8 108H0V65.9999Z" fill="#646464"/>
<path d="M0 79L11.8 78.5C23.7 78 47.3 77 71.2 75.3C95 73.7 119 71.3 142.8 70.5C166.7 69.7 190.3 70.3 214.2 72.7C238 75 262 79 285.8 78.3C309.7 77.7 333.3 72.3 357.2 72.5C381 72.7 405 78.3 428.8 80.8C452.7 83.3 476.3 82.7 500 81C523.7 79.3 547.3 76.7 571.2 75.2C595 73.7 619 73.3 642.8 75.8C666.7 78.3 690.3 83.7 714.2 83.8C738 84 762 79 785.8 76.8C809.7 74.7 833.3 75.3 857.2 75.8C881 76.3 905 76.7 928.8 75.7C952.7 74.7 976.3 72.3 988.2 71.2L1000 70V108H988.2C976.3 108 952.7 108 928.8 108C905 108 881 108 857.2 108C833.3 108 809.7 108 785.8 108C762 108 738 108 714.2 108C690.3 108 666.7 108 642.8 108C619 108 595 108 571.2 108C547.3 108 523.7 108 500 108C476.3 108 452.7 108 428.8 108C405 108 381 108 357.2 108C333.3 108 309.7 108 285.8 108C262 108 238 108 214.2 108C190.3 108 166.7 108 142.8 108C119 108 95 108 71.2 108C47.3 108 23.7 108 11.8 108H0V79Z" fill="#353535"/>
</svg>
