<svg width="1000" height="111" viewBox="0 0 1000 111" fill="none" xmlns="http://www.w3.org/2000/svg">
<path d="M1000 0H0V110H1000V0Z" fill="#252525"/>
<path d="M0 44.0001L7.2 38.3001C14.3 32.7001 26.3779 23.2014 40.9 18.5002C57.1375 13.2437 67.6737 12.6432 84.5 15.5002C103.978 18.8075 115.7 29.0001 130.2 37.2001C144.7 45.3001 159.3 49.7001 173.8 53.0001C188.3 56.3001 202.7 58.7001 217.2 52.2001C231.7 45.7001 246.3 30.3001 260.8 27.3001C275.3 24.3001 289.7 33.7001 304.2 38.0001C318.7 42.3001 333.3 41.7001 347.8 44.7001C362.3 47.7001 376.7 54.3001 391.2 53.7001C405.7 53.0001 420.3 45.0001 434.8 44.8001C449.3 44.7001 463.7 52.3001 478.2 54.2001C492.7 56.0001 507.3 52.0001 521.8 43.5001C536.3 35.0001 550.7 22.0001 565.2 21.2001C579.7 20.3001 594.3 31.7001 608.8 37.8001C623.3 44.0001 637.7 45.0001 652.2 47.3001C666.7 49.7001 681.3 53.3001 695.8 53.7001C710.3 54.0001 724.7 51.0001 739.2 47.0001C753.7 43.0001 768.3 38.0001 782.8 34.0001C797.3 30.0001 811.7 27.0001 826.2 29.8001C840.7 32.7001 855.3 41.3001 869.8 45.2001C884.3 49.0001 898.7 48.0001 913.2 42.5001C927.7 37.0001 942.3 27.0001 956.8 25.7001C971.3 24.3001 985.7 31.7001 992.8 35.3001L1000 39.0001V111H992.8C985.7 111 971.3 111 956.8 111C942.3 111 927.7 111 913.2 111C898.7 111 884.3 111 869.8 111C855.3 111 840.7 111 826.2 111C811.7 111 797.3 111 782.8 111C768.3 111 753.7 111 739.2 111C724.7 111 710.3 111 695.8 111C681.3 111 666.7 111 652.2 111C637.7 111 623.3 111 608.8 111C594.3 111 579.7 111 565.2 111C550.7 111 536.3 111 521.8 111C507.3 111 492.7 111 478.2 111C463.7 111 449.3 111 434.8 111C420.3 111 405.7 111 391.2 111C376.7 111 362.3 111 347.8 111C333.3 111 318.7 111 304.2 111C289.7 111 275.3 111 260.8 111C246.3 111 231.7 111 217.2 111C202.7 111 188.3 111 173.8 111C159.3 111 144.7 111 130.2 111C115.7 111 101.3 111 86.8 111C72.3 111 57.7 111 43.2 111C28.7 111 14.3 111 7.2 111H0V44.0001Z" fill="#CDCDCD"/>
<path d="M0 39.9999L7.2 44.7999C14.3 49.6999 28.7 59.2999 43.2 60.9999C57.7 62.6999 72.3 56.2999 86.8 48.7999C101.3 41.2999 115.7 32.6999 130.2 31.2999C144.7 29.9999 159.3 35.9999 173.8 36.7999C188.3 37.6999 202.7 33.2999 217.2 35.1999C231.7 36.9999 246.3 44.9999 260.8 44.1999C275.3 43.2999 289.7 33.6999 304.2 35.2999C318.7 36.9999 333.3 49.9999 347.8 52.6999C362.3 55.2999 376.7 47.6999 391.2 42.6999C405.7 37.6999 420.3 35.2999 434.8 31.9999C449.3 28.6999 463.7 24.2999 478.2 23.9999C492.7 23.6999 507.3 27.2999 521.8 32.4999C536.3 37.6999 550.7 44.2999 565.2 46.9999C579.7 49.6999 594.3 48.2999 608.8 48.1999C623.3 47.9999 637.7 48.9999 652.2 48.6999C666.7 48.2999 681.3 46.6999 695.8 43.4999C710.3 40.2999 724.7 35.6999 739.2 36.6999C753.7 37.6999 768.3 44.2999 782.8 44.6999C797.3 44.9999 811.7 38.9999 826.2 39.7999C840.7 40.6999 855.3 48.2999 869.8 53.4999C884.3 58.6999 898.7 61.2999 913.2 56.6999C927.7 51.9999 942.3 39.9999 956.8 35.6999C971.3 31.2999 985.7 34.6999 992.8 36.2999L1000 37.9999V111H992.8C985.7 111 971.3 111 956.8 111C942.3 111 927.7 111 913.2 111C898.7 111 884.3 111 869.8 111C855.3 111 840.7 111 826.2 111C811.7 111 797.3 111 782.8 111C768.3 111 753.7 111 739.2 111C724.7 111 710.3 111 695.8 111C681.3 111 666.7 111 652.2 111C637.7 111 623.3 111 608.8 111C594.3 111 579.7 111 565.2 111C550.7 111 536.3 111 521.8 111C507.3 111 492.7 111 478.2 111C463.7 111 449.3 111 434.8 111C420.3 111 405.7 111 391.2 111C376.7 111 362.3 111 347.8 111C333.3 111 318.7 111 304.2 111C289.7 111 275.3 111 260.8 111C246.3 111 231.7 111 217.2 111C202.7 111 188.3 111 173.8 111C159.3 111 144.7 111 130.2 111C115.7 111 101.3 111 86.8 111C72.3 111 57.7 111 43.2 111C28.7 111 14.3 111 7.2 111H0V39.9999Z" fill="#B2B2B2"/>
<path d="M0 55.0001L7.2 51.8001C14.3 48.7001 28.7 42.3001 43.2 39.8001C57.7 37.3001 72.3 38.7001 86.8 38.3001C101.3 38.0001 115.7 36.0001 130.2 34.8001C144.7 33.7001 159.3 33.3001 173.8 39.5001C188.3 45.7001 202.7 58.3001 217.2 64.7001C231.7 71.0001 246.3 71.0001 260.8 64.7001C275.3 58.3001 289.7 45.7001 304.2 45.0001C318.7 44.3001 333.3 55.7001 347.8 62.2001C362.3 68.7001 376.7 70.3001 391.2 66.3001C405.7 62.3001 420.3 52.7001 434.8 53.2001C449.3 53.7001 463.7 64.3001 478.2 63.5001C492.7 62.7001 507.3 50.3001 521.8 42.8001C536.3 35.3001 550.7 32.7001 565.2 35.7001C579.7 38.7001 594.3 47.3001 608.8 52.3001C623.3 57.3001 637.7 58.7001 652.2 56.0001C666.7 53.3001 681.3 46.7001 695.8 48.5001C710.3 50.3001 724.7 60.7001 739.2 59.7001C753.7 58.7001 768.3 46.3001 782.8 41.5001C797.3 36.7001 811.7 39.3001 826.2 45.2001C840.7 51.0001 855.3 60.0001 869.8 61.7001C884.3 63.3001 898.7 57.7001 913.2 58.5001C927.7 59.3001 942.3 66.7002 956.8 66.7002C971.3 66.7002 985.7 59.3001 992.8 55.7001L1000 52.0001V111H992.8C985.7 111 971.3 111 956.8 111C942.3 111 927.7 111 913.2 111C898.7 111 884.3 111 869.8 111C855.3 111 840.7 111 826.2 111C811.7 111 797.3 111 782.8 111C768.3 111 753.7 111 739.2 111C724.7 111 710.3 111 695.8 111C681.3 111 666.7 111 652.2 111C637.7 111 623.3 111 608.8 111C594.3 111 579.7 111 565.2 111C550.7 111 536.3 111 521.8 111C507.3 111 492.7 111 478.2 111C463.7 111 449.3 111 434.8 111C420.3 111 405.7 111 391.2 111C376.7 111 362.3 111 347.8 111C333.3 111 318.7 111 304.2 111C289.7 111 275.3 111 260.8 111C246.3 111 231.7 111 217.2 111C202.7 111 188.3 111 173.8 111C159.3 111 144.7 111 130.2 111C115.7 111 101.3 111 86.8 111C72.3 111 57.7 111 43.2 111C28.7 111 14.3 111 7.2 111H0V55.0001Z" fill="#979797"/>
<path d="M0 67.0001L7.2 65.7001C14.3 64.3001 28.7 61.7001 43.2 62.0001C57.7 62.3001 72.3 65.7001 86.8 63.5001C101.3 61.3001 115.7 53.7001 130.2 53.2001C144.7 52.7001 159.3 59.3001 173.8 63.0001C188.3 66.7001 202.7 67.3001 217.2 69.2001C231.7 71.0001 246.3 74.0001 260.8 72.0001C275.3 70.0001 289.7 63.0001 304.2 57.5001C318.7 52.0001 333.3 48.0001 347.8 50.5001C362.3 53.0001 376.7 62.0001 391.2 62.2001C405.7 62.3001 420.3 53.7001 434.8 55.0001C449.3 56.3001 463.7 67.7001 478.2 68.8001C492.7 70.0001 507.3 61.0001 521.8 55.8001C536.3 50.7001 550.7 49.3001 565.2 50.8001C579.7 52.3001 594.3 56.7001 608.8 58.7001C623.3 60.7001 637.7 60.3001 652.2 62.5001C666.7 64.7001 681.3 69.3001 695.8 70.0001C710.3 70.7001 724.7 67.3001 739.2 67.7001C753.7 68.0001 768.3 72.0001 782.8 68.8001C797.3 65.7001 811.7 55.3001 826.2 53.2001C840.7 51.0001 855.3 57.0001 869.8 60.0001C884.3 63.0001 898.7 63.0001 913.2 59.8001C927.7 56.7001 942.3 50.3001 956.8 51.5001C971.3 52.7001 985.7 61.3001 992.8 65.7001L1000 70.0001V111H992.8C985.7 111 971.3 111 956.8 111C942.3 111 927.7 111 913.2 111C898.7 111 884.3 111 869.8 111C855.3 111 840.7 111 826.2 111C811.7 111 797.3 111 782.8 111C768.3 111 753.7 111 739.2 111C724.7 111 710.3 111 695.8 111C681.3 111 666.7 111 652.2 111C637.7 111 623.3 111 608.8 111C594.3 111 579.7 111 565.2 111C550.7 111 536.3 111 521.8 111C507.3 111 492.7 111 478.2 111C463.7 111 449.3 111 434.8 111C420.3 111 405.7 111 391.2 111C376.7 111 362.3 111 347.8 111C333.3 111 318.7 111 304.2 111C289.7 111 275.3 111 260.8 111C246.3 111 231.7 111 217.2 111C202.7 111 188.3 111 173.8 111C159.3 111 144.7 111 130.2 111C115.7 111 101.3 111 86.8 111C72.3 111 57.7 111 43.2 111C28.7 111 14.3 111 7.2 111H0V67.0001Z" fill="#7D7D7D"/>
<path d="M0 78.9998L7.2 79.9998C14.3 80.9998 28.7 82.9998 43.2 83.4998C57.7 83.9998 72.3 82.9998 86.8 78.7998C101.3 74.6998 115.7 67.2998 130.2 67.4998C144.7 67.6998 159.3 75.2998 173.8 77.1998C188.3 78.9998 202.7 74.9998 217.2 73.6998C231.7 72.2998 246.3 73.6998 260.8 74.1998C275.3 74.6998 289.7 74.2998 304.2 72.4998C318.7 70.6998 333.3 67.2998 347.8 69.2998C362.3 71.2998 376.7 78.6998 391.2 81.2998C405.7 83.9998 420.3 81.9998 434.8 80.7998C449.3 79.6998 463.7 79.2998 478.2 76.9998C492.7 74.6998 507.3 70.2998 521.8 67.2998C536.3 64.2998 550.7 62.6998 565.2 65.6998C579.7 68.6998 594.3 76.2998 608.8 76.9998C623.3 77.6998 637.7 71.2998 652.2 69.4998C666.7 67.6998 681.3 70.2998 695.8 70.4998C710.3 70.6998 724.7 68.2998 739.2 68.2998C753.7 68.2998 768.3 70.6998 782.8 71.1998C797.3 71.6998 811.7 70.2998 826.2 71.2998C840.7 72.2998 855.3 75.6998 869.8 74.7998C884.3 73.9998 898.7 68.9998 913.2 69.6998C927.7 70.2998 942.3 76.6998 956.8 78.6998C971.3 80.6998 985.7 78.2998 992.8 77.1998L1000 75.9998V111H992.8C985.7 111 971.3 111 956.8 111C942.3 111 927.7 111 913.2 111C898.7 111 884.3 111 869.8 111C855.3 111 840.7 111 826.2 111C811.7 111 797.3 111 782.8 111C768.3 111 753.7 111 739.2 111C724.7 111 710.3 111 695.8 111C681.3 111 666.7 111 652.2 111C637.7 111 623.3 111 608.8 111C594.3 111 579.7 111 565.2 111C550.7 111 536.3 111 521.8 111C507.3 111 492.7 111 478.2 111C463.7 111 449.3 111 434.8 111C420.3 111 405.7 111 391.2 111C376.7 111 362.3 111 347.8 111C333.3 111 318.7 111 304.2 111C289.7 111 275.3 111 260.8 111C246.3 111 231.7 111 217.2 111C202.7 111 188.3 111 173.8 111C159.3 111 144.7 111 130.2 111C115.7 111 101.3 111 86.8 111C72.3 111 57.7 111 43.2 111C28.7 111 14.3 111 7.2 111H0V78.9998Z" fill="#646464"/>
<path d="M0 89.0002L7.2 86.2002C14.3 83.3002 28.7 77.7002 43.2 77.2002C57.7 76.7002 72.3 81.3002 86.8 81.5002C101.3 81.7002 115.7 77.3002 130.2 75.8002C144.7 74.3002 159.3 75.7002 173.8 77.8002C188.3 80.0002 202.7 83.0002 217.2 83.3002C231.7 83.7002 246.3 81.3002 260.8 78.7002C275.3 76.0002 289.7 73.0002 304.2 73.5002C318.7 74.0002 333.3 78.0002 347.8 81.7002C362.3 85.3002 376.7 88.7002 391.2 88.3002C405.7 88.0002 420.3 84.0002 434.8 82.3002C449.3 80.7002 463.7 81.3002 478.2 79.7002C492.7 78.0002 507.3 74.0002 521.8 74.5002C536.3 75.0002 550.7 80.0002 565.2 81.0002C579.7 82.0002 594.3 79.0002 608.8 76.8002C623.3 74.7002 637.7 73.3002 652.2 73.3002C666.7 73.3002 681.3 74.7002 695.8 77.0002C710.3 79.3002 724.7 82.7002 739.2 84.3002C753.7 86.0002 768.3 86.0002 782.8 83.3002C797.3 80.7002 811.7 75.3002 826.2 72.7002C840.7 70.0002 855.3 70.0002 869.8 70.3002C884.3 70.7002 898.7 71.3002 913.2 73.8002C927.7 76.3002 942.3 80.7002 956.8 81.5002C971.3 82.3002 985.7 79.7002 992.8 78.3002L1000 77.0002V111H992.8C985.7 111 971.3 111 956.8 111C942.3 111 927.7 111 913.2 111C898.7 111 884.3 111 869.8 111C855.3 111 840.7 111 826.2 111C811.7 111 797.3 111 782.8 111C768.3 111 753.7 111 739.2 111C724.7 111 710.3 111 695.8 111C681.3 111 666.7 111 652.2 111C637.7 111 623.3 111 608.8 111C594.3 111 579.7 111 565.2 111C550.7 111 536.3 111 521.8 111C507.3 111 492.7 111 478.2 111C463.7 111 449.3 111 434.8 111C420.3 111 405.7 111 391.2 111C376.7 111 362.3 111 347.8 111C333.3 111 318.7 111 304.2 111C289.7 111 275.3 111 260.8 111C246.3 111 231.7 111 217.2 111C202.7 111 188.3 111 173.8 111C159.3 111 144.7 111 130.2 111C115.7 111 101.3 111 86.8 111C72.3 111 57.7 111 43.2 111C28.7 111 14.3 111 7.2 111H0V89.0002Z" fill="#4C4C4C"/>
<path d="M0 97H7.2C14.3 97 28.7 97 43.2 96.2C57.7 95.3 72.3 93.7 86.8 92.2C101.3 90.7 115.7 89.3 130.2 90C144.7 90.7 159.3 93.3 173.8 92.5C188.3 91.7 202.7 87.3 217.2 86.8C231.7 86.3 246.3 89.7 260.8 91.8C275.3 94 289.7 95 304.2 95.5C318.7 96 333.3 96 347.8 93.8C362.3 91.7 376.7 87.3 391.2 86.3C405.7 85.3 420.3 87.7 434.8 89.8C449.3 92 463.7 94 478.2 93C492.7 92 507.3 88 521.8 87C536.3 86 550.7 88 565.2 88.2C579.7 88.3 594.3 86.7 608.8 87.2C623.3 87.7 637.7 90.3 652.2 91.8C666.7 93.3 681.3 93.7 695.8 93.8C710.3 94 724.7 94 739.2 93.2C753.7 92.3 768.3 90.7 782.8 90.2C797.3 89.7 811.7 90.3 826.2 90.7C840.7 91 855.3 91 869.8 89.8C884.3 88.7 898.7 86.3 913.2 86.5C927.7 86.7 942.3 89.3 956.8 89.5C971.3 89.7 985.7 87.3 992.8 86.2L1000 85V111H992.8C985.7 111 971.3 111 956.8 111C942.3 111 927.7 111 913.2 111C898.7 111 884.3 111 869.8 111C855.3 111 840.7 111 826.2 111C811.7 111 797.3 111 782.8 111C768.3 111 753.7 111 739.2 111C724.7 111 710.3 111 695.8 111C681.3 111 666.7 111 652.2 111C637.7 111 623.3 111 608.8 111C594.3 111 579.7 111 565.2 111C550.7 111 536.3 111 521.8 111C507.3 111 492.7 111 478.2 111C463.7 111 449.3 111 434.8 111C420.3 111 405.7 111 391.2 111C376.7 111 362.3 111 347.8 111C333.3 111 318.7 111 304.2 111C289.7 111 275.3 111 260.8 111C246.3 111 231.7 111 217.2 111C202.7 111 188.3 111 173.8 111C159.3 111 144.7 111 130.2 111C115.7 111 101.3 111 86.8 111C72.3 111 57.7 111 43.2 111C28.7 111 14.3 111 7.2 111H0V97Z" fill="#353535"/>
</svg>
