<svg width="60" height="69" viewBox="0 0 60 69" fill="none" xmlns="http://www.w3.org/2000/svg">
<path d="M30 34.2857C39.4687 34.2857 47.1429 26.6116 47.1429 17.1429C47.1429 7.67411 39.4687 0 30 0C20.5312 0 12.8571 7.67411 12.8571 17.1429C12.8571 26.6116 20.5312 34.2857 30 34.2857ZM42 38.5714H39.7634C36.7902 39.9375 33.4821 40.7143 30 40.7143C26.5179 40.7143 23.2232 39.9375 20.2366 38.5714H18C8.0625 38.5714 0 46.6339 0 56.5714V62.1429C0 65.692 2.87946 68.5714 6.42857 68.5714H53.5714C57.1205 68.5714 60 65.692 60 62.1429V56.5714C60 46.6339 51.9375 38.5714 42 38.5714Z" fill="#EEEEEE"/>
</svg>
