<svg width="108" height="121" viewBox="0 0 108 121" fill="none" xmlns="http://www.w3.org/2000/svg">
<path d="M107.881 0.0848389H0.512207L9.98589 107.453L54.1964 120.085L98.4069 107.453L107.881 0.0848389Z" fill="#0277BD"/>
<path d="M54.1965 9.55847V110.295L89.565 100.19L97.4597 9.55847H54.1965Z" fill="#039BE5"/>
<path d="M82.9334 25.348H54.1965V37.9796H69.6702L68.7229 50.6112H54.1965V63.2428H68.0913L67.1439 77.4533L54.1965 81.8743V95.1375L79.1439 86.927L81.3544 50.6112L82.9334 25.348Z" fill="white"/>
<path d="M54.1964 25.348V37.9796H26.0912L25.1438 25.348H54.1964ZM39.6701 50.6112L40.3017 63.2428H54.1964V50.6112H39.6701ZM40.9333 69.5585H28.3017L29.2491 86.927L54.1964 95.1375V81.8743L41.2491 77.4533L40.9333 69.5585Z" fill="#EEEEEE"/>
</svg>
