<svg width="289" height="121" viewBox="0 0 289 121" fill="none" xmlns="http://www.w3.org/2000/svg">
<path d="M202.767 32.1931H179.725C168.101 29.1447 141.805 29.938 141.805 53.927C141.805 62.6711 146.164 68.8144 151.976 71.6535C144.682 78.3373 141.224 81.4903 141.224 85.9539C141.224 89.1505 142.523 92.0972 146.423 93.7449C142.276 97.6418 139.913 100.472 139.913 105.79C139.913 115.121 148.064 120.558 169.447 120.558C190.007 120.558 201.933 112.881 201.933 99.2924C201.933 82.2459 188.809 82.8736 157.869 80.9847L161.772 74.7223C169.697 76.925 196.266 77.6283 196.266 54.9935C196.266 49.5593 194.02 45.7786 191.907 43.0586L202.778 42.2333L202.767 32.1931ZM184.337 102.489C184.337 111.806 153.856 111.817 153.856 103.195C153.856 100.83 155.387 98.8362 156.928 96.9357C179.51 98.4758 184.337 97.915 184.337 102.489ZM169.572 63.3802C154.228 63.3802 154.908 42.7012 169.92 42.7012C184.317 42.7012 184.689 63.3802 169.572 63.3802ZM208.308 92.5883V83.2601C216.082 82.1965 216.224 82.6789 216.224 80.0635V45.334C216.224 42.8639 215.629 43.1894 208.308 40.6088L209.607 31.0423H234.067V80.0693C234.067 81.9611 234.183 82.1965 235.959 82.4348L241.983 83.2601V92.5883H208.308ZM223.55 21.592C216.817 21.592 212.917 17.6893 212.917 10.9532C212.917 4.21712 216.817 0.558472 223.55 0.558472C230.403 0.558472 234.303 4.22583 234.303 10.9532C234.303 17.6806 230.403 21.592 223.55 21.592ZM288.7 88.0085C283.617 90.4873 276.175 92.7336 269.439 92.7336C255.38 92.7336 250.065 87.0669 250.065 73.711V42.7593C250.065 41.1842 250.37 41.5794 240.85 41.5794V31.0627C251.247 29.8799 255.38 24.6695 256.679 11.8047H267.905C267.905 30.9348 267.515 29.7666 268.852 29.7666H285.503V41.5794H267.905V69.8111C267.905 71.8221 266.475 84.7508 285.506 77.6108L288.7 88.0085Z" fill="#413000"/>
<path d="M118.159 54.5585L66.6848 3.08479C65.1059 1.50584 62.8953 0.558472 60.6848 0.558472C58.4743 0.558472 56.2638 1.50584 54.6848 3.08479L43.6322 14.1374L56.5796 27.0848C57.8427 26.4532 59.1059 26.1374 60.6848 26.1374C66.0532 26.1374 70.1585 30.2427 70.1585 35.6111C70.1585 37.1901 69.8427 38.4532 69.2111 39.7164L81.8427 52.3479C83.1059 51.7164 84.369 51.4006 85.948 51.4006C91.3164 51.4006 95.4217 55.5058 95.4217 60.8743C95.4217 66.2427 91.3164 70.3479 85.948 70.3479C80.5796 70.3479 76.4743 66.2427 76.4743 60.8743C76.4743 59.2953 76.7901 58.0322 77.4217 56.769L64.7901 44.1374C64.4743 44.1374 64.1585 44.4532 63.8427 44.4532V77.2953C67.6322 78.5585 70.1585 82.0322 70.1585 86.1374C70.1585 91.5058 66.0532 95.6111 60.6848 95.6111C55.3164 95.6111 51.2111 91.5058 51.2111 86.1374C51.2111 82.0322 53.7374 78.5585 57.5269 77.2953V44.1374C53.7374 42.8743 51.2111 39.4006 51.2111 35.2953C51.2111 33.7164 51.5269 32.4532 52.1585 31.1901L39.2111 18.2427L3.21113 54.5585C1.63218 56.1374 0.684814 58.3479 0.684814 60.5585C0.684814 62.769 1.63218 64.9795 3.21113 66.5585L54.6848 118.032C56.2638 119.611 58.4743 120.558 60.6848 120.558C62.8953 120.558 65.1059 119.611 66.6848 118.032L118.159 66.5585C119.737 64.9795 120.685 62.769 120.685 60.5585C120.685 58.3479 119.737 56.1374 118.159 54.5585Z" fill="#F4511E"/>
</svg>
