<svg width="121" height="121" viewBox="0 0 121 121" fill="none" xmlns="http://www.w3.org/2000/svg">
<path d="M107.53 0.929688H13.2441C6.14589 0.929688 0.386963 6.68862 0.386963 13.7868V108.073C0.386963 115.171 6.14589 120.93 13.2441 120.93H107.53C114.628 120.93 120.387 115.171 120.387 108.073V13.7868C120.387 6.68862 114.628 0.929688 107.53 0.929688ZM74.6637 103.706C72.4137 104.108 71.5834 102.715 71.5834 101.564C71.5834 100.117 71.637 92.7243 71.637 86.7511C71.637 82.5725 70.2441 79.9208 68.6102 78.5279C78.5209 77.4297 88.9673 76.0636 88.9673 58.9475C88.9673 54.0725 87.2262 51.635 84.387 48.5011C84.8423 47.3493 86.3691 42.6083 83.9316 36.4475C80.2084 35.2958 71.6905 41.2422 71.6905 41.2422C68.1548 40.2511 64.3245 39.7422 60.5477 39.7422C56.7709 39.7422 52.9405 40.2511 49.4048 41.2422C49.4048 41.2422 40.887 35.2958 37.1637 36.4475C34.7262 42.5815 36.2263 47.3225 36.7084 48.5011C33.8691 51.635 32.5298 54.0725 32.5298 58.9475C32.5298 75.9833 42.5209 77.4297 52.4316 78.5279C51.1459 79.6797 49.9941 81.6618 49.5923 84.5011C47.0477 85.6529 40.5387 87.635 36.6548 80.7779C34.2173 76.5458 29.8245 76.1975 29.8245 76.1975C25.4852 76.144 29.5298 78.9297 29.5298 78.9297C32.4227 80.269 34.4584 85.4118 34.4584 85.4118C37.0566 93.3672 49.4852 90.6886 49.4852 90.6886C49.4852 94.4118 49.5387 100.465 49.5387 101.564C49.5387 102.715 48.7352 104.108 46.4584 103.706C28.7798 97.7868 16.4048 80.9654 16.4048 61.3047C16.4048 36.7154 35.2084 18.0458 59.7977 18.0458C84.387 18.0458 104.316 36.7154 104.316 61.3047C104.342 80.9654 92.3423 97.8136 74.6637 103.706Z" fill="#DAB55D"/>
</svg>
