<svg width="121" height="121" viewBox="0 0 121 121" fill="none" xmlns="http://www.w3.org/2000/svg">
<path d="M0.737549 120.927V0.92688H120.738V120.927H0.737549Z" fill="#FFD600"/>
<path d="M79.1977 90.7502C81.5043 94.4969 84.011 98.0869 89.321 98.0869C93.781 98.0869 96.121 95.8703 96.121 92.8036C96.121 89.1336 93.701 87.8303 88.7943 85.6936L86.1043 84.5469C78.341 81.2536 73.1777 77.1269 73.1777 68.4103C73.1777 60.3769 79.3277 54.2636 88.9377 54.2636C95.781 54.2636 100.698 56.6336 104.244 62.8403L95.8643 68.1969C94.021 64.9036 92.0277 63.6069 88.9377 63.6069C85.7843 63.6069 83.7877 65.5969 83.7877 68.1969C83.7877 71.4103 85.7877 72.7103 90.4043 74.7003L93.0943 75.8469C102.244 79.7436 107.404 83.7236 107.404 92.6702C107.404 102.31 99.791 107.594 89.571 107.594C79.5743 107.594 73.8977 102.577 70.7377 96.3669L79.1977 90.7502ZM40.5777 91.0236C42.2643 94.0436 44.8277 96.3669 48.5143 96.3669C52.041 96.3669 54.071 94.9736 54.071 89.5569V54.2603H65.181V91.2636C65.181 102.487 58.671 107.594 49.1643 107.594C40.5743 107.594 34.3743 101.774 31.8477 96.3669L40.5777 91.0236Z" fill="#000001"/>
</svg>
