<svg width="161" height="121" viewBox="0 0 161 121" fill="none" xmlns="http://www.w3.org/2000/svg">
<path d="M137.949 69.8985C132.354 69.9276 127.507 71.2702 123.447 73.275C121.962 70.3097 120.456 67.7009 120.205 65.7617C119.91 63.4986 119.568 62.1451 119.925 59.449C120.281 56.753 121.842 52.9326 121.82 52.6452C121.799 52.3578 121.471 50.9861 118.244 50.9606C115.017 50.9388 112.255 51.5828 111.931 52.4342C111.607 53.2856 110.985 55.203 110.6 57.2041C110.036 60.1294 104.156 70.568 100.819 76.0256C99.728 73.8935 98.8002 72.0161 98.6073 70.5316C98.3126 68.2685 97.9706 66.915 98.3272 64.219C98.6837 61.5229 100.245 57.7026 100.223 57.4151C100.201 57.1277 99.8735 55.756 96.6462 55.7306C93.419 55.7087 90.6574 56.3527 90.3336 57.2041C90.0098 58.0555 89.6605 60.0457 89.0019 61.9741C88.3397 63.8988 80.5281 81.3086 78.4797 85.8238C77.4354 88.1233 76.5295 89.9716 75.8891 91.2305C75.8855 91.2269 75.8855 91.2232 75.8855 91.2232C75.8855 91.2232 75.8454 91.3069 75.78 91.4488C75.2306 92.5222 74.9067 93.1152 74.9067 93.1152C74.9067 93.1152 74.9104 93.1225 74.9177 93.137C74.481 93.9266 74.0153 94.6579 73.7861 94.6579C73.626 94.6579 73.3022 92.5585 73.8552 89.6769C75.0195 83.6372 77.8102 74.221 77.7847 73.8935C77.7702 73.7261 78.305 72.0852 75.9619 71.2265C73.6842 70.3934 72.8729 71.7832 72.6655 71.7869C72.4654 71.7905 72.3162 72.2781 72.3162 72.2781C72.3162 72.2781 74.8522 61.6866 67.4771 61.6866C62.8636 61.6866 56.4746 66.7331 53.3273 71.3066C51.3408 72.3908 47.0875 74.7121 42.5795 77.1899C40.8476 78.1432 39.0793 79.1146 37.402 80.0388C37.2892 79.9114 37.1728 79.7877 37.0564 79.6604C28.1095 70.1168 11.5766 63.3676 12.2752 50.5349C12.5299 45.8705 14.1526 33.5872 44.0494 18.6916C68.5395 6.48834 88.1469 9.84659 91.5343 17.2871C96.3734 27.9222 81.0556 47.6824 55.6232 50.5349C45.9341 51.6228 40.8294 47.8643 39.5596 46.4672C38.2243 44.9936 38.0242 44.9281 37.5257 45.2047C36.7144 45.6558 37.2274 46.9547 37.5257 47.7297C38.2862 49.7054 41.4006 53.2092 46.7127 54.9556C51.3881 56.491 62.7654 57.3315 76.5222 52.0085C91.9345 46.0488 103.967 29.4649 100.43 15.6062C96.8354 1.511 73.4623 -3.12434 51.3408 4.73463C38.1588 9.41362 23.9072 16.7559 13.6578 26.3395C1.47273 37.735 -0.470181 47.6569 0.330269 51.8011C3.1755 66.5294 23.4742 76.1202 31.6024 83.226C31.2022 83.448 30.8238 83.6554 30.4818 83.8445C26.4067 85.8602 10.9326 93.9593 7.06133 102.513C2.66977 112.217 7.7599 119.181 11.1291 120.119C21.5677 123.023 32.2791 117.798 38.0387 109.212C43.7947 100.629 43.0925 89.4477 40.451 84.3467C40.4183 84.2848 40.3819 84.2229 40.3491 84.1575C41.4006 83.5353 42.474 82.9022 43.5364 82.2764C45.6103 81.0575 47.6478 79.9223 49.4124 78.9618C48.4228 81.6688 47.6987 84.9179 47.324 89.6078C46.8801 95.1163 49.1395 102.237 52.0939 105.038C53.3965 106.272 54.961 106.301 55.9506 106.301C59.3889 106.301 60.9571 103.441 62.6853 100.057C64.8029 95.9095 66.6839 91.0777 66.6839 91.0777C66.6839 91.0777 64.3262 104.125 70.7517 104.125C73.0948 104.125 75.4489 101.087 76.5004 99.5406C76.504 99.5588 76.504 99.5661 76.504 99.5661C76.504 99.5661 76.5658 99.4642 76.6859 99.2641C76.9297 98.893 77.068 98.6565 77.068 98.6565C77.068 98.6565 77.0716 98.631 77.0789 98.5874C78.0212 96.9537 80.1097 93.228 83.2387 87.0827C87.2846 79.1437 91.1631 69.1963 91.1631 69.1963C91.1631 69.1963 91.5233 71.6268 92.7058 75.6509C93.4008 78.0158 94.878 80.6318 96.0459 83.1423C95.1072 84.4449 94.5323 85.1908 94.5323 85.1908C94.5323 85.1908 94.536 85.2053 94.5469 85.2308C93.7974 86.2277 92.9569 87.301 92.0764 88.3489C88.8819 92.151 85.0797 96.4953 84.5703 97.7469C83.97 99.2241 84.1119 100.308 85.2726 101.185C86.1203 101.822 87.6266 101.924 89.202 101.818C92.0728 101.625 94.0884 100.912 95.0854 100.479C96.639 99.93 98.4472 99.0677 100.143 97.8197C103.275 95.5166 105.164 92.2238 104.982 87.8577C104.88 85.4527 104.116 83.0696 103.144 80.821C103.428 80.4135 103.712 79.9988 103.999 79.584C108.937 72.3654 112.768 64.4336 112.768 64.4336C112.768 64.4336 113.128 66.8641 114.311 70.8882C114.907 72.9221 116.09 75.1451 117.152 77.3209C112.51 81.0939 109.632 85.4782 108.631 88.3525C106.783 93.6719 108.231 96.0805 110.945 96.6299C112.175 96.8773 113.914 96.3134 115.22 95.7603C116.847 95.2219 118.8 94.3232 120.627 92.9806C123.76 90.6775 126.772 87.4539 126.59 83.0914C126.507 81.1048 125.968 79.1328 125.237 77.2408C129.174 75.5999 134.267 74.6903 140.758 75.4471C154.682 77.0735 157.411 85.7656 156.891 89.404C156.367 93.0424 153.449 95.0436 152.47 95.6476C151.495 96.2515 151.197 96.4626 151.277 96.9101C151.397 97.5614 151.848 97.5395 152.681 97.3976C153.827 97.2048 159.991 94.4396 160.257 87.7231C160.588 79.1874 152.419 69.8221 137.949 69.8985ZM30.6273 106.079C26.0138 111.111 19.5738 113.01 16.8086 111.409C13.8251 109.681 15.0076 102.273 20.6653 96.9319C24.1145 93.6792 28.568 90.6811 31.5224 88.8364C32.1955 88.4326 33.1815 87.8395 34.3821 87.1191C34.5823 87.0063 34.695 86.9445 34.695 86.9445L34.6914 86.9372C34.9243 86.7989 35.1608 86.657 35.4045 86.5079C37.4675 94.1085 35.47 100.8 30.6273 106.079ZM64.228 83.2406C62.6235 87.1555 59.2616 97.1757 57.2132 96.6372C55.4558 96.1751 54.3861 88.5599 56.8639 81.0648C58.1082 77.2918 60.7715 72.7838 62.336 71.0337C64.8538 68.2176 67.6263 67.2971 68.2994 68.4395C69.1544 69.8949 65.2358 80.7846 64.228 83.2406ZM91.9854 96.4844C91.305 96.8409 90.6792 97.0629 90.3918 96.8919C90.1771 96.7645 90.672 96.2952 90.672 96.2952C90.672 96.2952 94.143 92.5585 95.511 90.8594C96.3079 89.8698 97.2284 88.6945 98.2326 87.3847C98.2399 87.5157 98.2435 87.6467 98.2435 87.774C98.2362 92.2493 93.9138 95.2692 91.9854 96.4844ZM113.368 91.6089C112.859 91.2487 112.946 90.0808 114.616 86.4387C115.271 85.0088 116.77 82.6039 119.368 80.3044C119.67 81.2504 119.852 82.1563 119.848 83.0004C119.816 88.6327 115.799 90.7357 113.368 91.6089Z" fill="#F06292"/>
</svg>
