<svg width="121" height="121" viewBox="0 0 121 121" fill="none" xmlns="http://www.w3.org/2000/svg">
<path d="M120.971 0.463135H0.970703V120.463H120.971V0.463135Z" fill="#1976D2"/>
<path d="M72.6043 53.7964H28.3943V64.6764H44.251V113.796H56.8143V64.6764H72.6043V53.7964Z" fill="white"/>
<path d="M111.617 67.4098C111.617 67.4098 105.661 63.4364 98.9272 63.4364C92.1939 63.4364 89.7705 66.6364 89.7705 70.0564C89.7705 78.8831 114.374 77.9998 114.374 95.7631C114.374 123.126 76.8605 110.99 76.8605 110.99V97.8631C76.8605 97.8631 84.0339 103.27 92.6372 103.27C101.241 103.27 100.914 97.6431 100.914 96.8698C100.914 88.7064 76.5305 88.7064 76.5305 70.6098C76.5305 46.0064 112.057 55.7131 112.057 55.7131L111.617 67.4098Z" fill="white"/>
</svg>
