<svg class="logo" width="487" height="585" viewBox="0 0 487 585" fill="none" xmlns="http://www.w3.org/2000/svg">
    <path class="logo-lighter" d="M87.5651 512.91L325.931 580.093C326.169 580.16 326.418 580.21 326.663 580.242C366.977 585.342 385.347 583.99 391.188 563.561C391.897 561.084 390.314 558.599 387.834 557.9L140.476 488.175M87.5651 512.91L140.476 488.175M87.5651 512.91L82.3624 452.513C82.3299 452.136 82.5093 451.833 82.8611 451.672M140.476 488.175L135.26 427.622M366.767 469.15C334.214 459.974 310.601 453.194 280.233 444.603C275.753 443.336 275.278 437.169 279.514 435.235L318.589 417.402C319.666 416.911 320.882 416.817 322.021 417.138L421.87 445.284M366.767 469.15L370.281 509.941C370.459 512.014 371.903 513.76 373.906 514.325L422.2 527.938C425.564 528.886 428.838 526.178 428.538 522.696L421.87 445.284M366.767 469.15L421.87 445.284M135.26 427.622L82.8611 451.672M135.26 427.622L351.353 156.695M82.8611 451.672L297.24 179.864M292.631 121.713L116.744 72.1338C114.785 71.5818 113.354 69.8974 113.143 67.8739C111.898 55.9452 111.308 45.297 112.178 36.2704C112.46 33.3355 115.376 31.517 118.214 32.317L346.174 96.5744M292.631 121.713L346.174 96.5744M292.631 121.713L297.24 179.864M346.174 96.5744L351.353 156.695M8.97268 161.84L107.392 189.582C107.928 189.734 108.429 189.725 108.782 189.559L148.813 170.758C153.003 168.79 152.499 162.675 148.044 161.42L63.8874 137.698M8.97268 161.84L63.8874 137.698M8.97268 161.84L2.14872 82.2805C2.0525 81.1587 2.33582 80.0313 2.97329 79.1032C14.1908 62.771 26.232 56.5781 51.0026 51.6691C53.8884 51.0972 56.6073 53.1839 56.8598 56.115L63.8874 137.698M351.353 156.695L297.24 179.864" stroke="#000" stroke-width="4" class="logo-darker"/>
    <path class="logo-darker" d="M193.405 463.585L187.677 403.717M193.405 463.585L140.494 488.32M193.405 463.585L429.177 530.044M476.991 421.563L421.888 445.429M476.991 421.563L484.236 505.663M476.991 421.563L375.383 393.005C374.247 392.685 373.034 392.778 371.959 393.267L332.708 411.129C328.467 413.059 328.938 419.228 333.422 420.492L421.888 445.429M421.888 445.429L429.177 530.044M444.365 534.326L429.177 530.044M444.365 534.326C474.506 534.284 480.782 525.802 484.177 506.959M444.365 534.326C436.038 555.768 425.616 562.186 392.699 559.32M140.494 488.32L135.278 427.767M140.494 488.32L391.777 559.151C392.069 559.234 392.377 559.29 392.679 559.318M135.278 427.767L351.371 156.839M135.278 427.767L187.677 403.717M187.677 403.717L404.864 131.512M399.736 71.5804L346.192 96.719M399.736 71.5804L163.488 4.94961M399.736 71.5804L404.864 131.512M346.192 96.719L112.94 30.9699C118.685 5.63193 137.496 -1.89362 163.488 4.94961M346.192 96.719L351.371 156.839M163.488 4.94961L163.468 4.94384C146.212 -0.065105 126.38 2.47381 118.377 16.6688M118.82 113.7L63.9055 137.842M118.82 113.7L200.606 136.887C205.056 138.149 205.554 144.257 201.368 146.223L162.655 164.409C161.566 164.92 160.33 165.022 159.173 164.696L63.9055 137.842M118.82 113.7C107.937 60.7479 109.184 25.2846 118.377 16.6688M63.9055 137.842L56.5549 52.5112C56.4594 51.4021 56.7389 50.283 57.3578 49.3577C72.2966 27.0245 87.0374 21.0044 118.377 16.6688M404.864 131.512L351.371 156.839M484.236 505.663C484.273 506.093 484.253 506.533 484.177 506.959M484.236 505.663C484.273 506.093 484.254 506.527 484.178 506.952L484.177 506.959M392.699 559.32C392.692 559.319 392.686 559.318 392.679 559.318M392.699 559.32L392.69 559.319C392.686 559.318 392.683 559.318 392.679 559.318" stroke="#000" stroke-width="4"/>
</svg>