<svg class="logo" width="490" height="586" viewbox="0 0 490 586"xmlns="http://www.w3.org/2000/svg">
    <g id="site-logo" stroke="#86703C" stroke-width="6">
      <path class="logo-darker" d="M89.3167 512.277 327.683 579.46c.238.067.487.118.732.149 40.314 5.101 58.683 3.748 64.525-16.681.708-2.477-.875-4.962-3.355-5.661l-247.357-69.725m-52.9113 24.735 52.9113-24.735m-52.9113 24.735L84.114 451.88c-.0325-.377.1468-.68.4986-.841m57.6154 36.503-5.216-60.553m231.506 41.528c-32.553-9.176-56.166-15.956-86.533-24.547-4.48-1.267-4.956-7.434-.72-9.367l39.075-17.834c1.077-.491 2.294-.585 3.433-.263l99.849 28.145m-55.104 23.866 3.514 40.791c.179 2.073 1.623 3.819 3.625 4.384l48.295 13.613c3.364.948 6.638-1.759 6.338-5.242l-6.668-77.412m-55.104 23.866 55.104-23.866m-286.61-17.662-52.3994 24.05m52.3994-24.05 216.093-270.927M84.6126 451.039 298.991 179.231m-4.609-58.151L118.495 71.5009c-1.958-.552-3.39-2.2364-3.601-4.2599-1.244-11.9287-1.835-22.5769-.965-31.6035.283-2.9349 3.199-4.7534 6.036-3.9534l227.961 64.2574M294.382 121.08l53.544-25.1385M294.382 121.08l4.609 58.151m48.935-83.2895 5.179 60.1205m-342.3808 5.145 98.4188 27.742c.537.152 1.038.143 1.391-.022l40.03-18.802c4.19-1.968 3.687-8.082-.769-9.338l-84.156-23.722m-54.9148 24.142 54.9148-24.142m-54.9148 24.142L3.90028 81.6477c-.09622-1.1219.1871-2.2493.82457-3.1774C15.9424 62.1381 27.9835 55.9452 52.7541 51.0362c2.8859-.5719 5.6048 1.5148 5.8573 4.4459l7.0276 81.5829m287.466 18.997-54.114 23.169"/>
      <path class="logo-lighter" d="m478.743 420.93 7.244 84.1c.037.43.018.87-.059 1.295-3.395 18.844-9.67 27.325-39.812 27.367m32.627-112.762-101.608-28.559c-1.136-.319-2.349-.226-3.424.263l-39.252 17.861c-4.24 1.93-3.769 8.1.715 9.364l88.466 24.937m55.103-23.866-55.103 23.866m-228.483 18.155 177.19 49.947 58.582 16.513m-235.772-66.46-5.728-59.867m5.728 59.867-52.911 24.736m0 0 251.283 70.831c.298.084.613.141.921.168 32.918 2.867 43.34-3.551 51.666-24.994m-303.87-46.005-5.216-60.553m286.61 17.662 7.289 84.615m15.187 4.281-15.187-4.281M137.03 427.134l216.093-270.928M137.03 427.134l52.399-24.05m0 0 217.187-272.205m-5.129-59.9316L347.944 96.086m53.543-25.1386L165.418 4.40418c-.144-.04062-.289-.07033-.428-.08785-24.293-3.0702-37.841 1.43115-44.861 11.71937m281.358 54.9117 5.129 59.9316m-58.672-34.793L114.692 30.3369M347.944 96.086l5.179 60.12M114.692 30.3369c-1.973 10.8477-1.186 24.5636.582 40.3955 1.436 12.8514 3.519 27.097 5.298 42.3346m-5.88-82.7301c1.01-5.5521 2.742-10.3528 5.437-14.3012m.443 97.0313 81.786 23.187c4.449 1.262 4.948 7.37.762 9.336l-38.713 18.186c-1.089.511-2.325.613-3.483.287l-95.2668-26.854m54.9148-24.142-54.9148 24.142m0 0-7.3505-85.3308c-.0955-1.1091.184-2.2283.8029-3.1536 14.9388-22.3331 29.6796-28.3533 61.0194-32.6889M406.616 130.879l-53.493 25.327"/>
    </g>
</svg>
