<?xml version="1.0" standalone="no"?>
<!DOCTYPE svg PUBLIC "-//W3C//DTD SVG 20010904//EN"
 "http://www.w3.org/TR/2001/REC-SVG-20010904/DTD/svg10.dtd">
<svg version="1.0" xmlns="http://www.w3.org/2000/svg"
 width="700.000000pt" height="700.000000pt" viewBox="0 0 700.000000 700.000000"
 preserveAspectRatio="xMidYMid meet">
<metadata>
Created by potrace 1.14, written by Peter Selinger 2001-2017
</metadata>
<g transform="translate(0.000000,700.000000) scale(0.100000,-0.100000)"
fill="#000000" stroke="none">
<path d="M19 6986 c-1 -1 -3 -814 -4 -1808 -1 -1388 2 -1808 11 -1808 6 0 49
59 95 131 46 72 91 139 99 149 8 10 55 81 105 157 49 76 181 278 294 448 112
171 245 373 296 450 50 77 162 246 247 375 85 129 230 349 321 488 92 138 171
252 176 252 5 0 71 -9 148 -21 178 -26 137 -20 586 -84 213 -30 402 -57 420
-60 17 -2 82 -12 142 -20 61 -9 126 -18 145 -21 19 -2 49 -6 65 -9 17 -3 46
-7 65 -9 19 -3 116 -17 215 -31 99 -14 194 -28 210 -30 92 -13 254 -37 280
-41 17 -2 44 -6 60 -8 109 -15 135 -19 135 -23 0 -4 -32 -47 -73 -98 -8 -10
-92 -121 -353 -466 -72 -96 -185 -244 -250 -330 -66 -86 -129 -169 -141 -185
-29 -40 -111 -147 -264 -349 -71 -93 -228 -300 -348 -460 -121 -159 -224 -294
-228 -300 -5 -5 -42 -55 -83 -110 -41 -55 -77 -102 -80 -105 -3 -3 -32 -41
-65 -85 -32 -44 -64 -85 -69 -92 -14 -16 -16 -19 -121 -158 -49 -66 -170 -226
-268 -355 -98 -129 -187 -246 -197 -260 -10 -14 -72 -95 -137 -180 -65 -85
-181 -238 -258 -340 -77 -102 -143 -189 -148 -195 -4 -5 -155 -203 -334 -440
-178 -236 -335 -443 -348 -460 -154 -198 -354 -468 -351 -474 3 -4 1572 -7
3488 -7 l3483 1 1 1808 c0 1384 -2 1807 -11 1807 -7 0 -25 -19 -41 -42 -16
-24 -34 -49 -41 -58 -13 -16 -457 -637 -505 -705 -43 -62 -275 -388 -290 -407
-7 -9 -150 -210 -318 -447 l-305 -430 -40 5 c-49 6 -60 8 -210 33 -66 11 -138
23 -160 26 -98 15 -415 66 -460 74 -55 11 -100 18 -160 26 -22 3 -62 10 -90
15 -59 11 -115 19 -170 26 -22 3 -47 7 -55 9 -8 3 -33 7 -55 10 -22 4 -105 17
-185 30 -80 13 -163 26 -185 30 -22 3 -78 12 -125 20 -47 7 -103 16 -125 20
-58 8 -159 27 -164 31 -2 2 23 39 55 83 33 43 66 89 74 101 8 12 94 129 190
260 96 131 182 248 190 260 15 22 75 104 110 150 26 34 694 953 739 1015 20
28 39 55 44 60 7 9 44 59 227 310 36 50 81 113 100 140 19 28 38 52 41 55 3 3
71 94 150 204 79 109 185 253 234 321 50 68 130 179 179 247 50 67 120 164
156 213 37 50 140 191 230 315 90 124 190 261 223 305 86 118 390 534 477 654
75 103 162 222 220 301 30 41 55 80 55 85 0 7 -1168 10 -3482 11 -1916 0
-3484 0 -3484 0z"/>
</g>
</svg>
