<svg width="44" height="43" viewBox="0 0 44 43" fill="none" xmlns="http://www.w3.org/2000/svg">
<path d="M4.63675 1.46386C4.3161 1.51609 4.66591 1.39732 5.41411 1.19963C7.03296 0.772223 9.49932 0.712934 10.8556 1.06885C11.908 1.34509 13.347 2.0129 15.0339 3.00802C15.6218 3.35479 16.8461 4.0367 17.7547 4.5234C18.6632 5.0099 19.1879 5.35 18.9207 5.27908C18.3612 5.13039 16.0651 4.00067 13.6735 2.69728C11.2208 1.36034 10.1764 1.11785 7.46439 1.25511C6.22995 1.31745 4.95741 1.41143 4.63675 1.46386Z" stroke="#DAB55D" stroke-width="0.7"/>
<path d="M22.2245 2.91099C23.0753 2.26072 24.4671 1.58701 25.5486 1.30181C26.1252 1.14969 27.2139 1.01948 27.968 1.01262C30.3655 0.990693 32.0425 2.18066 32.6824 4.35831C32.9384 5.22914 32.9858 6.88444 32.7644 7.22435C32.6859 7.34483 32.6191 6.87301 32.616 6.17584C32.609 4.61128 31.92 3.00764 30.9446 2.28512C29.1966 0.990504 26.221 1.08144 23.2933 2.51885C22.4382 2.93882 21.9572 3.11516 22.2245 2.91099Z" stroke="#DAB55D" stroke-width="0.7"/>
<path d="M37.4255 11.3477C36.8868 11.4071 36.6561 11.3801 36.8223 11.2769C37.7061 10.7277 40.5963 11.3741 41.7937 12.3885C43.5538 13.8797 43.7019 17.2645 42.138 20.2544C41.3745 21.7143 41.0449 21.9521 41.7418 20.5404C42.8954 18.2028 43.1476 15.339 42.3436 13.703C41.6467 12.285 39.2647 11.1442 37.4255 11.3477Z" stroke="#DAB55D" stroke-width="0.7"/>
<path d="M40.0335 27.2421C39.3238 25.895 38.7452 24.694 38.7478 24.5731C38.7501 24.4521 39.042 24.8679 39.3965 25.497C39.7507 26.1261 40.6686 27.756 41.4359 29.1191C42.2033 30.4821 42.9391 31.9405 43.0708 32.3599C43.422 33.4782 43.3433 37.4801 42.9488 38.5556C42.7758 39.0275 42.6824 39.199 42.7411 38.9369C42.991 37.8211 43.0582 34.2043 42.847 33.238C42.6229 32.2133 42.3839 31.7035 40.0335 27.2421Z" stroke="#DAB55D" stroke-width="0.7"/>
<path fill-rule="evenodd" clip-rule="evenodd" d="M41.5665 1.29419C40.5166 1.57652 37.5819 1.94407 36.7999 1.89089C36.3263 1.85867 36.3164 1.88421 36.4071 2.90641C36.5253 4.23992 36.5255 5.39404 36.4075 6.71916L36.3141 7.76767L37.1886 7.68684C38.3809 7.57665 39.7789 7.57417 41.1725 7.67959L42.3386 7.76767L42.4748 5.62948C42.5498 4.45324 42.7467 3.04367 42.9121 2.49692C43.4133 0.841808 43.375 0.807491 41.5665 1.29419ZM41.5573 7.07241C41.8255 6.80952 42.2558 4.83528 42.3718 3.33535L42.4935 1.76259L41.3473 1.78356C40.1461 1.80529 38.9411 1.98773 37.7343 2.33011C37.0731 2.51789 37.0061 2.60292 36.8823 3.41313C36.7404 4.34077 36.8897 6.87072 37.0982 7.07527C37.2603 7.23426 41.3951 7.23159 41.5573 7.07241Z" stroke="#DAB55D" stroke-width="0.7"/>
<path fill-rule="evenodd" clip-rule="evenodd" d="M5.64441 2.7396C4.08523 2.90393 2.45996 3.74998 1.77141 4.75559C0.176666 7.0848 0.903317 10.5146 3.2317 11.6494C4.36314 12.2008 5.68445 12.0951 6.3967 11.3965C7.25063 10.5588 7.48422 8.327 6.7024 8.47627C6.48765 8.51725 6.37882 8.75022 6.36405 9.20069C6.31683 10.6461 6.28574 10.73 5.65705 11.1059C4.8486 11.5894 4.09476 11.5856 3.20235 11.0937C1.78795 10.3138 1.06092 8.4389 1.43075 6.52509C1.66356 5.3216 1.94983 4.79944 2.72466 4.16595C3.72551 3.34754 4.6972 3.0492 6.68198 2.95102C8.1885 2.87667 8.82088 2.93711 10.0829 3.27663C11.8092 3.74102 13.8599 4.69669 15.9084 5.99169C17.6678 7.10387 19.5222 8.08642 20.8641 8.61734C21.8589 9.01101 21.9541 9.10518 22.2394 9.97678C22.4382 10.5845 22.4722 10.9115 22.3366 10.9086C22.2214 10.9059 21.3839 10.6888 20.4754 10.4259C18.4828 9.84943 15.4368 9.60942 14.3943 9.94685C13.5414 10.2231 12.7928 11.048 12.4871 12.0482C12.1921 13.0148 12.3853 13.691 13.1797 14.4703C13.7097 14.9902 13.9788 15.1072 14.6452 15.1072C15.3143 15.1072 15.5806 14.9904 16.1222 14.459C16.4856 14.1026 16.783 13.6788 16.783 13.5171C16.783 13.0474 16.344 12.9042 16.1148 13.2992C15.3408 14.6337 14.3741 14.8706 13.4403 13.9546C12.8979 13.4225 12.8565 13.292 12.9446 12.3931C13.0219 11.6025 13.157 11.3105 13.6409 10.8861C14.8868 9.79434 16.398 9.75716 20.4272 10.7195C22.5504 11.2266 22.6378 11.2683 23.4319 12.1533C24.3274 13.1511 25.4693 13.7621 26.4513 13.7686C26.9549 13.772 27.0829 13.6954 27.0829 13.3915C27.0829 13.0731 26.9533 13.0102 26.2978 13.0102C25.4235 13.0102 24.273 12.5075 23.6834 11.8681L23.2958 11.4477L24.2664 11.6094C24.8 11.6982 26.3736 11.7676 27.7631 11.7634C29.9662 11.7568 30.4021 11.7019 31.1678 11.3341C32.1676 10.8543 33.747 9.4428 34.1499 8.66939C34.634 7.73984 34.7329 6.92448 34.3779 6.79085C33.9686 6.63681 33.878 6.74109 33.7546 7.50916C33.609 8.41584 33.2571 8.99099 32.2971 9.89156C30.9311 11.1732 30.389 11.3637 27.8607 11.4516C26.6019 11.4954 25.0608 11.4302 24.3317 11.3023L23.0372 11.0754L22.6174 10.1178C22.3863 9.59131 22.2303 9.12825 22.2705 9.08878C22.3106 9.04932 22.6884 9.11395 23.1099 9.23215C24.3282 9.57377 27.4091 9.52001 28.5553 9.13702C29.7027 8.75384 30.6322 7.87557 30.961 6.86424C31.4449 5.37612 30.2287 3.16187 28.7241 2.79146C27.8374 2.57299 26.0347 2.82215 24.9441 3.31362C23.0798 4.15395 22.1189 5.40319 21.8591 7.3252L21.7386 8.21719L20.7669 7.87881C19.5109 7.4413 18.8123 7.10215 15.5198 5.33151C14.0234 4.52683 12.1431 3.64208 11.3415 3.36547C9.73098 2.80957 7.40474 2.55411 5.64441 2.7396ZM30.3824 6.02944C30.3764 5.24916 29.7265 3.94367 29.1643 3.58241C28.1699 2.94321 26.1521 3.06121 24.5744 3.85064C23.1295 4.57373 22.0301 6.3478 22.0301 7.9564C22.0301 8.34092 22.1695 8.38838 23.9836 8.62211C25.8351 8.86078 27.7764 8.67282 28.9096 8.14532C29.7213 7.76748 30.3885 6.80914 30.3824 6.02944Z" stroke="#DAB55D" stroke-width="0.7"/>
<path fill-rule="evenodd" clip-rule="evenodd" d="M36.0348 9.65117C35.0297 9.97239 33.3982 11.5404 32.7759 12.7833C32.277 13.78 32.2329 14.0463 32.2329 16.0604C32.2329 17.2662 32.3015 18.7032 32.3853 19.2536C32.5787 20.5228 32.3218 20.5553 31.5485 19.3592C31.1375 18.7234 30.9697 18.2264 30.9697 17.6435C30.9697 16.9501 30.9095 16.823 30.581 16.823C30.2713 16.823 30.1931 16.9486 30.1966 17.4425C30.2033 18.4056 30.8259 19.526 31.8423 20.4035C32.7083 21.1514 32.8014 21.3237 33.2295 22.9699C34.3207 27.1666 34.2686 28.876 33.0122 30.1085C32.4582 30.652 32.2362 30.7395 31.4117 30.7395C30.0532 30.7395 29.443 30.0317 29.579 28.6137C29.5957 28.4406 29.9224 28.1177 30.3049 27.8963C30.6874 27.6748 30.9645 27.3875 30.9204 27.2579C30.76 26.7857 30.1683 26.9123 29.5079 27.56C28.5593 28.4905 28.5558 29.4965 29.4976 30.5041C30.1172 31.1667 30.2382 31.2153 31.2461 31.206C32.4595 31.1947 33.1059 30.8409 33.8362 29.7882C34.502 28.8287 34.4484 26.5268 33.6938 23.6804C33.3751 22.4776 33.1127 21.427 33.1108 21.3456C33.109 21.2644 33.3479 21.3167 33.6419 21.4619C33.9359 21.6072 34.395 21.7774 34.6622 21.8402C35.0491 21.9311 35.2388 22.2031 35.5935 23.176C35.8385 23.8478 36.8774 25.76 37.9022 27.4255C40.8309 32.1847 41.4162 33.9134 41.2231 37.2347C41.0633 39.9852 40.1206 41.355 38.013 41.9C36.1838 42.373 34.4649 41.9757 33.4166 40.8374C32.5775 39.9263 32.4036 39.3222 32.7001 38.3509C32.9742 37.4534 33.4025 37.2015 34.6703 37.1918C35.4856 37.1857 35.6339 37.1287 35.6339 36.8216C35.6339 36.5126 35.4877 36.4586 34.6524 36.4586C33.2851 36.4586 32.6302 36.8414 32.2273 37.8762C31.1866 40.5497 34.1482 43.0575 37.5539 42.3865C40.2613 41.8531 41.52 39.9778 41.5328 36.4586C41.5433 33.5838 41.0808 32.3469 37.593 25.9219C37.0368 24.8974 36.4171 23.5891 36.2155 23.0147L35.8492 21.9702H36.6034C37.9778 21.9702 39.5059 21.1319 40.3758 19.9008C41.4784 18.3399 41.8039 15.7518 41.0501 14.5387C40.5052 13.662 40.2047 13.4527 38.9676 13.088C38.0114 12.8062 37.8624 12.8066 37.1019 13.0914C35.3546 13.7461 34.5998 15.2449 34.5988 18.0621C34.5984 19.1106 34.6975 20.3069 34.8192 20.7203C34.9408 21.1338 35.0075 21.5044 34.9673 21.5437C34.927 21.5832 34.455 21.4301 33.9183 21.2036L32.9423 20.7916L32.7129 19.4578C32.5868 18.7242 32.5188 17.1665 32.5619 15.996C32.6307 14.1228 32.7036 13.7541 33.1695 12.9149C33.6693 12.0147 35.0508 10.4637 35.0508 10.8028C35.0508 10.8892 35.1727 10.8608 35.3216 10.7395C35.4706 10.6181 35.9734 10.4551 36.439 10.3771C37.1011 10.2664 37.2858 10.1539 37.2858 9.86201C37.2858 9.41897 36.9428 9.36121 36.0348 9.65117ZM40.9967 16.9812C41.1323 15.4079 40.7376 14.6093 39.528 14.011C38.37 13.4382 37.5613 13.4593 36.8063 14.0827C35.7011 14.9949 35.4393 15.7834 35.4407 18.1975C35.4413 19.3813 35.5328 20.6715 35.6442 21.0646C35.8284 21.716 35.9067 21.7795 36.5238 21.7795C37.4424 21.7795 38.3564 21.3773 39.2626 20.5741C40.2793 19.673 40.8703 18.4489 40.9967 16.9812Z" stroke="#DAB55D" stroke-width="0.7"/>
</svg>
