<svg width="121" height="121" viewBox="0 0 121 121" fill="none" xmlns="http://www.w3.org/2000/svg">
<path d="M111.816 0.552734H8.93161C4.21732 0.552734 0.386963 4.43666 0.386963 9.20452V111.901C0.386963 116.669 4.21732 120.553 8.93161 120.553H111.816C116.53 120.553 120.387 116.669 120.387 111.901V9.20452C120.387 4.43666 116.53 0.552734 111.816 0.552734ZM36.6548 103.41H18.8691V46.142H36.6816V103.41H36.6548ZM27.762 38.3206C22.0566 38.3206 17.4495 33.6867 17.4495 28.0081C17.4495 22.3295 22.0566 17.6956 27.762 17.6956C33.4405 17.6956 38.0745 22.3295 38.0745 28.0081C38.0745 33.7134 33.4673 38.3206 27.762 38.3206ZM103.324 103.41H85.5387V75.5527C85.5387 68.9099 85.4048 60.3652 76.2977 60.3652C67.0298 60.3652 65.6102 67.5974 65.6102 75.0706V103.41H47.8245V46.142H64.887V53.9634H65.128C67.512 49.4634 73.3245 44.7224 81.9762 44.7224C99.9762 44.7224 103.324 56.5884 103.324 72.017V103.41Z" fill="#DAB55D"/>
</svg>
