<svg width="1000" height="200" viewBox="0 0 1000 200" fill="none" xmlns="http://www.w3.org/2000/svg">
<path d="M1000 0H0V200H1000V0Z" fill="#222222"/>
<path d="M0 12L16.7 24.7C33.3 37.3 66.7 62.7 100 66.2C133.3 69.7 166.7 51.3 200 49.8C233.3 48.3 266.7 63.7 300 63C333.3 62.3 366.7 45.7 400 49.3C433.3 53 466.7 77 500 87.2C533.3 97.3 566.7 93.7 600 89.3C633.3 85 666.7 80 700 79.3C733.3 78.7 766.7 82.3 800 90.2C833.3 98 866.7 110 900 110C933.3 110 966.7 98 983.3 92L1000 86V200H983.3C966.7 200 933.3 200 900 200C866.7 200 833.3 200 800 200C766.7 200 733.3 200 700 200C666.7 200 633.3 200 600 200C566.7 200 533.3 200 500 200C466.7 200 433.3 200 400 200C366.7 200 333.3 200 300 200C266.7 200 233.3 200 200 200C166.7 200 133.3 200 100 200C66.7 200 33.3 200 16.7 200H0V12Z" fill="#999999"/>
<path d="M0 135L16.7 122.2C33.3 109.3 66.7 83.7 100 79.8C133.3 76 166.7 94 200 90C233.3 86 266.7 60 300 54.7C333.3 49.3 366.7 64.7 400 66C433.3 67.3 466.7 54.7 500 49.8C533.3 45 566.7 48 600 58.3C633.3 68.7 666.7 86.3 700 89C733.3 91.7 766.7 79.3 800 81.3C833.3 83.3 866.7 99.7 900 95C933.3 90.3 966.7 64.7 983.3 51.8L1000 39V200H983.3C966.7 200 933.3 200 900 200C866.7 200 833.3 200 800 200C766.7 200 733.3 200 700 200C666.7 200 633.3 200 600 200C566.7 200 533.3 200 500 200C466.7 200 433.3 200 400 200C366.7 200 333.3 200 300 200C266.7 200 233.3 200 200 200C166.7 200 133.3 200 100 200C66.7 200 33.3 200 16.7 200H0V135Z" fill="#888888"/>
<path d="M0 82L16.7 86C33.3 90 66.7 98 100 106.2C133.3 114.3 166.7 122.7 200 118.7C233.3 114.7 266.7 98.3 300 89.8C333.3 81.3 366.7 80.7 400 81.3C433.3 82 466.7 84 500 81.8C533.3 79.7 566.7 73.3 600 74.8C633.3 76.3 666.7 85.7 700 94.3C733.3 103 766.7 111 800 106.5C833.3 102 866.7 85 900 75.2C933.3 65.3 966.7 62.7 983.3 61.3L1000 60V200H983.3C966.7 200 933.3 200 900 200C866.7 200 833.3 200 800 200C766.7 200 733.3 200 700 200C666.7 200 633.3 200 600 200C566.7 200 533.3 200 500 200C466.7 200 433.3 200 400 200C366.7 200 333.3 200 300 200C266.7 200 233.3 200 200 200C166.7 200 133.3 200 100 200C66.7 200 33.3 200 16.7 200H0V82Z" fill="#777777"/>
<path d="M0 134L16.7 126C33.3 118 66.7 102 100 102.7C133.3 103.3 166.7 120.7 200 124.8C233.3 129 266.7 120 300 117.2C333.3 114.3 366.7 117.7 400 111.7C433.3 105.7 466.7 90.2998 500 91.6998C533.3 92.9998 566.7 111 600 115.3C633.3 119.7 666.7 110.3 700 112C733.3 113.7 766.7 126.3 800 127.7C833.3 129 866.7 119 900 111.2C933.3 103.3 966.7 97.6998 983.3 94.7998L1000 91.9998V200H983.3C966.7 200 933.3 200 900 200C866.7 200 833.3 200 800 200C766.7 200 733.3 200 700 200C666.7 200 633.3 200 600 200C566.7 200 533.3 200 500 200C466.7 200 433.3 200 400 200C366.7 200 333.3 200 300 200C266.7 200 233.3 200 200 200C166.7 200 133.3 200 100 200C66.7 200 33.3 200 16.7 200H0V134Z" fill="#666666"/>
<path d="M0 160L16.7 159C33.3 158 66.7 156 100 146.3C133.3 136.7 166.7 119.3 200 115C233.3 110.7 266.7 119.3 300 121.5C333.3 123.7 366.7 119.3 400 119.5C433.3 119.7 466.7 124.3 500 127.5C533.3 130.7 566.7 132.3 600 131.2C633.3 130 666.7 126 700 127.5C733.3 129 766.7 136 800 133.3C833.3 130.7 866.7 118.3 900 115.3C933.3 112.3 966.7 118.7 983.3 121.8L1000 125V200H983.3C966.7 200 933.3 200 900 200C866.7 200 833.3 200 800 200C766.7 200 733.3 200 700 200C666.7 200 633.3 200 600 200C566.7 200 533.3 200 500 200C466.7 200 433.3 200 400 200C366.7 200 333.3 200 300 200C266.7 200 233.3 200 200 200C166.7 200 133.3 200 100 200C66.7 200 33.3 200 16.7 200H0V160Z" fill="#555555"/>
<path d="M0 131L16.7 129.7C33.3 128.3 66.7 125.7 100 132C133.3 138.3 166.7 153.7 200 159.2C233.3 164.7 266.7 160.3 300 157.2C333.3 154 366.7 152 400 147.7C433.3 143.3 466.7 136.7 500 133.8C533.3 131 566.7 132 600 132.7C633.3 133.3 666.7 133.7 700 135.5C733.3 137.3 766.7 140.7 800 138.7C833.3 136.7 866.7 129.3 900 129.2C933.3 129 966.7 136 983.3 139.5L1000 143V200H983.3C966.7 200 933.3 200 900 200C866.7 200 833.3 200 800 200C766.7 200 733.3 200 700 200C666.7 200 633.3 200 600 200C566.7 200 533.3 200 500 200C466.7 200 433.3 200 400 200C366.7 200 333.3 200 300 200C266.7 200 233.3 200 200 200C166.7 200 133.3 200 100 200C66.7 200 33.3 200 16.7 200H0V131Z" fill="#444444"/>
<path d="M0 166L16.7 162.7C33.3 159.3 66.7 152.7 100 149.2C133.3 145.7 166.7 145.3 200 149.7C233.3 154 266.7 163 300 165.3C333.3 167.7 366.7 163.3 400 161C433.3 158.7 466.7 158.3 500 158C533.3 157.7 566.7 157.3 600 156C633.3 154.7 666.7 152.3 700 152.5C733.3 152.7 766.7 155.3 800 159.2C833.3 163 866.7 168 900 169.5C933.3 171 966.7 169 983.3 168L1000 167V200H983.3C966.7 200 933.3 200 900 200C866.7 200 833.3 200 800 200C766.7 200 733.3 200 700 200C666.7 200 633.3 200 600 200C566.7 200 533.3 200 500 200C466.7 200 433.3 200 400 200C366.7 200 333.3 200 300 200C266.7 200 233.3 200 200 200C166.7 200 133.3 200 100 200C66.7 200 33.3 200 16.7 200H0V166Z" fill="#333333"/>
</svg>
