<svg width="1001" height="201" viewBox="0 0 1001 201" fill="none" xmlns="http://www.w3.org/2000/svg">
<path fill-rule="evenodd" clip-rule="evenodd" d="M152.508 72.2221C168.366 68.4294 184.25 64.6307 200.049 63.9055C217.103 63.1228 234.184 66.8568 251.263 70.5907C267.534 74.1476 283.803 77.7044 300.049 77.3564C314.713 77.0424 329.397 73.5862 344.083 70.1296C362.746 65.7368 381.413 61.343 400.049 63.396C419.882 65.6416 439.75 75.2244 459.611 84.8041C473.098 91.3091 486.582 97.8127 500.049 102.016C533.349 112.308 566.749 108.639 600.049 104.156C604.647 103.551 609.247 102.933 613.848 102.314C642.571 98.4509 671.347 94.5809 700.049 93.9661C733.349 93.3547 766.749 97.023 800.049 105.073C808.656 107.128 817.269 109.468 825.886 111.809C850.608 118.526 875.356 125.249 900.049 125.249C933.349 125.249 966.749 113.021 983.349 106.908L1000.05 100.793V200.743H0.0488281V1.81309C1.12769 1.13762 4.38703 19.4902 14.2402 25.2576C13.7971 24.987 13.8013 24.1292 13.7531 23.3318C13.719 22.7667 13.7372 22.1415 13.7971 21.4946C13.8947 20.4406 13.9671 19.3289 14.2402 18.3257C14.5736 17.1009 14.7527 16.7211 15.1954 16.1209C15.3352 16.0197 15.8729 15.2267 16.0716 14.926C16.6135 14.1059 16.7392 14.034 16.8899 13.9477C16.9368 13.9209 16.986 13.8927 17.0509 13.8403C17.2199 13.7037 17.3965 13.5841 17.4433 13.5745C17.5864 13.545 22.0619 10.3147 22.0742 10.2319C22.0774 10.2107 22.5371 9.84835 23.0957 9.42684C23.6544 9.00533 24.3009 8.48777 24.5326 8.27671C25.3371 7.54375 25.4565 7.46623 25.7983 7.45512C26.6417 7.42763 27.1473 7.26568 27.7414 6.83274C28.1182 6.55807 28.803 6.20414 28.9268 6.21992C28.9767 6.22633 29.0875 6.19289 29.1728 6.14557C29.2582 6.09835 29.3738 6.06669 29.4296 6.07528C29.4855 6.08388 29.6628 6.01521 29.8237 5.92274C30.3469 5.62182 30.9456 5.33614 31.0268 5.34864C31.0705 5.35536 31.1991 5.32608 31.3126 5.28348C31.6416 5.16013 32.2286 5.0102 32.3311 5.02336C32.3829 5.03006 32.495 4.99683 32.5804 4.94952C32.6658 4.9023 32.8134 4.87557 32.9085 4.89021C33.0035 4.90484 33.1899 4.88618 33.3227 4.84872C33.4555 4.81125 33.7514 4.79203 33.9804 4.80596C34.2093 4.81987 34.5074 4.81423 34.643 4.79342C35.5919 4.64744 36.1372 4.63951 36.8795 4.76091C37.4758 4.85838 37.7388 4.93552 37.9968 5.0885C38.1823 5.19861 38.6039 5.47491 38.9335 5.70258C39.9415 6.3987 40.1444 6.52778 40.2582 6.54529C40.3184 6.55458 40.4529 6.62555 40.5571 6.70309C40.6613 6.78054 40.8697 6.86312 41.0203 6.88661C41.1709 6.91001 41.3492 6.97112 41.4164 7.02224C41.4837 7.07344 41.768 7.18521 42.0481 7.27068C42.3284 7.35617 42.5882 7.45953 42.6257 7.50039C42.6631 7.54122 42.844 7.62092 43.0276 7.67753C43.2113 7.73409 43.4432 7.84116 43.5429 7.91546C43.6428 7.98971 43.7906 8.06087 43.8715 8.07362C43.9524 8.08629 44.0501 8.14032 44.0887 8.19361C44.1273 8.24691 44.2941 8.33632 44.4594 8.39229C44.6247 8.44826 44.8516 8.54415 44.9636 8.60546C45.0757 8.66671 45.3993 8.82379 45.6827 8.95458C45.9662 9.08529 46.3365 9.26155 46.5056 9.34624C46.6747 9.43093 46.8671 9.50834 46.933 9.51826C47.0385 9.5342 47.2816 9.68631 47.5935 9.93159C47.6477 9.97428 47.7554 10.0497 47.8328 10.0993C47.9102 10.1489 48.1931 10.4869 48.4615 10.8505C48.7298 11.214 49.1984 11.8411 49.5026 12.2439C50.1673 13.1238 50.8513 14.202 50.8311 14.338C50.8231 14.3921 50.8589 14.4847 50.9107 14.544C50.9625 14.6033 50.9974 14.7025 50.9882 14.7645C50.9789 14.8266 51.0108 14.9368 51.059 15.0094C51.1981 15.2189 51.9379 16.4369 52.0959 16.7165C52.6272 17.6573 52.942 18.203 53.024 18.3257C53.1411 18.501 53.1936 18.594 53.4079 19.0056C53.5011 19.1845 53.592 19.3499 53.61 19.3733C53.8702 19.7108 54.1921 20.5438 54.2167 20.9434C54.225 21.0779 54.2588 21.2113 54.2918 21.2399C54.3249 21.2683 54.3384 21.3831 54.3218 21.4946C54.2895 21.7124 54.3997 22.5992 54.509 23.0017C54.5458 23.1369 54.5702 23.2856 54.5634 23.3318C54.5447 23.4574 55.0781 25.1903 55.1562 25.2578C55.1933 25.2898 55.2127 25.3897 55.1993 25.48C55.1859 25.5701 55.204 25.684 55.2394 25.7328C55.2987 25.8147 55.347 26.1738 55.4177 27.0577C55.4328 27.2452 55.4823 27.4574 55.5276 27.5294C55.573 27.6014 55.6051 27.6947 55.5988 27.7369C55.5926 27.7791 55.6262 27.8579 55.6735 27.9119C55.7208 27.966 55.7579 28.1357 55.7559 28.2891C55.7462 29.0515 55.8551 29.4052 56.2892 30.0201C57.088 31.1518 58.5331 32.1902 59.5586 33.1141C60.1245 33.6242 60.53 34.3123 60.7445 35.1263C60.9429 35.8792 61.574 36.5045 62.0335 37.1094C62.4894 37.7094 62.7146 38.1668 62.9201 38.9104C63.1385 39.7004 63.3463 40.5183 63.8279 41.1858C64.6991 42.3931 65.3985 43.6533 65.85 45.0843C66.4351 46.942 66.0698 48.8126 66.578 50.5855C66.9041 51.7233 67.7602 54.2056 68.1048 55.1715C68.7406 56.9536 69.2792 60.8999 68.9706 62.7387C68.8806 63.9381 69.2753 64.4415 69.2753 64.4415C69.2753 64.4415 70.4585 65.5649 70.9048 66.2441C71.0449 66.4572 71.2121 66.7221 71.2764 66.8328C71.937 67.9689 72.5213 70.2336 73.6654 70.9334C74.8838 71.6783 76.492 72.5023 74.949 73.7283C74.5523 74.0434 74.2919 74.4063 73.975 75.0853C73.844 75.366 73.5755 75.8245 73.3784 76.1043L73.1667 76.5047C80.6384 79.1344 89.409 80.6173 100.049 80.6173C117.404 80.6173 134.94 76.4234 152.508 72.2221ZM71.1685 75.3032C70.8385 75.2525 70.9731 75.6854 70.9731 75.6854C66.1248 73.7688 61.8363 71.3482 57.9356 68.5278C58.4974 68.733 59.1979 68.6516 59.2273 67.956C59.2553 67.2957 58.9491 66.3785 58.7369 65.7487C58.3705 64.6627 58.46 63.1292 58.7418 62.0566C58.9506 61.262 59.0427 60.5247 58.9492 59.545C58.9042 59.0736 58.5823 58.7245 58.8732 58.3822C59.203 57.994 60.4087 58.299 60.7587 58.3822C61.3561 58.5241 62.176 59.2398 62.6302 59.6803C63.423 60.4498 63.8261 61.0427 64.3444 62.0962C64.9714 63.3701 65.758 64.6054 66.1181 65.988C66.3992 67.0675 68.4745 69.0285 69.3474 69.5292C70.375 70.1197 71.3157 71.0863 72.1216 71.9351C72.6509 72.4928 72.6953 73.2127 72.2844 74.5779C72.0448 75.3739 71.6309 75.3745 71.1685 75.3032ZM41.6257 51.3C41.4371 51.3293 41.1458 51.4171 40.9719 51.4969C41.9266 53.9457 47.6012 60.5539 53.5938 65.0987C53.5938 65.0987 53.6905 64.7462 53.9279 64.8097C54.6093 64.992 56.1669 65.7487 56.3744 65.4639C56.9921 65.0184 56.6416 63.7853 56.6416 63.7853C56.7028 63.3713 56.2309 62.2968 56.0834 61.8833C55.6226 60.5901 55.2661 59.2197 54.5337 58.0424C54.3516 57.7494 54.245 57.376 54.1687 56.9224C53.6831 54.0356 59.1396 53.7302 60.7004 53.2445C62.0872 52.8133 61.4555 51.8272 60.7819 51.0055C60.3274 50.4511 59.3494 48.443 59.0906 48.3862C58.8566 48.3348 58.641 48.3862 58.042 48.8005C57.0113 49.3663 56.9607 49.3901 56.2303 49.6502C55.8007 49.8032 54.872 50.467 54.42 50.2745C53.2798 49.7893 51.1268 47.093 50.5263 46.017C50.3862 45.7654 49.9455 45.6663 49.7391 45.8398C49.6284 45.9328 48.8291 46.76 48.4419 47.1823C48.0989 47.5562 47.8656 48.0493 47.4572 48.3608C47.2659 48.5066 45.9535 49.1759 45.5015 49.358C44.7777 49.6507 43.9644 50.4645 43.2366 50.5855C42.6462 50.6844 42.2051 51.2087 41.6257 51.3ZM55.5748 31.9595C55.1052 32.3124 55.3976 33.6303 55.3279 34.1881C55.2662 34.6821 55.2381 34.7489 54.8279 35.3829C54.4691 35.9377 54.2933 36.4897 54.141 37.5399C53.9744 38.6898 53.3311 39.5862 53.1554 40.7094C52.9289 42.1595 52.0417 42.7984 51.4461 43.9474C51.3581 44.1175 51.3689 44.1849 51.5287 44.4608C51.7754 44.8868 52.0935 45.3201 52.8025 45.732C53.2667 45.8042 54.035 46.2741 54.342 46.6133C55.167 47.5239 54.8279 45.8398 56.6902 45.3201C57.8137 45.0065 58.6626 43.681 57.3862 43.3825C57.0542 43.3116 57.0548 43.2654 56.8802 43.3585C56.7598 43.4227 56.666 43.4247 56.5442 43.2591C56.0681 42.6114 55.7713 42.4698 55.3291 42.6793C54.5999 43.0245 54.2137 41.9003 54.0177 41.3376C53.9914 41.2621 54.0231 40.8419 54.088 40.4037C54.2327 39.4277 54.2634 39.372 55.2758 38.2509C55.7325 37.7451 56.2739 37.4531 56.6859 37.4902C57.4045 37.5551 58.1958 38.0778 58.6626 38.6003C59.1664 39.1638 58.9124 39.6489 59.6505 39.8819C61.1053 40.341 58.94 36.5005 58.2926 36.1415C57.8573 35.9001 57.5437 35.3808 57.3862 35.1263C56.7968 34.1739 56.6447 33.3103 56.1302 32.346C55.9024 31.9194 55.76 31.8203 55.5748 31.9595Z" fill="#AAAAAA"/>
<path d="M0.0488281 134.506L16.7488 121.463C33.3488 108.318 66.7488 76.9721 100.049 72.998C133.349 69.1257 166.749 92.727 200.049 88.651C233.349 84.575 266.749 58.0807 300.049 52.68C333.349 47.1775 366.749 62.8701 400.049 64.1948C433.349 65.5196 466.749 52.68 500.049 47.6869C533.349 42.7957 566.749 45.8527 600.049 56.3484C633.349 66.9461 666.749 84.8806 700.049 87.632C733.349 90.3832 766.749 77.7476 800.049 79.7856C833.349 81.8236 866.749 98.5353 900.049 93.746C933.349 88.9567 966.749 62.8701 983.349 49.7249L1000.05 36.6816V200.742C666.716 200.742 333.382 200.742 0.0488281 200.742V134.506Z" fill="#999999"/>
<path d="M0.0488281 80.5002L16.7488 84.5763C33.3488 88.6523 66.7488 96.8043 100.049 105.16C133.349 113.414 166.749 121.973 200.049 117.898C233.349 113.822 266.749 97.11 300.049 88.4484C333.349 79.7869 366.749 79.1755 400.049 79.7869C433.349 80.5001 466.749 82.5382 500.049 80.2964C533.349 78.1565 566.749 71.6349 600.049 73.1633C633.349 74.6919 666.749 84.2705 700.049 93.034C733.349 101.9 766.749 110.051 800.049 105.466C833.349 100.88 866.749 83.5572 900.049 73.571C933.349 63.4828 966.749 60.8334 983.349 59.4068L1000.05 58.082V200.742C666.716 200.742 333.382 200.742 0.0488281 200.742V80.5002Z" fill="#888888"/>
<path d="M0.0488281 133.489L16.7488 125.336C33.3488 117.184 66.7488 100.88 100.049 101.593C133.349 102.205 166.749 119.935 200.049 124.113C233.349 128.393 266.749 119.222 300.049 116.369C333.349 113.414 366.749 116.879 400.049 110.764C433.349 104.65 466.749 88.9575 500.049 90.3842C533.349 91.7089 566.749 110.051 600.049 114.433C633.349 118.916 666.749 109.337 700.049 111.07C733.349 112.802 766.749 125.642 800.049 127.069C833.349 128.393 866.749 118.203 900.049 110.255C933.349 102.205 966.749 96.4981 983.349 93.543L1000.05 90.6899V200.742C666.716 200.742 333.382 200.742 0.0488281 200.742V133.489Z" fill="#777777"/>
<path d="M0.0488281 159.981L16.7488 158.962C33.3488 157.943 66.7488 155.904 100.049 146.021C133.349 136.238 166.749 118.507 200.049 114.125C233.349 109.744 266.749 118.507 300.049 120.749C333.349 122.991 366.749 118.507 400.049 118.711C433.349 118.915 466.749 123.603 500.049 126.864C533.349 130.124 566.749 131.754 600.049 130.634C633.349 129.411 666.749 125.334 700.049 126.864C733.349 128.392 766.749 135.524 800.049 132.773C833.349 130.124 866.749 117.489 900.049 114.432C933.349 111.374 966.749 117.896 983.349 121.055L1000.05 124.315V200.741C666.716 200.741 333.382 200.741 0.0488281 200.741V159.981Z" fill="#666666"/>
<path d="M0.0488281 130.43L16.7488 129.105C33.3488 127.679 66.7488 125.029 100.049 131.449C133.349 137.869 166.749 153.562 200.049 159.166C233.349 164.771 266.749 160.287 300.049 157.128C333.349 153.867 366.749 151.829 400.049 147.447C433.349 142.964 466.749 136.238 500.049 133.283C533.349 130.43 566.749 131.449 600.049 132.163C633.349 132.774 666.749 133.182 700.049 135.016C733.349 136.85 766.749 140.315 800.049 138.276C833.349 136.238 866.749 128.698 900.049 128.596C933.349 128.393 966.749 135.525 983.349 139.092L1000.05 142.658V200.742C666.716 200.742 333.382 200.742 0.0488281 200.742V130.43Z" fill="#555555"/>
<path d="M0.0488281 166.097L16.7488 162.734C33.3488 159.269 66.7488 152.543 100.049 148.977C133.349 145.41 166.749 145.003 200.049 149.487C233.349 153.868 266.749 163.039 300.049 165.383C333.349 167.828 366.749 163.344 400.049 161.001C433.349 158.658 466.749 158.25 500.049 157.944C533.349 157.638 566.749 157.231 600.049 155.906C633.349 154.581 666.749 152.136 700.049 152.34C733.349 152.543 766.749 155.193 800.049 159.167C833.349 163.039 866.749 168.135 900.049 169.663C933.349 171.191 966.749 169.153 983.349 168.135L1000.05 167.116V200.742C666.716 200.742 333.382 200.742 0.0488281 200.742V166.097Z" fill="#444444"/>
<path fill-rule="evenodd" clip-rule="evenodd" d="M0.0488281 171.192L16.7488 170.173C33.3488 169.154 66.7488 167.115 100.049 167.115C133.349 167.115 166.749 169.154 200.049 167.829C237.471 166.226 274.399 161.939 311.877 164.59V122.286H333.549C335.901 122.286 338.061 122.766 340.029 123.726C342.045 124.686 343.773 125.982 345.213 127.614C346.653 129.246 347.781 131.07 348.597 133.086C349.413 135.102 349.821 137.166 349.821 139.278C349.821 142.158 349.149 144.894 347.805 147.486C346.461 150.078 344.589 152.19 342.189 153.822C339.837 155.454 337.077 156.27 333.909 156.27H321.813V165.44L360.336 169.412V122.286H382.944C385.296 122.286 387.456 122.766 389.424 123.726C391.44 124.686 393.168 125.982 394.608 127.614C396.096 129.246 397.224 131.07 397.992 133.086C398.808 135.102 399.216 137.166 399.216 139.278C399.216 142.542 398.376 145.542 396.696 148.278C395.064 151.014 392.832 152.982 390 154.182L401.664 173.406C410.322 173.113 418.419 172.857 425.894 172.679C421.821 171.406 418.132 168.934 415.282 165.774C413.122 163.278 411.442 160.494 410.242 157.422C409.042 154.302 408.442 151.11 408.442 147.846C408.442 144.438 409.066 141.198 410.314 138.126C411.562 135.006 413.314 132.246 415.57 129.846C417.826 127.398 420.466 125.478 423.49 124.086C426.562 122.646 429.922 121.926 433.57 121.926C437.266 121.926 440.626 122.67 443.65 124.158C446.722 125.646 449.338 127.638 451.498 130.134C453.706 132.63 455.386 135.438 456.538 138.558C457.738 141.63 458.338 144.774 458.338 147.99C458.338 151.35 457.714 154.59 456.466 157.71C455.218 160.782 453.466 163.542 451.21 165.99C448.547 168.884 445.149 171.114 441.442 172.429C452.101 172.365 460.97 172.591 467.777 173.291C466.099 172.765 464.547 172.012 463.118 171.03L465.35 162.966C465.974 163.398 467.078 163.926 468.662 164.55C470.246 165.126 472.118 165.414 474.278 165.414C476.822 165.414 478.742 164.862 480.038 163.758C481.334 162.606 482.198 160.83 482.63 158.43C483.062 156.03 483.278 152.91 483.278 149.07V122.286H493.214V148.278C493.214 152.118 492.998 155.622 492.566 158.79C492.134 161.958 491.294 164.694 490.046 166.998C488.826 169.251 486.986 170.999 484.526 172.242C492.115 171.815 495.149 170.837 506.91 172.929V122.286H541.758V130.998H516.846V143.31H538.374V151.374H516.846V164.694H542.406V170.516C549.383 170.755 553.302 170.378 560.288 168.912C559.006 167.912 557.819 166.794 556.726 165.558C554.518 163.014 552.79 160.182 551.542 157.062C550.342 153.894 549.742 150.702 549.742 147.486C549.742 144.366 550.294 141.294 551.398 138.27C552.55 135.246 554.206 132.51 556.366 130.062C558.526 127.614 561.166 125.67 564.286 124.23C567.406 122.742 570.958 121.998 574.942 121.998C579.598 121.998 583.654 123.03 587.11 125.094C590.566 127.158 593.134 129.846 594.814 133.158L587.182 138.414C586.318 136.494 585.19 134.982 583.798 133.878C582.406 132.774 580.894 131.982 579.262 131.502C577.678 131.022 576.142 130.782 574.654 130.782C572.158 130.782 569.974 131.286 568.102 132.294C566.278 133.302 564.742 134.622 563.494 136.254C562.246 137.886 561.31 139.71 560.686 141.726C560.11 143.742 559.822 145.758 559.822 147.774C559.822 150.798 560.446 153.63 561.694 156.27C562.942 158.862 564.694 160.974 566.95 162.606C569.206 164.238 571.822 165.054 574.798 165.054C576.334 165.054 577.918 164.79 579.55 164.262C581.23 163.734 582.766 162.894 584.158 161.742C585.55 160.59 586.63 159.102 587.398 157.278L595.534 161.958C594.833 163.646 593.868 165.165 592.639 166.515C601.004 166.084 609.449 165.663 617.821 166.121V130.998H601.477V122.286H644.029V130.998H627.685V166.833C638.074 167.766 647.12 169.161 656.094 170.675C653.986 169.732 652.031 168.627 650.231 167.358L654.623 158.79C655.055 159.222 655.823 159.798 656.927 160.518C658.031 161.19 659.375 161.886 660.959 162.606C662.543 163.278 664.271 163.854 666.143 164.334C668.015 164.814 669.911 165.054 671.831 165.054C677.303 165.054 680.039 163.302 680.039 159.798C680.039 158.31 679.487 157.11 678.383 156.198C677.279 155.286 675.719 154.518 673.703 153.894C671.735 153.27 669.431 152.574 666.791 151.806C663.527 150.894 660.815 149.886 658.655 148.782C656.543 147.63 654.959 146.214 653.903 144.534C652.847 142.806 652.319 140.622 652.319 137.982C652.319 134.478 653.135 131.55 654.767 129.198C656.447 126.798 658.703 124.998 661.535 123.798C664.367 122.55 667.511 121.926 670.967 121.926C674.519 121.926 677.831 122.502 680.903 123.654C683.975 124.806 686.615 126.126 688.823 127.614L684.431 135.678C683.999 135.198 683.087 134.574 681.695 133.806C680.303 132.99 678.623 132.27 676.655 131.646C674.735 130.974 672.743 130.638 670.679 130.638C665.255 130.638 662.543 132.558 662.543 136.398C662.543 137.79 662.975 138.894 663.839 139.71C664.703 140.526 665.999 141.222 667.727 141.798C669.455 142.374 671.615 142.998 674.207 143.67C677.567 144.534 680.471 145.542 682.919 146.694C685.415 147.846 687.311 149.382 688.607 151.302C689.951 153.174 690.623 155.67 690.623 158.79C690.623 162.438 689.735 165.39 687.959 167.646C684.803 171.679 679.718 173.345 674.786 173.832C682.459 175.06 690.655 176.211 700.049 177.102C733.349 180.363 766.749 179.344 800.049 179.038C833.349 178.631 866.749 179.038 900.049 178.631C933.349 178.324 966.749 177.305 983.349 176.796L1000.05 176.286V200.743H0.0488281V171.192ZM333.333 147.558H321.813V130.998H332.901C334.677 130.998 336.261 131.718 337.653 133.158C339.045 134.598 339.741 136.638 339.741 139.278C339.741 141.774 339.117 143.79 337.869 145.326C336.669 146.814 335.157 147.558 333.333 147.558ZM370.272 156.27H380.208L390.125 172.436L370.272 170.472V156.27ZM382.728 147.558H370.272V130.998H382.296C383.496 130.998 384.6 131.358 385.608 132.078C386.664 132.798 387.528 133.782 388.2 135.03C388.872 136.278 389.208 137.694 389.208 139.278C389.208 141.582 388.584 143.55 387.336 145.182C386.136 146.766 384.6 147.558 382.728 147.558ZM420.25 156.198C419.098 153.606 418.522 150.822 418.522 147.846C418.522 145.062 419.098 142.374 420.25 139.782C421.402 137.142 423.082 134.982 425.29 133.302C427.498 131.622 430.21 130.782 433.426 130.782C436.498 130.782 439.138 131.598 441.346 133.23C443.602 134.814 445.33 136.902 446.53 139.494C447.73 142.086 448.33 144.87 448.33 147.846C448.33 150.63 447.754 153.342 446.602 155.982C445.45 158.622 443.77 160.782 441.562 162.462C439.354 164.142 436.642 164.982 433.426 164.982C430.306 164.982 427.618 164.166 425.362 162.534C423.154 160.902 421.45 158.79 420.25 156.198Z" fill="#333333"/>
</svg>
