<svg width="1001" height="201" viewBox="0 0 1001 201" fill="none" xmlns="http://www.w3.org/2000/svg">
<path d="M0.115652 98.2019L11.3193 89.7705C22.423 81.215 44.8303 64.352 66.9279 65.1084C89.1255 65.9889 111.114 84.6125 133.307 93.0619C155.4 101.635 177.799 99.9101 200.103 89.003C222.407 78.0959 244.816 57.7588 266.924 40.2753C289.131 22.6679 311.138 7.7901 333.334 9.91134C355.431 11.9084 377.819 31.0287 400.116 32.9018C422.413 34.775 444.819 19.401 466.914 24.0039C489.111 28.6067 511.096 52.9381 533.29 59.154C555.385 65.3698 577.789 53.4702 600.096 36.8553C622.403 20.3647 644.813 -0.716906 666.91 0.535722C689.108 1.78841 711.093 25.3753 733.286 34.0728C755.379 42.7703 777.78 36.5783 800.078 36.5902C822.376 36.6021 844.771 42.8181 866.862 55.8584C889.053 68.8986 911.04 88.7631 933.235 93.7383C955.331 98.7133 977.735 88.7988 988.836 83.8416L1000.04 78.8845L999.971 200.482C666.667 200.304 333.363 200.126 0.0598145 199.947L0.115652 98.2019Z" fill="#999999"/>
<path d="M0.105888 94.3417L11.3073 89.6341C22.4088 84.8025 44.8117 75.3875 66.9171 60.0164C89.1225 44.7695 111.13 23.6907 133.325 33.632C155.42 43.5733 177.8 84.5348 200.094 96.5855C222.387 108.512 244.794 91.6524 266.893 87.4484C289.094 83.3688 311.089 92.0692 333.294 78.8075C355.398 65.6699 377.812 30.4463 400.115 22.8924C422.417 15.2145 444.807 35.0823 466.897 53.0888C489.088 71.0952 511.08 87.2404 533.281 83.1608C555.381 78.9568 577.791 54.6522 600.092 47.9669C622.394 41.4056 644.787 52.5879 666.888 48.8804C689.089 45.1729 711.096 26.5757 733.292 31.3057C755.389 36.1597 777.775 64.2168 800.075 62.991C822.374 61.7652 844.786 31.2566 866.883 35.6143C889.08 39.972 911.062 79.196 933.251 99.3119C955.341 119.428 977.74 120.187 988.839 120.691L1000.04 121.071L1000 200.482C666.689 200.258 333.375 200.033 0.0598145 199.81L0.105888 94.3417Z" fill="#888888"/>
<path d="M0.0598145 88.5554C30.2017 126.332 104.217 67.9219 133.318 52.4928C155.422 40.72 177.82 42.7203 200.115 52.0414C222.409 61.3624 244.801 78.0042 266.899 79.0116C289.098 80.0192 311.103 65.6408 333.303 64.1667C355.402 62.6926 377.796 74.3712 400.097 70.0434C422.398 65.7156 444.806 45.3815 466.908 37.3312C489.11 29.2809 511.107 33.5144 533.298 51.8932C555.389 70.2719 577.773 103.045 600.071 107.154C622.368 111.264 644.777 86.9587 666.883 72.208C689.088 57.5816 711.089 52.6331 733.284 62.3263C755.378 72.1435 777.766 96.4782 800.065 97.1136C822.364 97.749 844.773 74.6852 866.877 61.1753C889.082 47.7896 911.083 44.082 933.276 58.3662C955.368 72.6502 977.753 104.926 988.846 121.064L1000.04 137.201L1000.01 200.483C666.694 200.258 333.377 200.034 0.0598648 199.81L0.0598145 88.5554Z" fill="#777777"/>
<path d="M0.113476 76.9694L11.3145 73.0063C22.4154 69.1673 44.8176 61.2413 66.9184 56.1688C89.1192 50.9725 111.119 48.5056 133.316 53.1115C155.412 57.5932 177.805 69.2718 200.099 82.067C222.391 94.8622 244.784 109.022 266.879 119.088C289.072 129.277 311.068 135.496 333.272 123.103C355.376 110.709 377.789 79.7049 400.088 77.8587C422.387 76.0125 444.773 103.325 466.872 103.34C489.071 103.355 511.081 76.0722 533.28 76.3353C555.378 76.4742 577.765 104.283 600.059 114.224C622.353 124.166 644.756 116.24 666.857 109.306C689.059 102.249 711.06 96.0595 733.256 101.658C755.352 107.256 777.744 124.643 800.045 118.206C822.346 111.892 844.757 81.6319 866.861 71.1C889.065 60.5682 911.059 69.7649 933.254 78.5894C955.348 87.5381 977.743 96.2387 988.841 100.589L1000.04 104.939L999.996 200.481C666.683 200.257 333.372 200.033 0.0598145 199.808L0.113476 76.9694Z" fill="#666666"/>
<path d="M0.110223 84.4149L11.3106 81.9408C22.411 79.4666 44.8117 74.5184 66.9104 74.2852C89.1091 74.176 111.105 78.6577 133.303 81.1542C155.4 83.6507 177.799 84.162 200.095 90.1329C222.391 96.1037 244.785 107.782 266.878 119.337C289.071 130.891 311.065 142.57 333.263 143.949C355.361 145.453 377.764 136.782 400.063 135.185C422.362 133.462 444.758 138.937 466.859 133.368C489.061 127.799 511.066 111.188 533.27 99.6629C555.373 88.1384 577.775 81.4532 600.074 81.9644C622.371 82.3517 644.767 89.8115 666.862 97.8916C689.057 105.972 711.052 114.672 733.25 116.176C755.348 117.556 777.749 111.863 800.045 116.221C822.343 120.579 844.734 134.987 866.83 142.943C889.025 150.775 911.023 152.031 933.225 144.601C955.326 137.17 977.732 121.056 988.835 112.998L1000.04 104.94L999.996 200.482C666.684 200.257 333.372 200.033 0.0598145 199.809L0.110223 84.4149Z" fill="#555555"/>
<path d="M0.0804118 152.659L11.2828 145.843C22.3851 139.025 44.7897 125.391 66.8891 123.918C89.0885 122.567 111.083 133.253 133.279 138.231C155.375 143.209 177.775 142.479 200.075 137.904C222.376 133.328 244.177 124.229 266.278 118.412C288.479 112.596 311.081 110.308 333.279 110.696C355.378 111.083 377.775 115.317 400.072 120.419C422.368 125.645 444.764 131.864 466.86 138.704C489.056 145.543 511.051 153.002 533.249 154.01C555.348 155.141 577.748 149.697 600.047 148.72C622.347 147.742 644.744 150.983 666.844 147.896C689.044 144.809 711.047 135.394 733.249 128.584C755.35 121.774 777.751 117.571 800.047 123.666C822.344 129.637 844.734 145.782 866.834 144.928C889.033 144.199 911.04 126.347 933.241 119.413C955.343 112.355 977.74 116.092 988.839 117.961L1000.04 119.83L1000 200.482C666.688 200.257 333.374 200.034 0.0598145 199.809L0.0804118 152.659Z" fill="#444444"/>
<path d="M0.0907104 129.084L11.2885 132.566C22.3863 136.172 44.7821 143.136 66.8783 148.982C89.0745 154.829 111.071 159.311 133.271 158.581C155.37 157.728 177.771 151.539 200.07 150.933C222.369 150.328 244.766 155.306 266.867 151.226C289.066 147.022 311.071 133.884 333.272 129.556C355.373 125.229 377.77 129.711 400.065 137.419C422.36 145.127 444.754 155.813 466.852 159.798C489.048 163.784 511.048 160.82 533.247 160.711C555.346 160.477 577.744 162.975 600.042 163.858C622.341 164.618 644.74 163.888 666.84 160.181C689.041 156.474 711.042 149.787 733.241 150.423C755.339 151.058 777.735 159.014 800.032 162.875C822.328 166.861 844.727 166.876 866.828 162.92C889.029 159.089 911.03 151.163 933.232 143.981C955.334 136.799 977.736 130.114 988.837 126.896L1000.04 123.553L1000 200.483C666.69 200.258 333.375 200.035 0.0598145 199.81L0.0907104 129.084Z" fill="#333333"/>
<path fill-rule="evenodd" clip-rule="evenodd" d="M0.0744498 166.308L11.2732 168.426C11.7826 168.517 12.3159 168.613 12.8718 168.714L12.8864 168.716C24.4454 170.802 45.7926 174.653 66.8687 174.667C83.5826 174.678 100.184 172.298 116.843 169.909C122.31 169.125 127.784 168.34 133.27 167.639C146.593 165.927 160.026 164.622 173.479 163.315C182.342 162.453 191.215 161.591 200.071 160.611C206.928 159.853 213.415 159.302 219.871 158.865V118.816H203.526V110.038H246.082V118.816H229.736V158.273C235.636 157.959 241.651 157.699 248.032 157.423L248.034 157.423C250.633 157.31 253.292 157.195 256.029 157.073V110.038H290.881V118.816H265.966V131.22H287.497V139.344H265.966V152.764H291.529V155.311C296.716 155.047 301.761 154.792 306.69 154.547C304.087 151.841 302.053 148.568 300.666 145.074C299.466 141.883 298.866 138.667 298.866 135.427C298.866 132.284 299.418 129.189 300.522 126.142C301.674 123.095 303.33 120.339 305.491 117.873C307.651 115.406 310.291 113.448 313.411 111.997C316.532 110.498 320.084 109.748 324.069 109.748C328.725 109.748 332.781 110.788 336.238 112.867C339.694 114.947 342.262 117.655 343.943 120.992L336.31 126.287C335.446 124.353 334.318 122.829 332.925 121.717C331.533 120.605 330.021 119.807 328.389 119.323C326.805 118.84 325.269 118.598 323.78 118.598C321.284 118.598 319.1 119.106 317.228 120.121C315.404 121.137 313.867 122.467 312.619 124.111C311.371 125.755 310.435 127.593 309.811 129.624C309.235 131.655 308.947 133.686 308.947 135.717C308.947 138.764 309.571 141.617 310.819 144.277C312.067 146.888 313.819 149.016 316.076 150.66C318.332 152.304 320.948 153.126 323.924 153.126C325.461 153.126 327.045 152.86 328.677 152.328C330.357 151.796 331.893 150.95 333.285 149.789C334.678 148.629 335.758 147.13 336.526 145.292L344.663 150.007C344.242 151.027 343.727 151.986 343.117 152.883C347.083 152.725 351.013 152.579 354.927 152.446V110.038H364.864V130.857H388.051V110.038H397.916V151.566C402.594 151.539 407.34 151.537 412.182 151.56V110.038H420.102L446.529 143.986V110.111H456.466V152.416C459.701 152.521 462.995 152.637 466.354 152.764C469.11 152.867 471.654 153.079 474.04 153.368C472.074 150.979 470.529 148.335 469.406 145.437C468.205 142.294 467.605 139.078 467.605 135.79C467.605 132.356 468.229 129.092 469.478 125.997C470.726 122.854 472.478 120.073 474.734 117.655C476.99 115.189 479.631 113.254 482.655 111.852C485.727 110.401 489.088 109.676 492.736 109.676C496.432 109.676 499.793 110.425 502.817 111.924C505.889 113.424 508.506 115.43 510.666 117.945C512.874 120.46 514.554 123.289 515.706 126.432C516.907 129.527 517.507 132.695 517.507 135.935C517.507 139.32 516.883 142.584 515.634 145.727C514.386 148.822 512.634 151.603 510.378 154.069C508.402 156.233 506.081 157.989 503.413 159.34C510.197 160.315 518.048 160.557 528.73 159.066V110.038H538.667V152.764H564.733V155.301C569.033 154.992 573.337 154.734 577.634 154.533C575.152 151.958 573.252 148.77 571.96 145.437C570.76 142.294 570.16 139.078 570.16 135.79C570.16 132.356 570.784 129.092 572.032 125.997C573.28 122.854 575.032 120.073 577.289 117.655C579.545 115.189 582.185 113.254 585.209 111.852C588.282 110.401 591.642 109.676 595.29 109.676C598.987 109.676 602.347 110.425 605.372 111.924C608.444 113.424 611.06 115.43 613.22 117.945C615.429 120.46 617.109 123.289 618.261 126.432C619.461 129.527 620.061 132.695 620.061 135.935C620.061 139.32 619.437 142.584 618.189 145.727C616.872 148.994 614.934 152.002 612.497 154.534C621.154 155.077 629.816 156.018 638.458 157.096C637.347 156.256 636.3 155.32 635.317 154.287C633.108 151.869 631.38 149.064 630.132 145.872C628.884 142.681 628.26 139.223 628.26 135.499C628.26 131.969 628.884 128.657 630.132 125.562C631.38 122.418 633.132 119.662 635.389 117.292C637.645 114.923 640.285 113.061 643.309 111.707C646.334 110.353 649.622 109.676 653.174 109.676C657.927 109.676 662.031 110.715 665.488 112.795C668.944 114.826 671.536 117.534 673.264 120.919L665.848 126.432C664.552 123.917 662.727 121.983 660.375 120.629C658.071 119.227 655.551 118.525 652.814 118.525C649.934 118.525 647.39 119.323 645.182 120.919C643.021 122.515 641.317 124.619 640.069 127.23C638.869 129.841 638.269 132.695 638.269 135.79C638.269 139.03 638.917 141.955 640.213 144.567C641.509 147.178 643.285 149.258 645.542 150.805C647.846 152.304 650.462 153.054 653.39 153.054C658.335 153.054 662.799 150.708 666.784 146.017V142.391H656.487V135.064H674.993V161.349C679.039 161.438 683.053 161.286 687.062 161.056V110.038H696.999V160.425C701.719 160.139 706.46 159.937 711.266 160.085V110.038H746.118V118.816H721.203V131.22H742.733V139.344H721.203V152.764H746.766V161.541L734.627 161.524C746.136 162.709 756.626 166.198 768.503 162.896C769.643 162.579 770.809 162.255 772.007 161.929C769.453 161.671 766.91 161.155 764.378 160.38C760.633 159.171 757.297 157.527 754.369 155.447L758.761 146.815C759.193 147.251 759.961 147.831 761.065 148.556C762.169 149.233 763.514 149.935 765.098 150.66C766.682 151.337 768.41 151.917 770.282 152.401C772.154 152.884 774.051 153.126 775.971 153.126C781.443 153.126 784.18 151.361 784.18 147.831C784.18 146.332 783.628 145.123 782.524 144.204C781.419 143.285 779.859 142.511 777.843 141.883C775.875 141.254 773.571 140.553 770.93 139.779C767.666 138.86 764.954 137.845 762.793 136.733C760.681 135.572 759.097 134.145 758.041 132.453C756.985 130.712 756.457 128.512 756.457 125.852C756.457 122.322 757.273 119.372 758.905 117.002C760.585 114.584 762.841 112.771 765.674 111.562C768.506 110.304 771.65 109.676 775.107 109.676C778.659 109.676 781.971 110.256 785.044 111.417C788.116 112.577 790.756 113.907 792.965 115.406L788.572 123.531C788.14 123.047 787.228 122.418 785.836 121.645C784.444 120.822 782.764 120.097 780.795 119.468C778.875 118.791 776.883 118.453 774.819 118.453C769.394 118.453 766.682 120.387 766.682 124.256C766.682 125.658 767.114 126.771 767.978 127.593C768.842 128.415 770.138 129.116 771.866 129.696C773.595 130.277 775.755 130.905 778.347 131.582C781.707 132.453 784.612 133.468 787.06 134.629C789.556 135.79 791.453 137.337 792.749 139.271C794.093 141.157 794.765 143.672 794.765 146.815C794.765 150.491 793.877 153.465 792.101 155.738C791.432 156.598 790.677 157.368 789.836 158.048C792.992 157.573 796.381 157.184 800.054 156.92C822.353 155.322 844.752 156.082 866.85 160.316C877.022 162.199 887.151 164.785 897.278 167.371C909.249 170.428 921.216 173.483 933.242 175.374C954.145 178.791 975.319 178.545 986.942 178.41C987.606 178.403 988.239 178.395 988.838 178.389L1000.04 178.149L1000.03 200.482C838.311 200.374 676.594 200.265 514.876 200.157L500.096 200.147C333.417 200.035 166.739 199.923 0.0598145 199.811L0.0744498 166.308ZM364.864 139.562H388.051V151.656C384.843 150.887 382.131 151.316 378.963 151.817C375.338 152.391 371.114 153.06 364.864 152.136V139.562ZM479.415 144.204C478.263 141.593 477.686 138.788 477.686 135.79C477.686 132.985 478.263 130.277 479.415 127.665C480.567 125.006 482.247 122.829 484.455 121.137C486.663 119.444 489.376 118.598 492.592 118.598C495.664 118.598 498.305 119.42 500.513 121.064C502.769 122.66 504.497 124.764 505.697 127.375C506.898 129.986 507.498 132.791 507.498 135.79C507.498 138.594 506.921 141.327 505.769 143.986C504.617 146.646 502.937 148.822 500.729 150.515C498.521 152.207 495.808 153.054 492.592 153.054C489.472 153.054 486.783 152.232 484.527 150.587C482.319 148.943 480.615 146.815 479.415 144.204ZM581.969 144.204C580.817 141.593 580.241 138.788 580.241 135.79C580.241 132.985 580.817 130.277 581.969 127.665C583.121 125.006 584.801 122.829 587.01 121.137C589.218 119.444 591.93 118.598 595.146 118.598C598.219 118.598 600.859 119.42 603.067 121.064C605.324 122.66 607.052 124.764 608.252 127.375C609.452 129.986 610.052 132.791 610.052 135.79C610.052 138.594 609.476 141.327 608.324 143.986C607.172 146.646 605.492 148.822 603.283 150.515C601.075 152.207 598.363 153.054 595.146 153.054C592.026 153.054 589.338 152.232 587.082 150.587C584.873 148.943 583.169 146.815 581.969 144.204ZM422.119 151.641V128.463L440.643 151.97C434.268 151.819 428.11 151.711 422.119 151.641Z" fill="#222222"/>
</svg>
