<svg width="1001" height="201" viewBox="0 0 1001 201" fill="none" xmlns="http://www.w3.org/2000/svg">
<path d="M0.0244141 0.610352L16.7244 6.42431C33.3244 12.2382 66.7244 23.8662 100.024 29.9127C133.324 35.8429 166.724 36.308 200.024 29.0988C233.324 21.8895 266.724 7.23826 300.024 9.33129C333.324 11.4243 366.724 30.4941 400.024 34.9127C433.324 39.3313 466.724 29.3313 500.024 39.7964C533.324 50.2616 566.724 81.1918 600.024 88.9825C633.324 96.7732 666.724 81.1918 700.024 73.0522C733.324 64.9127 766.724 64.215 800.024 66.8895C833.324 69.5639 866.724 75.843 900.024 66.0755C933.324 56.4243 966.724 30.8429 983.324 18.0523L1000.02 5.26151V200.61C666.691 200.61 333.357 200.61 0.0244141 200.61V0.610352Z" fill="#AAAAAA"/>
<path d="M0.0244141 93.6336L16.7244 79.6802C33.3244 65.7266 66.7244 37.8196 100.024 29.6801C133.324 21.5406 166.724 33.1684 200.024 44.5638C233.324 56.0755 266.724 67.2382 300.024 66.0754C333.324 64.9126 366.724 51.4243 400.024 54.3313C433.324 57.2383 466.724 76.5406 500.024 75.6104C533.324 74.6801 566.724 53.2848 600.024 43.9824C633.324 34.6801 666.724 37.4708 700.024 43.6335C733.324 49.7964 766.724 59.5639 800.024 70.6103C833.324 81.6569 866.724 93.9825 900.024 99.0987C933.324 104.099 966.724 101.774 983.324 100.611L1000.02 99.4476V200.61C666.691 200.61 333.357 200.61 0.0244141 200.61V93.6336Z" fill="#999999"/>
<path d="M0.0244141 122.703L16.7244 118.052C33.3244 113.401 66.7244 104.099 100.024 106.424C133.324 108.75 166.724 122.703 200.024 115.727C233.324 108.75 266.724 80.8424 300.024 78.2843C333.324 75.8424 366.724 98.6332 400.024 109.331C433.324 120.029 466.724 118.401 500.024 117.471C533.324 116.54 566.724 116.075 600.024 102.587C633.324 88.9819 666.724 62.2377 700.024 54.447C733.324 46.7726 766.724 57.9354 800.024 72.3541C833.324 86.6564 866.724 104.099 900.024 108.168C933.324 112.238 966.724 102.936 983.324 98.2843L1000.02 93.6331V200.61C666.691 200.61 333.357 200.61 0.0244141 200.61V122.703Z" fill="#888888"/>
<path d="M0.0244141 102.936L16.7244 109.564C33.3244 116.076 66.7244 129.332 100.024 125.262C133.324 121.193 166.724 99.7969 200.024 98.5177C233.324 97.1224 266.724 115.728 300.024 122.123C333.324 128.518 366.724 122.704 400.024 116.309C433.324 109.913 466.724 102.936 500.024 105.261C533.324 107.587 566.724 119.216 600.024 125.611C633.324 132.007 666.724 133.169 700.024 123.053C733.324 113.052 766.724 91.6573 800.024 88.634C833.324 85.4945 866.724 100.61 900.024 104.447C933.324 108.401 966.724 100.959 983.324 97.3549L1000.02 93.634V200.611C666.691 200.611 333.357 200.611 0.0244141 200.611V102.936Z" fill="#777777"/>
<path d="M0.0244141 113.4L16.7244 117.702C33.3244 121.888 66.7244 130.493 100.024 131.656C133.324 132.819 166.724 126.54 200.024 124.679C233.324 122.702 266.724 125.028 300.024 118.4C333.324 111.888 366.724 96.3075 400.024 95.7261C433.324 95.1447 466.724 109.563 500.024 114.214C533.324 118.865 566.724 113.749 600.024 116.54C633.324 119.214 666.724 129.679 700.024 125.958C733.324 122.354 766.724 104.447 800.024 104.447C833.324 104.447 866.724 122.354 900.024 125.261C933.324 128.167 966.724 116.074 983.324 110.144L1000.02 104.098V200.61C666.691 200.61 333.357 200.61 0.0244141 200.61V113.4Z" fill="#666666"/>
<path d="M0.0244141 120.378L16.7244 119.564C33.3244 118.866 66.7244 117.238 100.024 123.866C133.324 130.494 166.724 145.145 200.024 147.703C233.324 150.261 266.724 140.494 300.024 132.006C333.324 123.517 366.724 116.075 400.024 119.564C433.324 123.052 466.724 137.471 500.024 136.657C533.324 135.843 566.724 120.029 600.024 118.866C633.324 117.703 666.724 131.192 700.024 134.331C733.324 137.471 766.724 130.029 800.024 123.866C833.324 117.703 866.724 112.587 900.024 118.866C933.324 125.029 966.724 142.471 983.324 151.192L1000.02 159.913V200.61C666.691 200.61 333.357 200.61 0.0244141 200.61V120.378Z" fill="#555555"/>
<path d="M0.0244141 154.097L16.7244 154.33C33.3244 154.446 66.7244 154.911 100.024 157.353C133.324 159.911 166.724 164.562 200.024 165.957C233.324 167.237 266.724 165.376 300.024 164.911C333.324 164.562 366.724 165.725 400.024 162.237C433.324 158.748 466.724 150.609 500.024 145.957C533.324 141.306 566.724 140.144 600.024 143.981C633.324 147.934 666.724 156.771 700.024 159.911C733.324 163.05 766.724 160.26 800.024 159.33C833.324 158.399 866.724 159.097 900.024 158.516C933.324 157.934 966.724 156.074 983.324 155.027L1000.02 154.097V200.609C666.691 200.609 333.357 200.609 0.0244141 200.609V154.097Z" fill="#444444"/>
<path fill-rule="evenodd" clip-rule="evenodd" d="M0.0244141 154.098L16.7244 153.75C33.3244 153.284 66.7244 152.587 100.024 154.912C133.324 157.238 166.724 162.587 200.024 163.052C233.324 163.401 266.724 158.75 300.024 161.075C308.172 161.644 316.326 162.631 324.483 163.844C323.016 160.513 322.256 156.843 322.256 153.202C322.256 150.066 322.808 146.979 323.912 143.939C325.064 140.9 326.72 138.151 328.88 135.69C331.04 133.23 333.68 131.276 336.8 129.829C339.92 128.334 343.472 127.586 347.456 127.586C352.112 127.586 356.168 128.623 359.624 130.698C363.08 132.772 365.648 135.473 367.328 138.802L359.696 144.084C358.832 142.155 357.704 140.635 356.312 139.525C354.92 138.416 353.408 137.62 351.776 137.138C350.192 136.655 348.656 136.414 347.168 136.414C344.672 136.414 342.488 136.921 340.616 137.934C338.792 138.947 337.256 140.273 336.008 141.913C334.76 143.554 333.824 145.387 333.2 147.413C332.624 149.439 332.336 151.465 332.336 153.491C332.336 156.53 332.96 159.376 334.208 162.03C334.876 163.424 335.689 164.681 336.646 165.799C342.3 166.763 347.954 167.791 353.608 168.819L354.549 168.99C356.96 167.646 358.837 165.61 359.912 163.043L368.048 167.746C367.555 168.941 366.93 170.052 366.174 171.078C372.075 172.114 377.974 173.1 383.871 173.961C383.006 173.229 382.19 172.436 381.423 171.581C379.263 169.073 377.583 166.275 376.383 163.187C375.183 160.052 374.583 156.844 374.583 153.563C374.583 150.138 375.207 146.882 376.455 143.795C377.703 140.659 379.455 137.885 381.711 135.473C383.967 133.013 386.607 131.083 389.631 129.684C392.703 128.237 396.063 127.514 399.711 127.514C403.407 127.514 406.767 128.261 409.791 129.757C412.863 131.252 415.479 133.254 417.639 135.763C419.847 138.271 421.527 141.093 422.679 144.229C423.879 147.316 424.479 150.476 424.479 153.708C424.479 157.085 423.855 160.341 422.607 163.477C421.359 166.564 419.607 169.338 417.351 171.798C415.477 173.845 413.293 175.527 410.797 176.844C419.094 177.375 427.397 177.575 435.701 177.563V127.875H443.621L470.045 161.74V127.948H479.981V176.151C488.732 175.737 497.484 175.342 506.239 175.016V136.631H489.895V127.875H532.447V136.631H516.103V174.675C522.244 174.476 528.388 174.297 534.533 174.105L551.508 127.875H561.588L577.776 172.133C582.263 171.821 586.749 171.462 591.233 171.044C589.155 168.57 587.518 165.831 586.322 162.825C585.122 159.642 584.522 156.434 584.522 153.202C584.522 150.066 585.074 146.979 586.178 143.939C587.33 140.9 588.986 138.151 591.146 135.69C593.306 133.23 595.946 131.276 599.066 129.829C602.186 128.334 605.738 127.586 609.722 127.586C614.378 127.586 618.434 128.623 621.89 130.698C625.346 132.772 627.914 135.473 629.594 138.802L621.962 144.084C621.098 142.155 619.97 140.635 618.578 139.525C617.186 138.416 615.674 137.62 614.042 137.138C612.458 136.655 610.922 136.414 609.434 136.414C606.938 136.414 604.754 136.921 602.882 137.934C601.058 138.947 599.522 140.273 598.274 141.913C597.026 143.554 596.09 145.387 595.466 147.413C594.89 149.439 594.602 151.465 594.602 153.491C594.602 156.53 595.226 159.376 596.474 162.03C597.722 164.634 599.474 166.757 601.73 168.397C602.439 168.913 603.184 169.348 603.965 169.701C608.843 169.131 613.724 168.486 618.606 167.797C620.197 166.55 621.396 164.909 622.178 163.043L628.021 166.42C636.213 165.188 644.407 163.883 652.601 162.646V136.631H636.257V127.875H678.809V136.631H662.465V161.198C674.992 159.423 687.515 157.937 700.024 157.238C733.324 155.261 766.724 158.75 800.024 159.68C833.324 160.726 866.724 159.098 900.024 162.005C933.324 164.912 966.724 172.354 983.324 175.959L1000.02 179.68V200.61H0.0244141V154.098ZM386.391 161.957C385.239 159.352 384.663 156.554 384.663 153.563C384.663 150.765 385.239 148.064 386.391 145.459C387.543 142.806 389.223 140.635 391.431 138.947C393.639 137.258 396.351 136.414 399.567 136.414C402.639 136.414 405.279 137.234 407.487 138.874C409.743 140.466 411.471 142.565 412.671 145.17C413.871 147.775 414.471 150.572 414.471 153.563C414.471 156.361 413.895 159.087 412.743 161.74C411.591 164.393 409.911 166.564 407.703 168.252C405.495 169.941 402.783 170.785 399.567 170.785C396.447 170.785 393.759 169.965 391.503 168.325C389.295 166.685 387.591 164.562 386.391 161.957ZM547.548 166.443H565.404L567.746 172.758C560.123 173.181 552.498 173.496 544.873 173.764L547.548 166.443ZM556.548 138.223L563.604 159.425H549.204L556.548 138.223ZM445.637 177.455V146.255L469.631 176.631C461.634 176.988 453.635 177.298 445.637 177.455Z" fill="#333333"/>
</svg>
