<svg width="1000" height="200" viewBox="0 0 1000 200" fill="none" xmlns="http://www.w3.org/2000/svg">
<path d="M1001.11 0.541992L1.1084 0L1 200L1001 200.542L1001.11 0.541992Z" fill="#333333"/>
<path d="M0.908759 117.729L12.1124 110.935C23.2162 104.041 45.6236 90.4531 67.7232 91.0651C89.9228 91.7771 111.915 106.789 134.111 113.601C156.207 120.513 178.608 119.125 200.913 110.337C223.218 101.549 245.626 85.1615 267.734 71.0735C289.942 56.8856 311.948 44.8975 334.147 46.6095C356.247 48.2215 378.638 63.6336 400.937 65.1457C423.237 66.6578 445.643 54.2699 467.741 57.9819C489.939 61.6939 511.929 81.3059 534.126 86.3179C556.223 91.3299 578.628 81.742 600.936 68.3541C623.243 55.0662 645.652 38.0783 667.751 39.0903C689.951 40.1023 711.941 59.1143 734.137 66.1263C756.233 73.1383 778.636 68.1504 800.936 68.1625C823.236 68.1746 845.633 73.1867 867.727 83.6987C889.922 94.2107 911.913 110.223 934.111 114.235C956.209 118.247 978.613 110.259 989.715 106.265L1000.92 102.271L1000.86 200.271L989.664 200.265C978.564 200.259 956.164 200.247 934.064 200.235C911.864 200.223 889.864 200.211 867.664 200.199C845.564 200.187 823.164 200.175 800.864 200.162C778.564 200.15 756.164 200.138 734.064 200.126C711.864 200.114 689.864 200.102 667.664 200.09C645.564 200.078 623.164 200.066 600.864 200.054C578.564 200.042 556.164 200.03 534.064 200.018C511.864 200.006 489.864 199.994 467.664 199.982C445.564 199.97 423.164 199.958 400.864 199.946C378.564 199.934 356.164 199.921 334.064 199.909C311.864 199.897 289.864 199.886 267.664 199.873C245.564 199.862 223.164 199.849 200.864 199.837C178.564 199.825 156.164 199.813 134.064 199.801C111.864 199.789 89.8643 199.777 67.6643 199.765C45.5643 199.753 23.1643 199.741 12.0643 199.735L0.864316 199.729L0.908759 117.729Z" fill="#888888"/>
<path d="M0.910373 114.729L12.1124 110.935C23.2145 107.041 45.6187 99.4533 67.7254 87.0653C89.932 74.7773 111.941 57.7892 134.137 65.8013C156.233 73.8132 178.615 106.825 200.909 116.537C223.204 126.15 245.612 112.562 267.713 109.174C289.915 105.886 311.911 112.898 334.117 102.21C356.223 91.6216 378.638 63.2338 400.942 57.1459C423.245 50.958 445.636 66.9701 467.728 81.4821C489.921 95.9941 511.914 109.006 534.115 105.718C556.217 102.33 578.628 82.7422 600.931 77.3542C623.234 72.0663 645.629 81.0785 667.73 78.0905C689.932 75.1025 711.94 60.1144 734.138 63.9264C756.236 67.8384 778.624 90.4506 800.924 89.4626C823.225 88.4747 845.638 63.8869 867.736 67.3989C889.934 70.9109 911.917 102.523 934.108 118.735C956.2 134.947 978.599 135.559 989.699 135.965L1000.9 136.271L1000.86 200.271L989.664 200.265C978.564 200.259 956.164 200.247 934.064 200.235C911.864 200.223 889.864 200.211 867.664 200.199C845.564 200.187 823.164 200.175 800.864 200.163C778.564 200.151 756.164 200.138 734.064 200.126C711.864 200.114 689.864 200.102 667.664 200.09C645.564 200.078 623.164 200.066 600.864 200.054C578.564 200.042 556.164 200.03 534.064 200.018C511.864 200.006 489.864 199.994 467.664 199.982C445.564 199.97 423.164 199.958 400.864 199.946C378.564 199.934 356.164 199.922 334.064 199.91C311.864 199.898 289.864 199.886 267.664 199.874C245.564 199.862 223.164 199.85 200.864 199.837C178.564 199.825 156.164 199.813 134.064 199.801C111.864 199.789 89.8643 199.777 67.6643 199.765C45.5643 199.753 23.1643 199.741 12.0643 199.735L0.864304 199.729L0.910373 114.729Z" fill="#777777"/>
<path d="M0.864308 110.065C31.0077 140.511 105.027 93.436 134.129 81.0012C156.234 71.5132 178.633 73.1253 200.929 80.6374C223.225 88.1495 245.618 101.562 267.717 102.374C289.917 103.186 311.923 91.5976 334.124 90.4096C356.224 89.2216 378.619 98.6337 400.921 95.1458C423.223 91.6579 445.632 75.27 467.735 68.782C489.939 62.294 511.937 65.706 534.129 80.518C556.221 95.33 578.607 121.742 600.905 125.054C623.203 128.366 645.614 108.778 667.72 96.8904C689.927 85.1024 711.929 81.1143 734.125 88.9264C756.22 96.8384 778.61 116.45 800.909 116.963C823.209 117.475 845.619 98.8868 867.725 87.9988C889.931 77.2108 911.933 74.2228 934.126 85.7348C956.22 97.2468 978.606 123.259 989.699 136.265L1000.89 149.271L1000.86 200.271L989.664 200.265C978.564 200.259 956.164 200.247 934.064 200.235C911.864 200.223 889.864 200.211 867.664 200.199C845.564 200.187 823.164 200.175 800.864 200.163C778.564 200.15 756.164 200.138 734.064 200.126C711.864 200.114 689.864 200.102 667.664 200.09C645.564 200.078 623.164 200.066 600.864 200.054C578.564 200.042 556.164 200.03 534.064 200.018C511.864 200.006 489.864 199.994 467.664 199.982C445.564 199.97 423.164 199.958 400.864 199.946C378.564 199.934 356.164 199.922 334.064 199.91C311.864 199.898 289.864 199.886 267.664 199.874C245.564 199.862 223.164 199.849 200.864 199.837C178.564 199.825 156.164 199.813 134.064 199.801C111.864 199.789 89.8644 199.777 67.6644 199.765C45.5644 199.753 23.1644 199.741 12.0644 199.735L0.864365 199.729L0.864308 110.065Z" fill="#666666"/>
<path d="M0.91796 100.729L12.1197 97.5349C23.2214 94.441 45.6248 88.0531 67.7271 83.9651C89.9293 79.7771 111.93 77.7891 134.128 81.5011C156.226 85.1131 178.621 94.5252 200.916 104.837C223.21 115.149 245.604 126.562 267.7 134.673C289.895 142.886 311.892 147.897 334.098 137.909C356.203 127.921 378.617 102.934 400.918 101.446C423.218 99.9578 445.607 121.97 467.707 121.982C489.907 121.994 511.918 100.006 534.118 100.218C556.218 100.33 578.606 122.742 600.902 130.754C623.197 138.766 645.601 132.378 667.704 126.79C689.907 121.102 711.91 116.114 734.107 120.626C756.205 125.138 778.597 139.15 800.9 133.962C823.203 128.875 845.616 104.487 867.721 95.9987C889.925 87.5107 911.921 94.9226 934.117 102.035C956.214 109.247 978.61 116.259 989.708 119.765L1000.91 123.271L1000.86 200.271L989.664 200.265C978.564 200.259 956.164 200.247 934.064 200.235C911.864 200.223 889.864 200.211 867.664 200.199C845.564 200.187 823.164 200.175 800.864 200.162C778.564 200.15 756.164 200.138 734.064 200.126C711.864 200.114 689.864 200.102 667.664 200.09C645.564 200.078 623.164 200.066 600.864 200.054C578.564 200.042 556.164 200.03 534.064 200.018C511.864 200.006 489.864 199.994 467.664 199.982C445.564 199.97 423.164 199.958 400.864 199.946C378.564 199.934 356.164 199.921 334.064 199.909C311.864 199.897 289.864 199.886 267.664 199.873C245.564 199.862 223.164 199.849 200.864 199.837C178.564 199.825 156.164 199.813 134.064 199.801C111.864 199.789 89.8643 199.777 67.6643 199.765C45.5643 199.753 23.1643 199.741 12.0643 199.735L0.864303 199.729L0.91796 100.729Z" fill="#555555"/>
<path d="M0.914713 106.729L12.1158 104.735C23.2169 102.741 45.619 98.7531 67.7192 98.5651C89.9192 98.4771 111.917 102.089 134.116 104.101C156.215 106.113 178.615 106.525 200.912 111.337C223.21 116.149 245.605 125.562 267.699 134.874C289.894 144.186 311.889 153.597 334.089 154.709C356.188 155.921 378.592 148.934 400.893 147.646C423.193 146.258 445.591 150.67 467.693 146.182C489.896 141.694 511.903 128.306 534.108 119.018C556.213 109.73 578.616 104.342 600.916 104.754C623.216 105.066 645.612 111.078 667.709 117.59C689.905 124.102 711.902 131.114 734.101 132.326C756.2 133.438 778.603 128.85 800.901 132.363C823.199 135.875 845.593 147.487 867.689 153.899C889.886 160.211 911.885 161.223 934.089 155.235C956.192 149.247 978.599 136.259 989.702 129.765L1000.91 123.271L1000.86 200.271L989.664 200.265C978.564 200.259 956.164 200.247 934.064 200.235C911.864 200.223 889.864 200.211 867.664 200.199C845.564 200.187 823.164 200.175 800.864 200.162C778.564 200.15 756.164 200.138 734.064 200.126C711.864 200.114 689.864 200.102 667.664 200.09C645.564 200.078 623.164 200.066 600.864 200.054C578.564 200.042 556.164 200.03 534.064 200.018C511.864 200.006 489.864 199.994 467.664 199.982C445.564 199.97 423.164 199.958 400.864 199.946C378.564 199.934 356.164 199.921 334.064 199.909C311.864 199.897 289.864 199.886 267.664 199.873C245.564 199.862 223.164 199.849 200.864 199.837C178.564 199.825 156.164 199.813 134.064 199.801C111.864 199.789 89.8643 199.777 67.6643 199.765C45.5643 199.753 23.1643 199.741 12.0643 199.735L0.864308 199.729L0.914713 106.729Z" fill="#444444"/>
<path d="M0.88491 161.729L12.0879 156.235C23.1909 150.741 45.5968 139.753 67.6975 138.565C89.8981 137.477 111.893 146.089 134.091 150.101C156.189 154.113 178.589 153.525 200.891 149.837C223.193 146.149 245.597 139.562 267.7 134.874C289.902 130.186 311.903 127.598 334.103 127.91C356.203 128.222 378.601 131.634 400.899 135.746C423.197 139.958 445.594 144.97 467.691 150.482C489.888 155.994 511.885 162.006 534.084 162.818C556.184 163.73 578.586 159.342 600.887 158.554C623.187 157.766 645.586 160.378 667.687 157.89C689.888 155.402 711.893 147.814 734.096 142.326C756.199 136.838 778.6 133.45 800.898 138.363C823.195 143.175 845.588 156.187 867.688 155.499C889.889 154.911 911.897 140.523 934.1 134.935C956.203 129.247 978.601 132.259 989.7 133.765L1000.9 135.271L1000.86 200.271L989.664 200.265C978.564 200.259 956.164 200.247 934.064 200.235C911.864 200.223 889.864 200.211 867.664 200.199C845.564 200.187 823.164 200.175 800.864 200.163C778.564 200.15 756.164 200.138 734.064 200.126C711.864 200.114 689.864 200.102 667.664 200.09C645.564 200.078 623.164 200.066 600.864 200.054C578.564 200.042 556.164 200.03 534.064 200.018C511.864 200.006 489.864 199.994 467.664 199.982C445.564 199.97 423.164 199.958 400.864 199.946C378.564 199.934 356.164 199.922 334.064 199.91C311.864 199.898 289.864 199.886 267.664 199.874C245.564 199.862 223.164 199.849 200.864 199.837C178.564 199.825 156.164 199.813 134.064 199.801C111.864 199.789 89.8643 199.777 67.6643 199.765C45.5643 199.753 23.1643 199.741 12.0643 199.735L0.864315 199.729L0.88491 161.729Z" fill="#333333"/>
<path d="M0.895209 142.729L12.0937 145.535C23.1921 148.441 45.5891 154.053 67.6865 158.765C89.884 163.477 111.882 167.089 134.082 166.501C156.183 165.813 178.585 160.825 200.886 160.337C223.186 159.849 245.584 163.862 267.686 160.574C289.887 157.186 311.893 146.598 334.095 143.11C356.197 139.622 378.595 143.234 400.892 149.446C423.188 155.658 445.584 164.27 467.682 167.482C489.88 170.694 511.881 168.306 534.081 168.218C556.182 168.03 578.581 170.042 600.88 170.754C623.18 171.366 645.58 170.778 667.682 167.79C689.883 164.802 711.886 159.414 734.086 159.926C756.186 160.438 778.582 166.85 800.881 169.963C823.179 173.175 845.579 173.187 867.681 169.999C889.882 166.911 911.886 160.523 934.089 154.735C956.192 148.947 978.595 143.559 989.696 140.965L1000.9 138.271L1000.86 200.271L989.664 200.265C978.564 200.259 956.164 200.247 934.064 200.235C911.864 200.223 889.864 200.211 867.664 200.199C845.564 200.187 823.164 200.175 800.864 200.163C778.564 200.151 756.164 200.138 734.064 200.126C711.864 200.114 689.864 200.102 667.664 200.09C645.564 200.078 623.164 200.066 600.864 200.054C578.564 200.042 556.164 200.03 534.064 200.018C511.864 200.006 489.864 199.994 467.664 199.982C445.564 199.97 423.164 199.958 400.864 199.946C378.564 199.934 356.164 199.922 334.064 199.91C311.864 199.898 289.864 199.886 267.664 199.874C245.564 199.862 223.164 199.849 200.864 199.837C178.564 199.825 156.164 199.813 134.064 199.801C111.864 199.789 89.8643 199.777 67.6643 199.765C45.5643 199.753 23.1643 199.741 12.0643 199.735L0.864315 199.729L0.895209 142.729Z" fill="#222222"/>
</svg>
