<svg viewBox="0 0 44 43" preserveAspectRatio="none" fill="none" xmlns="http://www.w3.org/2000/svg">
<path d="M4.69108 0.981679C4.37042 1.03391 4.72023 0.915145 5.46844 0.717454C7.08728 0.290045 9.55364 0.230757 10.9099 0.586677C11.9623 0.862911 13.4014 1.53072 15.0882 2.52585C15.6761 2.87262 16.9004 3.55452 17.809 4.04122C18.7175 4.52773 19.2422 4.86782 18.975 4.79691C18.4155 4.64821 16.1194 3.51849 13.7279 2.2151C11.2751 0.878163 10.2307 0.635672 7.51871 0.772931C6.28427 0.83527 5.01174 0.929254 4.69108 0.981679Z" stroke="#DAB55D" stroke-width="0.5"/>
<path d="M22.2788 2.42881C23.1296 1.77854 24.5215 1.10483 25.603 0.819637C26.1796 0.667508 27.2682 0.537302 28.0223 0.530439C30.4198 0.508515 32.0968 1.69848 32.7368 3.87613C32.9927 4.74696 33.0401 6.40227 32.8188 6.74217C32.7402 6.86266 32.6734 6.39083 32.6703 5.69367C32.6633 4.1291 31.9744 2.52546 30.999 1.80295C29.2509 0.508326 26.2754 0.599261 23.3476 2.03667C22.4926 2.45664 22.0116 2.63298 22.2788 2.42881Z" stroke="#DAB55D" stroke-width="0.5"/>
<path d="M37.4798 10.8655C36.9411 10.925 36.7104 10.8979 36.8766 10.7947C37.7604 10.2455 40.6507 10.892 41.848 11.9064C43.6081 13.3975 43.7562 16.7823 42.1923 19.7722C41.4288 21.2322 41.0992 21.4699 41.7961 20.0582C42.9497 17.7206 43.2019 14.8569 42.3979 13.2208C41.701 11.8028 39.319 10.6621 37.4798 10.8655Z" stroke="#DAB55D" stroke-width="0.5"/>
<path d="M40.0879 26.7599C39.3781 25.4128 38.7996 24.2118 38.8021 24.091C38.8044 23.9699 39.0963 24.3857 39.4508 25.0148C39.8051 25.6439 40.7229 27.2738 41.4902 28.6369C42.2576 30 42.9934 31.4583 43.1252 31.8777C43.4763 32.996 43.3976 36.9979 43.0031 38.0735C42.8302 38.5453 42.7367 38.7169 42.7954 38.4547C43.0453 37.3389 43.1125 33.7221 42.9013 32.7558C42.6772 31.7311 42.4382 31.2214 40.0879 26.7599Z" stroke="#DAB55D" stroke-width="0.5"/>
<path fill-rule="evenodd" clip-rule="evenodd" d="M41.6208 0.812011C40.571 1.09435 37.6362 1.4619 36.8542 1.40871C36.3806 1.37649 36.3707 1.40204 36.4615 2.42423C36.5796 3.75774 36.5798 4.91186 36.4618 6.23699L36.3684 7.28549L37.2429 7.20466C38.4352 7.09447 39.8333 7.09199 41.2269 7.19742L42.3929 7.28549L42.5291 5.1473C42.6042 3.97106 42.801 2.56149 42.9664 2.01474C43.4676 0.35963 43.4293 0.325313 41.6208 0.812011ZM41.6117 6.59023C41.8798 6.32735 42.3101 4.35311 42.4261 2.85317L42.5478 1.28041L41.4016 1.30138C40.2004 1.32311 38.9955 1.50555 37.7886 1.84794C37.1275 2.03571 37.0604 2.12074 36.9366 2.93095C36.7948 3.85859 36.944 6.38854 37.1525 6.5931C37.3146 6.75209 41.4494 6.74942 41.6117 6.59023Z" stroke="#DAB55D" stroke-width="0.5"/>
<path fill-rule="evenodd" clip-rule="evenodd" d="M5.69874 2.25742C4.13955 2.42175 2.51428 3.2678 1.82574 4.27342C0.230987 6.60263 0.957638 10.0324 3.28602 11.1673C4.41746 11.7186 5.73877 11.613 6.45103 10.9143C7.30495 10.0766 7.53855 7.84482 6.75672 7.99409C6.54197 8.03508 6.43314 8.26804 6.41837 8.71851C6.37115 10.1639 6.34006 10.2478 5.71137 10.6237C4.90292 11.1072 4.14908 11.1034 3.25667 10.6115C1.84227 9.83165 1.11524 7.95672 1.48507 6.04291C1.71789 4.83942 2.00415 4.31726 2.77898 3.68377C3.77983 2.86537 4.75152 2.56702 6.7363 2.46884C8.24282 2.39449 8.8752 2.45493 10.1372 2.79445C11.8636 3.25885 13.9142 4.21451 15.9628 5.50951C17.7221 6.62169 19.5765 7.60424 20.9184 8.13516C21.9132 8.52883 22.0085 8.623 22.2938 9.4946C22.4926 10.1024 22.5266 10.4293 22.3909 10.4264C22.2757 10.4238 21.4383 10.2066 20.5297 9.94374C18.5372 9.36725 15.4911 9.12724 14.4487 9.46467C13.5957 9.7409 12.8471 10.5658 12.5414 11.5661C12.2464 12.5326 12.4396 13.2088 13.234 13.9881C13.764 14.508 14.0332 14.625 14.6996 14.625C15.3687 14.625 15.6349 14.5082 16.1765 13.9769C16.5399 13.6204 16.8373 13.1966 16.8373 13.0349C16.8373 12.5652 16.3983 12.422 16.1691 12.817C15.3951 14.1515 14.4284 14.3885 13.4946 13.4724C12.9522 12.9404 12.9109 12.8098 12.9989 11.9109C13.0762 11.1204 13.2113 10.8283 13.6952 10.4039C14.9411 9.31216 16.4523 9.27498 20.4815 10.2373C22.6047 10.7444 22.6921 10.7862 23.4862 11.6711C24.3817 12.6689 25.5237 13.2799 26.5057 13.2864C27.0092 13.2898 27.1373 13.2132 27.1373 12.9093C27.1373 12.5909 27.0076 12.528 26.3521 12.528C25.4778 12.528 24.3273 12.0253 23.7377 11.3859L23.3502 10.9656L24.3207 11.1272C24.8544 11.2161 26.4279 11.2854 27.8174 11.2813C30.0205 11.2746 30.4564 11.2197 31.2221 10.8519C32.222 10.3721 33.8014 8.96062 34.2042 8.18721C34.6883 7.25766 34.7872 6.4423 34.4322 6.30867C34.0229 6.15463 33.9323 6.25891 33.8089 7.02699C33.6634 7.93366 33.3114 8.50881 32.3514 9.40939C30.9854 10.691 30.4434 10.8815 27.915 10.9694C26.6563 11.0132 25.1152 10.948 24.386 10.8201L23.0915 10.5932L22.6717 9.63567C22.4407 9.10913 22.2846 8.64607 22.3249 8.60661C22.3649 8.56714 22.7427 8.63178 23.1642 8.74997C24.3825 9.09159 27.4634 9.03783 28.6096 8.65484C29.757 8.27166 30.6865 7.39339 31.0153 6.38206C31.4992 4.89394 30.283 2.67969 28.7784 2.30928C27.8917 2.09081 26.089 2.33997 24.9984 2.83144C23.1341 3.67177 22.1733 4.92102 21.9134 6.84302L21.7929 7.73501L20.8212 7.39663C19.5652 6.95912 18.8666 6.61997 15.5741 4.84933C14.0777 4.04465 12.1974 3.15991 11.3958 2.88329C9.7853 2.32739 7.45906 2.07193 5.69874 2.25742ZM30.4368 5.54726C30.4307 4.76698 29.7809 3.46149 29.2186 3.10024C28.2242 2.46103 26.2064 2.57903 24.6287 3.36846C23.1838 4.09155 22.0844 5.86562 22.0844 7.47422C22.0844 7.85874 22.2238 7.90621 24.0379 8.13993C25.8894 8.37861 27.8307 8.19064 28.9639 7.66314C29.7756 7.2853 30.4428 6.32697 30.4368 5.54726Z" stroke="#DAB55D" stroke-width="0.5"/>
<path fill-rule="evenodd" clip-rule="evenodd" d="M36.0891 9.16899C35.084 9.49022 33.4525 11.0582 32.8302 12.3012C32.3314 13.2978 32.2873 13.5641 32.2873 15.5782C32.2873 16.784 32.3559 18.221 32.4396 18.7714C32.633 20.0407 32.3761 20.0731 31.6028 18.877C31.1918 18.2412 31.0241 17.7442 31.0241 17.1613C31.0241 16.4679 30.9638 16.3408 30.6354 16.3408C30.3256 16.3408 30.2475 16.4664 30.251 16.9603C30.2576 17.9234 30.8802 19.0438 31.8966 19.9213C32.7626 20.6692 32.8557 20.8415 33.2838 22.4877C34.3751 26.6844 34.323 28.3938 33.0666 29.6263C32.5125 30.1698 32.2906 30.2573 31.466 30.2573C30.1075 30.2573 29.4973 29.5495 29.6334 28.1315C29.6501 27.9584 29.9768 27.6355 30.3592 27.4141C30.7417 27.1926 31.0188 26.9053 30.9747 26.7757C30.8143 26.3035 30.2226 26.4301 29.5622 27.0779C28.6137 28.0084 28.6102 29.0144 29.5519 30.0219C30.1715 30.6845 30.2926 30.7331 31.3004 30.7238C32.5139 30.7126 33.1602 30.3587 33.8906 29.306C34.5564 28.3466 34.5027 26.0446 33.7481 23.1982C33.4294 21.9955 33.167 20.9449 33.1651 20.8635C33.1633 20.7822 33.4022 20.8345 33.6962 20.9798C33.9903 21.125 34.4493 21.2953 34.7165 21.358C35.1034 21.4489 35.2931 21.7209 35.6478 22.6938C35.8928 23.3656 36.9318 25.2779 37.9565 26.9433C40.8852 31.7025 41.4706 33.4312 41.2774 36.7525C41.1177 39.503 40.1749 40.8728 38.0673 41.4178C36.2382 41.8908 34.5192 41.4935 33.471 40.3552C32.6318 39.4441 32.4579 38.84 32.7545 37.8687C33.0285 36.9712 33.4568 36.7194 34.7247 36.7096C35.5399 36.7035 35.6882 36.6465 35.6882 36.3394C35.6882 36.0304 35.542 35.9764 34.7068 35.9764C33.3394 35.9764 32.6845 36.3592 32.2816 37.394C31.2409 40.0675 34.2025 42.5754 37.6083 41.9043C40.3156 41.3709 41.5743 39.4956 41.5872 35.9764C41.5977 33.1016 41.1351 31.8648 37.6473 25.4397C37.0911 24.4152 36.4714 23.1069 36.2699 22.5325L35.9035 21.488H36.6578C38.0321 21.488 39.5602 20.6498 40.4301 19.4186C41.5328 17.8577 41.8583 15.2696 41.1044 14.0566C40.5595 13.1798 40.2591 12.9705 39.0219 12.6058C38.0658 12.324 37.9167 12.3244 37.1562 12.6092C35.4089 13.2639 34.6541 14.7627 34.6531 17.5799C34.6527 18.6284 34.7519 19.8247 34.8735 20.2382C34.9952 20.6517 35.0618 21.0223 35.0216 21.0615C34.9814 21.101 34.5093 20.9479 33.9726 20.7214L32.9966 20.3095L32.7673 18.9756C32.6411 18.242 32.5731 16.6843 32.6163 15.5138C32.6851 13.6406 32.7579 13.2719 33.2238 12.4327C33.7236 11.5325 35.1052 9.98149 35.1052 10.3206C35.1052 10.407 35.227 10.3786 35.3759 10.2573C35.5249 10.1359 36.0277 9.97291 36.4933 9.89494C37.1554 9.78418 37.3401 9.6717 37.3401 9.37983C37.3401 8.93679 36.9971 8.87903 36.0891 9.16899ZM41.051 16.499C41.1866 14.9257 40.7919 14.1271 39.5824 13.5289C38.4243 12.956 37.6156 12.9772 36.8606 13.6006C35.7554 14.5128 35.4937 15.3012 35.495 17.7153C35.4956 18.8991 35.5871 20.1894 35.6985 20.5825C35.8827 21.2339 35.961 21.2973 36.5781 21.2973C37.4967 21.2973 38.4107 20.8951 39.3169 20.092C40.3337 19.1908 40.9247 17.9667 41.051 16.499Z" stroke="#DAB55D" stroke-width="0.5"/>
</svg>
