<svg width="60" height="61" viewBox="0 0 60 61" fill="none" xmlns="http://www.w3.org/2000/svg">
<path d="M52.5 0H7.5C3.36328 0 0 3.36328 0 7.5V41.25C0 45.3867 3.36328 48.75 7.5 48.75H18.75V58.5938C18.75 59.7422 20.0625 60.4102 20.9883 59.7305L35.625 48.75H52.5C56.6367 48.75 60 45.3867 60 41.25V7.5C60 3.36328 56.6367 0 52.5 0ZM15 28.125C12.9258 28.125 11.25 26.4492 11.25 24.375C11.25 22.3008 12.9258 20.625 15 20.625C17.0742 20.625 18.75 22.3008 18.75 24.375C18.75 26.4492 17.0742 28.125 15 28.125ZM30 28.125C27.9258 28.125 26.25 26.4492 26.25 24.375C26.25 22.3008 27.9258 20.625 30 20.625C32.0742 20.625 33.75 22.3008 33.75 24.375C33.75 26.4492 32.0742 28.125 30 28.125ZM45 28.125C42.9258 28.125 41.25 26.4492 41.25 24.375C41.25 22.3008 42.9258 20.625 45 20.625C47.0742 20.625 48.75 22.3008 48.75 24.375C48.75 26.4492 47.0742 28.125 45 28.125Z" fill="#EEEEEE"/>
</svg>
