<svg width="60" height="69" viewBox="0 0 60 69" fill="none" xmlns="http://www.w3.org/2000/svg">
<path d="M58.3929 64.2857H55.7143V3.21429C55.7143 1.43906 54.2752 0 52.5 0H7.5C5.72478 0 4.28571 1.43906 4.28571 3.21429V64.2857H1.60714C0.719598 64.2857 0 65.0053 0 65.8929V68.5714H60V65.8929C60 65.0053 59.2804 64.2857 58.3929 64.2857ZM17.1429 10.1786C17.1429 9.29103 17.8625 8.57143 18.75 8.57143H24.1071C24.9947 8.57143 25.7143 9.29103 25.7143 10.1786V15.5357C25.7143 16.4233 24.9947 17.1429 24.1071 17.1429H18.75C17.8625 17.1429 17.1429 16.4233 17.1429 15.5357V10.1786ZM17.1429 23.0357C17.1429 22.1482 17.8625 21.4286 18.75 21.4286H24.1071C24.9947 21.4286 25.7143 22.1482 25.7143 23.0357V28.3929C25.7143 29.2804 24.9947 30 24.1071 30H18.75C17.8625 30 17.1429 29.2804 17.1429 28.3929V23.0357ZM24.1071 42.8571H18.75C17.8625 42.8571 17.1429 42.1375 17.1429 41.25V35.8929C17.1429 35.0053 17.8625 34.2857 18.75 34.2857H24.1071C24.9947 34.2857 25.7143 35.0053 25.7143 35.8929V41.25C25.7143 42.1375 24.9947 42.8571 24.1071 42.8571ZM34.2857 64.2857H25.7143V53.0357C25.7143 52.1482 26.4339 51.4286 27.3214 51.4286H32.6786C33.5661 51.4286 34.2857 52.1482 34.2857 53.0357V64.2857ZM42.8571 41.25C42.8571 42.1375 42.1375 42.8571 41.25 42.8571H35.8929C35.0053 42.8571 34.2857 42.1375 34.2857 41.25V35.8929C34.2857 35.0053 35.0053 34.2857 35.8929 34.2857H41.25C42.1375 34.2857 42.8571 35.0053 42.8571 35.8929V41.25ZM42.8571 28.3929C42.8571 29.2804 42.1375 30 41.25 30H35.8929C35.0053 30 34.2857 29.2804 34.2857 28.3929V23.0357C34.2857 22.1482 35.0053 21.4286 35.8929 21.4286H41.25C42.1375 21.4286 42.8571 22.1482 42.8571 23.0357V28.3929ZM42.8571 15.5357C42.8571 16.4233 42.1375 17.1429 41.25 17.1429H35.8929C35.0053 17.1429 34.2857 16.4233 34.2857 15.5357V10.1786C34.2857 9.29103 35.0053 8.57143 35.8929 8.57143H41.25C42.1375 8.57143 42.8571 9.29103 42.8571 10.1786V15.5357Z" fill="#EEEEEE"/>
</svg>
