<svg width="61" height="69" viewBox="0 0 61 69" fill="none" xmlns="http://www.w3.org/2000/svg">
<path d="M43.727 60.0176V65.3747C43.727 67.1499 42.288 68.589 40.5127 68.589H4.08416C2.30894 68.589 0.869873 67.1499 0.869873 65.3747V16.089C0.869873 14.3138 2.30894 12.8747 4.08416 12.8747H13.727V52.5176C13.727 56.6532 17.0914 60.0176 21.227 60.0176H43.727ZM43.727 13.9461V0.0175781H21.227C19.4518 0.0175781 18.0127 1.45664 18.0127 3.23186V52.5176C18.0127 54.2928 19.4518 55.7319 21.227 55.7319H57.6556C59.4308 55.7319 60.8699 54.2928 60.8699 52.5176V17.1604H46.9413C45.1734 17.1604 43.727 15.714 43.727 13.9461ZM59.9285 9.79048L51.097 0.958962C50.4942 0.356206 49.6766 0.0175826 48.8242 0.0175781L48.0127 0.0175781V12.8747H60.8699V12.0632C60.8699 11.2108 60.5312 10.3933 59.9285 9.79048V9.79048Z" fill="#DEAA74"/>
</svg>
