<svg width="61" height="61" viewBox="0 0 61 61" fill="none" xmlns="http://www.w3.org/2000/svg">
<path d="M51.4949 37.5176H47.7449C47.2476 37.5176 46.7707 37.7151 46.419 38.0668C46.0674 38.4184 45.8699 38.8953 45.8699 39.3926V52.5176H8.36987V15.0176H25.2449C25.7422 15.0176 26.2191 14.82 26.5707 14.4684C26.9223 14.1168 27.1199 13.6399 27.1199 13.1426V9.39258C27.1199 8.8953 26.9223 8.41838 26.5707 8.06675C26.2191 7.71512 25.7422 7.51758 25.2449 7.51758H6.49487C5.00303 7.51758 3.57229 8.11021 2.5174 9.1651C1.46251 10.22 0.869873 11.6507 0.869873 13.1426L0.869873 54.3926C0.869873 55.8844 1.46251 57.3152 2.5174 58.3701C3.57229 59.4249 5.00303 60.0176 6.49487 60.0176H47.7449C49.2367 60.0176 50.6675 59.4249 51.7223 58.3701C52.7772 57.3152 53.3699 55.8844 53.3699 54.3926V39.3926C53.3699 38.8953 53.1723 38.4184 52.8207 38.0668C52.4691 37.7151 51.9922 37.5176 51.4949 37.5176ZM58.0574 0.0175781H43.0574C40.5531 0.0175781 39.3015 3.05391 41.0652 4.82227L45.2523 9.00938L16.6902 37.5609C16.428 37.8222 16.2199 38.1327 16.078 38.4746C15.936 38.8164 15.863 39.183 15.863 39.5531C15.863 39.9233 15.936 40.2898 16.078 40.6317C16.2199 40.9735 16.428 41.284 16.6902 41.5453L19.3468 44.1973C19.6081 44.4595 19.9186 44.6675 20.2605 44.8095C20.6023 44.9514 20.9688 45.0245 21.339 45.0245C21.7092 45.0245 22.0757 44.9514 22.4176 44.8095C22.7594 44.6675 23.0699 44.4595 23.3312 44.1973L51.8792 15.641L56.0652 19.8223C57.823 21.5801 60.8699 20.3496 60.8699 17.8301V2.83008C60.8699 2.08416 60.5736 1.36879 60.0461 0.84134C59.5187 0.313894 58.8033 0.0175781 58.0574 0.0175781V0.0175781Z" fill="#DEAA74"/>
</svg>
