<svg width="60" height="80" viewBox="0 0 60 80" fill="none" xmlns="http://www.w3.org/2000/svg">
<path d="M30 0C13.4223 0 0 13.4397 0 30C0 41.112 3.74859 44.5845 23.6361 76.4725C26.5712 81.1786 33.432 81.173 36.3638 76.4725C56.2617 44.5678 60 41.1098 60 30C60 13.4223 46.5603 0 30 0ZM30 72.5C10.09 40.5759 7.5 38.5606 7.5 30C7.5 17.5736 17.5736 7.5 30 7.5C42.4264 7.5 52.5 17.5736 52.5 30C52.5 38.5239 50.1303 40.2227 30 72.5ZM17.5 30C17.5 23.0964 23.0964 17.5 30 17.5C36.9036 17.5 42.5 23.0964 42.5 30C42.5 36.9036 36.9036 42.5 30 42.5C23.0964 42.5 17.5 36.9036 17.5 30Z" fill="#EEEEEE"/>
</svg>
