<svg width="96" height="81" viewBox="0 0 96 81" fill="none" xmlns="http://www.w3.org/2000/svg">
<path d="M89.6494 0.561523H6.53384C3.09586 0.561523 0.299805 3.3574 0.299805 6.79556V58.7428C0.299805 62.1808 3.09568 64.9768 6.53384 64.9768H7.57309V51.4711H4.45607V6.79649C4.45607 5.65072 5.38731 4.71879 6.53377 4.71879H89.6494C90.7966 4.71879 91.7271 5.65076 91.7271 6.79649V51.4711H70.9482V64.9768H89.6492C93.0871 64.9768 95.8832 62.181 95.8832 58.7428V6.79556C95.8832 3.35833 93.0873 0.561523 89.6492 0.561523H89.6494Z" fill="#EEEEEE"/>
<path d="M65.82 22.3799H27.444C25.6851 22.3799 24.1973 23.8076 24.1973 25.4969V33.8086H28.3527V26.5362H64.7157V72.2498H38.7421V76.4052C38.7421 78.0003 38.129 79.4554 37.1347 80.5606H65.8838C67.5941 80.5606 68.8711 78.6408 68.8711 76.9239V25.4962C68.8704 23.7779 67.5014 22.3799 65.8194 22.3799H65.82ZM46.8797 77.7056C45.9013 77.7056 45.1063 76.8504 45.1063 75.7937C45.1063 74.7378 45.902 73.8819 46.8797 73.8819C47.8595 73.8819 48.6545 74.7378 48.653 75.7937C48.653 76.8503 47.8595 77.7056 46.8797 77.7056Z" fill="#EEEEEE"/>
<path d="M34.5852 36.3945C33.9975 36.0785 33.3228 35.8872 32.5886 35.8872H13.8041C13.0453 35.8872 12.3409 36.0901 11.7271 36.4257C10.4929 37.0996 9.64941 38.3548 9.64941 39.8826V76.407C9.64941 78.6927 11.5184 80.5619 13.8043 80.5619H32.5869C33.6276 80.5619 34.5544 80.1611 35.2676 79.5227C36.1198 78.7603 36.6619 77.6514 36.6619 76.4071V39.8808C36.6619 38.3292 35.8285 37.0602 34.5842 36.3942L34.5852 36.3945ZM24.3915 76.9449C24.1733 77.2558 23.8711 77.487 23.5175 77.6087C23.3479 77.6667 23.1704 77.7073 22.9812 77.7073C22.7747 77.7073 22.5783 77.6616 22.3935 77.5921C21.7057 77.329 21.2078 76.6289 21.2078 75.7955C21.2078 75.2034 21.4637 74.6795 21.8572 74.3287C21.9384 74.257 22.0246 74.1924 22.1166 74.1366C22.3732 73.9808 22.6659 73.8844 22.9812 73.8844C23.0414 73.8844 23.0979 73.8982 23.1559 73.904C23.516 73.9424 23.8414 74.0939 24.1052 74.3287C24.1357 74.3548 24.1668 74.3794 24.1944 74.4077C24.5372 74.757 24.7553 75.2483 24.7546 75.7955C24.7553 76.2282 24.6183 76.6238 24.3915 76.9449H24.3915ZM32.5068 51.4722V71.2121H13.8058V40.0438H32.5068V51.4722Z" fill="#EEEEEE"/>
<path d="M73.0269 74.3275C71.9877 71.2105 70.9492 73.2883 70.9492 73.2883V75.8856V79.5223H80.2994V78.4831C80.2994 77.4445 74.0653 77.4445 73.0269 74.3276V74.3275Z" fill="#EEEEEE"/>
</svg>
