<svg width="85" height="81" viewBox="0 0 85 81" fill="none" xmlns="http://www.w3.org/2000/svg">
<path d="M58.6613 56.7464C61.771 56.4244 64.1302 53.7437 64.0229 50.5263C63.9159 47.3093 61.2348 44.7355 58.0178 44.7355H57.8035C54.4789 44.8428 51.9054 47.6309 52.0127 50.9552C52.12 52.5639 52.7632 53.9579 53.7284 54.9231C50.0824 62.1082 44.5063 67.3628 36.142 71.7596C30.4585 74.7623 24.5607 75.8347 18.663 75.0842C13.8373 74.4407 10.0841 72.2961 7.72458 68.7569C4.29329 63.5023 3.97169 57.8185 6.86709 52.135C8.90467 48.0598 12.1213 45.0571 14.1589 43.5558C13.73 42.1617 13.0865 39.8026 12.7649 38.0869C-2.78423 49.3469 -1.17557 64.5747 3.54278 71.7596C7.08138 77.1218 14.2662 80.4461 22.2016 80.4461C24.3461 80.4461 26.4907 80.2315 28.6356 79.6956C42.3617 77.0145 52.7635 68.8642 58.6613 56.7464V56.7464ZM77.5347 43.4488C69.3848 33.9045 57.3746 28.6499 43.6484 28.6499H41.9328C40.9677 26.7196 38.9301 25.4326 36.6782 25.4326H36.4636C33.1396 25.5399 30.5662 28.3279 30.6731 31.6526C30.7805 34.8696 33.4612 37.4434 36.6782 37.4434H36.8925C39.2517 37.3361 41.2893 35.8347 42.1471 33.7971H44.0774C52.2273 33.7971 59.9481 36.1563 66.9186 40.7677C72.2802 44.3066 76.1407 48.918 78.2852 54.4942C80.1082 58.9982 80.0009 63.395 78.0706 67.1485C75.0682 72.832 70.0283 75.942 63.3797 75.942C59.0902 75.942 55.0154 74.655 52.8705 73.6898C51.6911 74.7623 49.5462 76.4779 48.0449 77.5507C52.6562 79.6952 57.3746 80.875 61.8783 80.875C72.1728 80.875 79.7866 75.1912 82.682 69.5077C85.7917 63.2877 85.5771 52.5639 77.5347 43.4488V43.4488ZM23.0594 58.569C23.1667 61.7863 25.8475 64.3598 29.0645 64.3598H29.2791C32.6034 64.2528 35.1769 61.4644 35.0696 58.1401C34.9626 54.9227 32.2815 52.3493 29.0645 52.3493H28.8502C28.6356 52.3493 28.3136 52.3493 28.0997 52.4563C23.7029 45.1641 21.88 37.2288 22.5235 28.6495C22.9521 22.2152 25.097 16.6387 28.8502 12.0273C31.9599 8.05951 37.965 6.12924 42.0401 6.02226C53.4067 5.80764 58.2321 19.963 58.554 25.6468C59.9481 25.9684 62.3072 26.7193 63.9159 27.2555C62.6288 9.88312 51.9054 0.875 41.6112 0.875C31.9599 0.875 23.0594 7.84555 19.5205 18.1404C14.5878 31.8669 17.8048 45.0571 23.8099 55.4593C23.274 56.2098 22.9521 57.3896 23.0594 58.5693V58.569Z" fill="#764ABC"/>
</svg>
