<svg width="73" height="81" viewBox="0 0 73 81" fill="none" xmlns="http://www.w3.org/2000/svg">
<path d="M72.8539 0.264648H0.985352L7.3267 71.8436L36.9196 80.2647L66.5126 71.8436L72.8539 0.264648Z" fill="#E65100"/>
<path d="M36.9161 6.57227V73.7302L60.5905 66.9933L65.875 6.57227H36.9161Z" fill="#FF6D00"/>
<path d="M36.9161 42.3774V33.9564H55.0947L53.615 58.1669L36.9161 63.6406V54.7985L45.5826 51.8511L46.2168 42.3774H36.9161V42.3774ZM55.7288 25.5353L56.3629 17.1143H36.9161V25.5353H55.7288Z" fill="white"/>
<path d="M36.9019 54.7985V63.6406L20.203 58.1669L19.3575 46.588H27.8126L28.2354 51.8511L36.9019 54.7985ZM26.5444 25.5353H36.9019V17.1143H17.6665L19.1461 42.3774H36.9019V33.9564H27.1785L26.5444 25.5353Z" fill="#EEEEEE"/>
</svg>
