<svg width="70" height="81" viewBox="0 0 70 81" fill="none" xmlns="http://www.w3.org/2000/svg">
<path d="M51.8193 36.1354C51.8193 36.1354 51.1531 30.4459 45.0638 30.4459C38.9745 30.4459 34.804 31.2454 34.804 34.6164C34.804 37.9875 46.6494 37.9875 51.1531 39.32C55.6568 40.6391 59.6274 44.0901 57.6421 50.1794C55.6567 56.2687 49.5675 56.9349 40.1604 56.9349C30.7534 56.9349 28.6348 49.1268 28.6348 46.0755H33.9379C33.9379 46.0755 33.2717 50.8456 39.4942 51.6318C45.7167 52.4179 51.6727 52.8709 52.4722 48.0608C53.5382 41.705 32.339 44.8763 30.4869 38.6537C28.9146 33.3906 29.8206 26.4752 40.4136 25.4092C51.0065 24.3433 56.8293 29.0335 56.8293 36.0022L51.8193 36.1354Z" fill="#66A060"/>
<path d="M0.640625 60.9583L12.3528 67.7138C18.2422 71.1115 25.5973 66.861 25.5973 60.0656V26.408H20.8272V58.7331C20.8272 62.4373 16.8165 64.7691 13.592 62.9037L5.42411 58.1868V23.6898L35.2975 6.44797L65.1709 23.6898V58.1868L35.2975 75.4286L26.6899 70.4586L21.067 72.7238L35.2975 80.9316L69.9411 60.9316V20.9316L35.2975 0.931641L0.653954 20.9316L0.640625 60.9583Z" fill="#66A060"/>
</svg>
