<svg width="110" height="51" viewBox="0 0 110 51" fill="none" xmlns="http://www.w3.org/2000/svg">
<path d="M80.491 16.3057H72.7165C68.7944 15.2813 59.9218 15.5479 59.9218 23.6094C59.9218 26.5479 61.3925 28.6123 63.3536 29.5664C60.8925 31.8125 59.7257 32.8721 59.7257 34.3721C59.7257 35.4463 60.1639 36.4366 61.4798 36.9903C60.0806 38.2999 59.2834 39.251 59.2834 41.0381C59.2834 44.1739 62.0338 46.001 69.2484 46.001C76.1855 46.001 80.2096 43.421 80.2096 38.8545C80.2096 33.126 75.7816 33.337 65.342 32.7022L66.6589 30.5977C69.3327 31.3379 78.2976 31.5743 78.2976 23.9678C78.2976 22.1416 77.5396 20.8711 76.8268 19.9571L80.4949 19.6797L80.491 16.3057ZM74.2726 39.9288C74.2726 43.0596 63.988 43.0635 63.988 40.1661C63.988 39.3711 64.5047 38.7012 65.0244 38.0625C72.6439 38.5801 74.2726 38.3917 74.2726 39.9288ZM69.2906 26.7862C64.1135 26.7862 64.3429 19.8369 69.4082 19.8369C74.2657 19.8369 74.3912 26.7862 69.2906 26.7862ZM82.3608 36.6016V33.4668C84.9837 33.1094 85.0317 33.2715 85.0317 32.3926V20.7217C85.0317 19.8916 84.8307 20.001 82.3608 19.1338L82.7991 15.919H91.0521V32.3946C91.0521 33.0303 91.0913 33.1094 91.6904 33.1895L93.723 33.4668V36.6016H82.3608ZM87.5036 12.7432C85.2318 12.7432 83.9159 11.4316 83.9159 9.16797C83.9159 6.9043 85.2318 5.6748 87.5036 5.6748C89.8157 5.6748 91.1315 6.90723 91.1315 9.16797C91.1315 11.4287 89.8157 12.7432 87.5036 12.7432ZM109.486 35.0625C107.771 35.8956 105.26 36.6504 102.987 36.6504C98.2432 36.6504 96.4498 34.7461 96.4498 30.2579V19.8565C96.4498 19.3272 96.5528 19.46 93.3406 19.46V15.9258C96.8489 15.5283 98.2432 13.7774 98.6815 9.45411H102.469C102.469 15.8828 102.338 15.4902 102.789 15.4902H108.407V19.46H102.469V28.9473C102.469 29.6231 101.987 33.9678 108.408 31.5684L109.486 35.0625Z" fill="#654333"/>
<path d="M50.0478 23.3369L28.5136 1.88955C27.8531 1.23165 26.9283 0.836914 26.0035 0.836914C25.0787 0.836914 24.154 1.23165 23.4934 1.88955L18.8695 6.49481L24.2861 11.8895C24.8145 11.6264 25.343 11.4948 26.0035 11.4948C28.2494 11.4948 29.9669 13.2053 29.9669 15.4422C29.9669 16.1001 29.8348 16.6264 29.5705 17.1527L34.855 22.4159C35.3834 22.1527 35.9119 22.0211 36.5724 22.0211C38.8183 22.0211 40.5358 23.7317 40.5358 25.9685C40.5358 28.2053 38.8183 29.9159 36.5724 29.9159C34.3265 29.9159 32.6091 28.2053 32.6091 25.9685C32.6091 25.3106 32.7412 24.7843 33.0054 24.258L27.721 18.9948C27.5889 18.9948 27.4567 19.1264 27.3246 19.1264V32.8106C28.91 33.3369 29.9669 34.7843 29.9669 36.4948C29.9669 38.7316 28.2494 40.4422 26.0035 40.4422C23.7576 40.4422 22.0402 38.7316 22.0402 36.4948C22.0402 34.7843 23.0971 33.3369 24.6824 32.8106V18.9948C23.0971 18.4685 22.0402 17.0211 22.0402 15.3106C22.0402 14.6527 22.1723 14.1264 22.4365 13.6001L17.0199 8.20534L1.95924 23.3369C1.29868 23.9948 0.902344 24.9159 0.902344 25.8369C0.902344 26.758 1.29868 27.679 1.95924 28.3369L23.4934 49.7843C24.154 50.4422 25.0787 50.8369 26.0035 50.8369C26.9283 50.8369 27.8531 50.4422 28.5136 49.7843L50.0478 28.3369C50.7084 27.679 51.1047 26.758 51.1047 25.8369C51.1047 24.9159 50.7084 23.9948 50.0478 23.3369Z" fill="#F4511E"/>
</svg>
