<svg width="66" height="81" viewBox="0 0 66 81" fill="none" xmlns="http://www.w3.org/2000/svg">
<path d="M17.1249 73.9708C17.6413 74.1594 18.1858 74.2558 18.7352 74.2566C20.1092 74.2566 22.4147 73.7253 22.4147 70.1668V63.9907C22.4139 63.5014 22.0177 63.1052 21.5284 63.1052H20.3373C19.848 63.1052 19.4518 63.5014 19.4518 63.9907V70.0704C19.4518 71.4724 19.1108 71.4724 18.6388 71.4724V71.4715C18.4073 71.4732 18.1775 71.4328 17.9609 71.3538C17.7146 71.2582 17.4387 71.2772 17.2081 71.4057C16.9774 71.535 16.816 71.7599 16.7682 72.0193L16.5903 72.9913C16.5145 73.4031 16.7377 73.8118 17.1249 73.9708Z" fill="#EEEEEE"/>
<path d="M42.4711 74.1817H43.5939C44.0831 74.1817 44.4793 73.7855 44.4802 73.2962V69.3523C44.4802 69.2419 44.4802 69.1332 44.4793 69.0261C44.4909 69.0442 44.5032 69.0632 44.5148 69.0821L47.4448 73.7657V73.7665C47.6071 74.0244 47.8904 74.1817 48.1952 74.1817H49.4003C49.8895 74.1817 50.2857 73.7855 50.2866 73.2962V64.0665C50.2857 63.5772 49.8895 63.181 49.4003 63.181H48.2775C47.7891 63.181 47.3921 63.5772 47.3921 64.0665V68.1257L44.5207 63.5929C44.3584 63.3367 44.0759 63.181 43.7727 63.181H42.4713C41.9828 63.181 41.5858 63.5772 41.5858 64.0665V73.2962C41.5858 73.7855 41.9827 74.1817 42.4711 74.1817Z" fill="#EEEEEE"/>
<path d="M35.8923 74.3313C38.4664 74.3313 41.0643 72.5546 41.0643 68.5843C41.0643 65.3133 38.9935 63.0283 36.0298 63.0283C32.9847 63.0283 30.8578 65.3858 30.8578 68.762C30.857 72.0413 32.9278 74.3313 35.8923 74.3313ZM35.9747 65.7721C37.6032 65.7721 38.0331 67.6469 38.0331 68.6387C38.0331 70.1065 37.3923 71.5875 35.9607 71.5875C34.5464 71.5875 33.9023 70.1089 33.9023 68.7342C33.9023 67.3685 34.4451 65.7721 35.9747 65.7721Z" fill="#EEEEEE"/>
<path d="M23.4782 73.5891C24.3439 74.0841 25.3266 74.3386 26.3249 74.3263C29.1699 74.3263 30.4425 72.5471 30.4425 70.7843C30.4425 68.6493 28.8808 67.7721 27.5201 67.2466C26.2516 66.7556 26.2516 66.5209 26.2516 66.2927C26.2516 65.9814 26.5704 65.7952 27.105 65.7952C27.5687 65.7936 28.0251 65.9064 28.4336 66.1247C28.6634 66.2499 28.9369 66.268 29.1807 66.1725C29.4245 66.0777 29.6132 65.8792 29.6972 65.6313L30.0258 64.6593C30.1617 64.2565 29.9937 63.8142 29.6239 63.605C28.8587 63.2104 28.0069 63.016 27.147 63.0374C24.904 63.0374 23.2757 64.4641 23.2757 66.4286C23.2757 68.006 24.2938 69.1665 26.2814 69.8717C27.4527 70.3223 27.4527 70.6048 27.4527 70.8799C27.4527 71.4499 26.8844 71.5693 26.4074 71.5693V71.5685C25.8177 71.5627 25.2411 71.4005 24.7353 71.0982C24.5014 70.954 24.2131 70.9268 23.9561 71.0249C23.6991 71.1221 23.5022 71.3337 23.4232 71.5973L23.1225 72.5965H23.1217C23.0096 72.9696 23.1536 73.3724 23.4782 73.5891Z" fill="#EEEEEE"/>
<path fill-rule="evenodd" clip-rule="evenodd" d="M0.993164 79.5217C0.993164 80.3156 1.63545 80.959 2.42838 80.959H64.4337C65.2267 80.959 65.869 80.3157 65.869 79.5217V57.4957C65.869 57.0986 65.7084 56.7393 65.4486 56.4792L65.4472 56.4778C65.1876 56.2186 64.8295 56.0583 64.4337 56.0583H61.6814H58.8099H8.05067H5.18069H2.42838C2.03267 56.0583 1.67448 56.2186 1.41491 56.4778L1.41349 56.4792C1.15376 56.7393 0.993164 57.0986 0.993164 57.4957V79.5217ZM3.86362 58.9336V78.0844H62.998V58.9336H3.86362Z" fill="#EEEEEE"/>
<path d="M2.42838 56.0583H5.18069L5.18069 52.712L1.41491 56.4778C1.67448 56.2186 2.03267 56.0583 2.42838 56.0583Z" fill="#EEEEEE"/>
<path d="M64.4337 56.0583C64.8295 56.0583 65.1876 56.2186 65.4472 56.4778L61.6813 52.7119L61.6814 56.0583H64.4337Z" fill="#EEEEEE"/>
<path fill-rule="evenodd" clip-rule="evenodd" d="M44.5478 3.83178V16.6746C44.5478 17.4681 45.1906 18.1114 45.983 18.1114H58.8094L58.8099 56.0583H61.6814L61.6813 52.7119L61.6809 16.6753C61.6809 16.6588 61.6788 16.6429 61.6783 16.6264C61.6778 16.6105 61.6768 16.5946 61.6758 16.5781C61.6716 16.5169 61.6649 16.4562 61.6531 16.3961V16.3945C61.6408 16.3338 61.6238 16.2742 61.6038 16.2156C61.5986 16.2006 61.5935 16.1857 61.5878 16.1708C61.5672 16.1158 61.5441 16.0623 61.5174 16.0098C61.5153 16.0068 61.5143 16.0032 61.5122 15.9996C61.4834 15.9451 61.4495 15.8931 61.4135 15.8427C61.4042 15.8293 61.3945 15.816 61.3847 15.8031C61.3466 15.7538 61.307 15.7059 61.2628 15.6617L61.2602 15.6586L46.9989 1.38015C46.9536 1.33438 46.9043 1.29376 46.8539 1.25519C46.8415 1.24542 46.8287 1.23616 46.8153 1.22691C46.7649 1.1904 46.713 1.15697 46.6579 1.12766C46.6548 1.1256 46.6518 1.12457 46.6482 1.12303C46.5962 1.09577 46.5422 1.07263 46.4872 1.05206C46.4723 1.04641 46.4579 1.04126 46.443 1.03612C46.3262 0.996524 46.2044 0.971841 46.0794 0.963613C46.064 0.962584 46.0485 0.96207 46.0331 0.961556C46.0167 0.961041 46.0002 0.958984 45.9838 0.958984H6.61594C5.82349 0.958984 5.18072 1.60231 5.18072 2.39631L5.18069 52.712L5.18069 56.0583H8.05067L8.05015 3.83165L44.5478 3.83178ZM56.7797 15.2373L47.4184 5.86415V15.2373H56.7797Z" fill="#EEEEEE"/>
<path d="M46.7542 23.7209L45.3019 23.7207C45.1839 23.7207 45.0707 23.7676 44.9873 23.851C44.9038 23.9345 44.8569 24.0477 44.8569 24.1657V25.0556C44.8569 25.1736 44.9038 25.2868 44.9873 25.3703C45.0707 25.4537 45.1839 25.5006 45.3019 25.5006L46.7542 25.5008C46.9902 25.5008 47.2166 25.5945 47.3834 25.7614C47.5503 25.9283 47.6441 26.1547 47.6441 26.3907V31.1453C47.6441 31.7298 47.7592 32.3085 47.9829 32.8485C48.2066 33.3885 48.5345 33.8791 48.9479 34.2924L50.8357 36.1802L48.9479 38.068C48.5345 38.4812 48.2066 38.9718 47.9829 39.5118C47.7592 40.0518 47.6441 40.6306 47.6441 41.2151V45.9696C47.6441 46.2056 47.5503 46.432 47.3834 46.5989C47.2166 46.7658 46.9902 46.8596 46.7542 46.8596L45.3019 46.8594C45.1839 46.8594 45.0707 46.9063 44.9873 46.9897C44.9038 47.0732 44.8569 47.1864 44.8569 47.3044V48.1943C44.8569 48.3123 44.9038 48.4255 44.9873 48.509C45.0707 48.5924 45.1839 48.6393 45.3019 48.6393L46.7542 48.6395C47.4622 48.6395 48.1413 48.3582 48.642 47.8575C49.1427 47.3568 49.424 46.6777 49.424 45.9696V41.2145C49.424 40.8638 49.493 40.5165 49.6272 40.1925C49.7614 39.8685 49.9581 39.5741 50.2061 39.3261L52.7229 36.8092C52.8897 36.6424 52.9834 36.4161 52.9834 36.1802C52.9834 35.9442 52.8897 35.718 52.7229 35.5511L50.2061 33.0342C49.9581 32.7862 49.7614 32.4918 49.6272 32.1678C49.493 31.8438 49.424 31.4965 49.424 31.1458V26.3907C49.424 25.6826 49.1427 25.0035 48.642 24.5028C48.1413 24.0021 47.4622 23.7209 46.7542 23.7209Z" fill="#EEEEEE"/>
<path d="M28.9089 36.1803C28.9089 37.496 27.8414 38.5635 26.5257 38.5635C25.21 38.5635 24.1426 37.496 24.1426 36.1803C24.1426 34.8646 25.21 33.7972 26.5257 33.7972C27.8414 33.7972 28.9089 34.8646 28.9089 36.1803Z" fill="#EEEEEE"/>
<path d="M35.8141 36.1803C35.8141 37.496 34.7467 38.5635 33.431 38.5635C32.1153 38.5635 31.0479 37.496 31.0479 36.1803C31.0479 34.8646 32.1153 33.7972 33.431 33.7972C34.7467 33.7972 35.8141 34.8646 35.8141 36.1803Z" fill="#EEEEEE"/>
<path d="M42.7184 36.1803C42.7184 37.496 41.651 38.5635 40.3353 38.5635C39.0196 38.5635 37.9521 37.496 37.9521 36.1803C37.9521 34.8646 39.0196 33.7972 40.3353 33.7972C41.651 33.7972 42.7184 34.8646 42.7184 36.1803Z" fill="#EEEEEE"/>
<path d="M20.1072 23.7209L21.5594 23.7207C21.6774 23.7207 21.7906 23.7676 21.8741 23.851C21.9575 23.9345 22.0044 24.0477 22.0044 24.1657V25.0556C22.0044 25.1736 21.9575 25.2868 21.8741 25.3703C21.7906 25.4537 21.6774 25.5006 21.5594 25.5006L20.1072 25.5008C19.8711 25.5008 19.6448 25.5945 19.4779 25.7614C19.311 25.9283 19.2172 26.1547 19.2172 26.3907V31.1453C19.2172 31.7298 19.1021 32.3085 18.8784 32.8485C18.6547 33.3885 18.3268 33.8791 17.9134 34.2924L16.0256 36.1802L17.9134 38.068C18.3268 38.4812 18.6547 38.9718 18.8784 39.5118C19.1021 40.0518 19.2172 40.6306 19.2172 41.2151V45.9696C19.2172 46.2056 19.311 46.432 19.4779 46.5989C19.6448 46.7658 19.8711 46.8596 20.1072 46.8596L21.5594 46.8594C21.6774 46.8594 21.7906 46.9063 21.8741 46.9897C21.9575 47.0732 22.0044 47.1864 22.0044 47.3044V48.1943C22.0044 48.3123 21.9575 48.4255 21.8741 48.509C21.7906 48.5924 21.6774 48.6393 21.5594 48.6393L20.1072 48.6395C19.3991 48.6395 18.72 48.3582 18.2193 47.8575C17.7186 47.3568 17.4373 46.6777 17.4373 45.9696V41.2145C17.4374 40.8638 17.3683 40.5165 17.2342 40.1925C17.1 39.8685 16.9033 39.5741 16.6553 39.3261L14.1384 36.8092C13.9716 36.6424 13.8779 36.4161 13.8779 36.1802C13.8779 35.9442 13.9716 35.718 14.1384 35.5511L16.6553 33.0342C16.9033 32.7862 17.1 32.4918 17.2342 32.1678C17.3683 31.8438 17.4374 31.4965 17.4373 31.1458V26.3907C17.4373 25.6826 17.7186 25.0035 18.2193 24.5028C18.72 24.0021 19.3991 23.7209 20.1072 23.7209Z" fill="#EEEEEE"/>
</svg>
