<svg width="83" height="81" viewBox="0 0 83 81" fill="none" xmlns="http://www.w3.org/2000/svg">
<path d="M7.03111 10.6862C7.03111 11.7601 7.90159 12.6306 8.97544 12.6306C10.0493 12.6306 10.9198 11.7601 10.9198 10.6862C10.9198 9.61237 10.0493 8.74187 8.97544 8.74187C7.90159 8.74187 7.03111 9.61237 7.03111 10.6862Z" fill="#EEEEEE"/>
<path d="M12.216 10.6862C12.216 11.7601 13.0866 12.6306 14.1604 12.6306C15.2343 12.6306 16.1048 11.7601 16.1048 10.6862C16.1048 9.61237 15.2343 8.74187 14.1604 8.74187C13.0866 8.74187 12.216 9.61237 12.216 10.6862Z" fill="#EEEEEE"/>
<path d="M7.03111 27.8596C7.03111 28.9334 7.90159 29.8039 8.97544 29.8039C10.0493 29.8039 10.9198 28.9334 10.9198 27.8596C10.9198 26.7857 10.0493 25.9152 8.97544 25.9152C7.90159 25.9152 7.03111 26.7857 7.03111 27.8596Z" fill="#EEEEEE"/>
<path d="M12.216 27.8596C12.216 28.9334 13.0866 29.8039 14.1604 29.8039C15.2343 29.8039 16.1048 28.9334 16.1048 27.8596C16.1048 26.7857 15.2343 25.9152 14.1604 25.9152C13.0866 25.9152 12.216 26.7857 12.216 27.8596Z" fill="#EEEEEE"/>
<path d="M7.03111 45.0329C7.03111 46.1067 7.90159 46.9772 8.97544 46.9772C10.0493 46.9772 10.9198 46.1067 10.9198 45.0329C10.9198 43.959 10.0493 43.0885 8.97544 43.0885C7.90159 43.0885 7.03111 43.959 7.03111 45.0329Z" fill="#EEEEEE"/>
<path d="M12.216 45.0329C12.216 46.1067 13.0866 46.9772 14.1604 46.9772C15.2343 46.9772 16.1048 46.1067 16.1048 45.0329C16.1048 43.959 15.2343 43.0885 14.1604 43.0885C13.0866 43.0885 12.216 43.959 12.216 45.0329Z" fill="#EEEEEE"/>
<path fill-rule="evenodd" clip-rule="evenodd" d="M8.97544 12.6306C7.90159 12.6306 7.03111 11.7601 7.03111 10.6862C7.03111 9.61237 7.90159 8.74187 8.97544 8.74187C10.0493 8.74187 10.9198 9.61237 10.9198 10.6862C10.9198 11.7601 10.0493 12.6306 8.97544 12.6306ZM14.1604 12.6306C13.0866 12.6306 12.216 11.7601 12.216 10.6862C12.216 9.61237 13.0866 8.74187 14.1604 8.74187C15.2343 8.74187 16.1048 9.61237 16.1048 10.6862C16.1048 11.7601 15.2343 12.6306 14.1604 12.6306Z" fill="#EEEEEE"/>
<path fill-rule="evenodd" clip-rule="evenodd" d="M0.929871 15.4566C0.929871 16.923 1.35231 18.26 2.04615 19.2729C1.35231 20.2858 0.929871 21.6228 0.929871 23.0892V32.6299C0.929871 34.0963 1.35231 35.4334 2.04615 36.4462C1.35231 37.4591 0.929871 38.7961 0.929871 40.2625V49.8033C0.929871 52.9648 2.89103 55.5277 5.31032 55.5277H19.7457V51.7114H5.31032C4.50523 51.7114 3.85017 50.8554 3.85017 49.8033V40.2625C3.85017 39.2104 4.50523 38.3544 5.31032 38.3544H19.7457V34.5381H5.31032C4.50523 34.5381 3.85017 33.682 3.85017 32.6299V23.0892C3.85017 22.0371 4.50523 21.181 5.31032 21.181H43.2741C44.0792 21.181 44.7342 22.0371 44.7342 23.0892V24.5022H47.6545V23.0892C47.6545 21.6228 47.2321 20.2858 46.5382 19.2729C47.2321 18.26 47.6545 16.923 47.6545 15.4566V5.91585C47.6545 2.75429 45.6934 0.191406 43.2741 0.191406H5.31032C2.89103 0.191406 0.929871 2.75429 0.929871 5.91585V15.4566ZM43.2741 17.3647C44.0792 17.3647 44.7342 16.5087 44.7342 15.4566V5.91585C44.7342 4.86375 44.0792 4.0077 43.2741 4.0077H5.31032C4.50523 4.0077 3.85017 4.86375 3.85017 5.91585V15.4566C3.85017 16.5087 4.50523 17.3647 5.31032 17.3647H43.2741Z" fill="#EEEEEE"/>
<path d="M77.7729 25.9152H26.889C24.0798 25.9152 21.8006 28.1944 21.8006 31.0036V61.534C21.8006 64.3432 24.0798 66.6224 26.889 66.6224H47.2426L44.6984 76.7991H37.0658C36.1329 76.7991 35.3696 77.5624 35.3696 78.4953C35.3696 79.4281 36.1329 80.1914 37.0658 80.1914H67.5961C68.529 80.1914 69.2923 79.4281 69.2923 78.4953C69.2923 77.5624 68.529 76.7991 67.5961 76.7991H59.9635L57.4193 66.6224H77.7729C80.5822 66.6224 82.8613 64.3432 82.8613 61.534V31.0036C82.8613 28.1944 80.5822 25.9152 77.7729 25.9152ZM48.1966 76.7991L49.8928 70.0146H54.7691L56.4653 76.7991H48.1966ZM79.4691 61.534C79.4691 62.4668 78.7058 63.2301 77.7729 63.2301H26.889C25.9561 63.2301 25.1928 62.4668 25.1928 61.534V31.0036C25.1928 30.0707 25.9561 29.3075 26.889 29.3075H77.7729C78.7058 29.3075 79.4691 30.0707 79.4691 31.0036V61.534Z" fill="#EEEEEE"/>
</svg>
