<svg width="72" height="81" viewBox="0 0 72 81" fill="none" xmlns="http://www.w3.org/2000/svg">
<path d="M71.8735 0.754883H0.00488281L6.34623 72.3338L35.9392 80.7549L65.5321 72.3338L71.8735 0.754883Z" fill="#0277BD"/>
<path d="M35.9395 7.06934V74.2272L59.6138 67.4904L64.8982 7.06934H35.9395Z" fill="#039BE5"/>
<path d="M55.1748 17.5977H35.9395V26.0187H46.2969L45.6628 34.4398H35.9395V42.8608H45.2401L44.6059 52.3345L35.9395 55.2819V64.124L52.6383 58.6503L54.1179 34.4398L55.1748 17.5977Z" fill="white"/>
<path d="M35.9399 17.5977V26.0187H17.1273L16.4932 17.5977H35.9399ZM26.2165 34.4398L26.6393 42.8608H35.9399V34.4398H26.2165ZM27.0621 47.0713H18.6069L19.2411 58.6503L35.9399 64.124V55.2819L27.2734 52.3345L27.0621 47.0713Z" fill="#EEEEEE"/>
</svg>
