<svg width="175" height="41" viewBox="0 0 175 41" fill="none" xmlns="http://www.w3.org/2000/svg">
<path d="M20.7156 0.561523C9.24348 0.561523 0.467773 9.27107 0.467773 20.7432C0.467773 29.9159 6.24105 37.7653 14.4874 40.5278C15.5461 40.7181 15.9183 40.0646 15.9183 39.527C15.9183 39.0142 15.8935 36.1855 15.8935 34.4485C15.8935 34.4485 10.1037 35.6892 8.88782 31.9837C8.88782 31.9837 7.9449 29.5768 6.58843 28.9565C6.58843 28.9565 4.69434 27.6579 6.72077 27.6827C6.72077 27.6827 8.78029 27.8481 9.91344 29.8167C11.7248 33.0093 14.7603 32.0912 15.9431 31.5453C16.1334 30.2219 16.671 29.3038 17.2665 28.7579C12.6429 28.2451 7.97799 27.5752 7.97799 19.6183C7.97799 17.3437 8.6066 16.2023 9.92998 14.7466C9.71493 14.209 9.01188 11.9923 10.145 9.13046C11.8737 8.59283 15.8521 11.3637 15.8521 11.3637C17.5064 10.9005 19.2847 10.6606 21.0464 10.6606C22.8082 10.6606 24.5865 10.9005 26.2407 11.3637C26.2407 11.3637 30.2191 8.58456 31.9478 9.13046C33.081 12.0006 32.3779 14.209 32.1629 14.7466C33.4863 16.2106 34.2968 17.352 34.2968 19.6183C34.2968 27.6 29.4251 28.2369 24.8015 28.7579C25.5625 29.4114 26.2076 30.652 26.2076 32.5958C26.2076 35.3832 26.1828 38.8322 26.1828 39.5105C26.1828 40.0481 26.5633 40.7015 27.6137 40.5113C35.8849 37.7653 41.4927 29.9159 41.4927 20.7432C41.4927 9.27107 32.1877 0.561523 20.7156 0.561523Z" fill="#EEEEEE"/>
<path d="M75.3534 18.239H65.01C64.743 18.239 64.5266 18.449 64.5266 18.7078V23.6085C64.5266 23.8669 64.743 24.0776 65.01 24.0776H69.0448V30.1661C69.0448 30.1661 68.1388 30.4653 65.6343 30.4653C62.6791 30.4653 58.551 29.419 58.551 20.6218C58.551 11.8228 62.8493 10.6652 66.8852 10.6652C70.3785 10.6652 71.8834 11.2613 72.841 11.5485C73.1418 11.638 73.4201 11.3474 73.4201 11.0887L74.5739 6.35359C74.5739 6.23266 74.5319 6.08688 74.3893 5.98782C74.0003 5.71913 71.6277 4.43233 65.6343 4.43233C58.7291 4.43233 51.6465 7.27927 51.6465 20.965C51.6465 34.651 59.7554 36.6906 66.5891 36.6906C72.2471 36.6906 75.6796 34.3472 75.6796 34.3472C75.8211 34.2717 75.8361 34.0799 75.8361 33.9921V18.7078C75.8361 18.449 75.6201 18.239 75.3534 18.239Z" fill="#EEEEEE"/>
<path d="M128.658 6.07231C128.658 5.81123 128.445 5.60085 128.178 5.60085H122.354C122.088 5.60085 121.872 5.81123 121.872 6.07231L121.873 16.979H112.795V6.07231C112.795 5.81123 112.581 5.60085 112.315 5.60085H106.491C106.226 5.60085 106.01 5.81123 106.01 6.07231V35.6052C106.01 35.8656 106.226 36.0777 106.491 36.0777H112.315C112.581 36.0777 112.795 35.8656 112.795 35.6052V22.9727H121.873L121.857 35.6052C121.857 35.8656 122.073 36.0777 122.34 36.0777H128.177C128.444 36.0777 128.657 35.8656 128.658 35.6052V6.07231Z" fill="#EEEEEE"/>
<path d="M86.343 9.94763C86.343 7.91538 84.6616 6.27308 82.5875 6.27308C80.5154 6.27308 78.8327 7.91538 78.8327 9.94763C78.8327 11.9779 80.5154 13.6245 82.5875 13.6245C84.6616 13.6245 86.343 11.9779 86.343 9.94763Z" fill="#EEEEEE"/>
<path d="M85.9266 15.7429C85.9266 15.4838 85.7108 15.2724 85.4449 15.2724H79.6392C79.3728 15.2724 79.1345 15.5385 79.1345 15.7972V35.3286C79.1345 35.9027 79.5038 36.0734 79.9814 36.0734H85.2121C85.7857 36.0734 85.9266 35.8004 85.9266 35.3196V15.7429Z" fill="#EEEEEE"/>
<path d="M150.791 15.3168H145.012C144.747 15.3168 144.531 15.5285 144.531 15.7889V30.2698C144.531 30.2698 143.063 31.3108 140.979 31.3108C138.895 31.3108 138.342 30.3947 138.342 28.4171V15.7889C138.342 15.5285 138.127 15.3168 137.861 15.3168H131.996C131.731 15.3168 131.515 15.5285 131.515 15.7889V29.3736C131.515 35.2467 134.892 36.6836 139.539 36.6836C143.351 36.6836 146.424 34.6428 146.424 34.6428C146.424 34.6428 146.571 35.7182 146.637 35.8457C146.703 35.973 146.876 36.1015 147.062 36.1015L150.794 36.0856C151.058 36.0856 151.275 35.8732 151.275 35.6142L151.274 15.7889C151.274 15.5285 151.057 15.3168 150.791 15.3168Z" fill="#EEEEEE"/>
<path d="M164.307 31.2929C162.302 31.2339 160.943 30.3523 160.943 30.3523V20.9998C160.943 20.9998 162.284 20.2033 163.93 20.0608C166.011 19.8799 168.017 20.4892 168.017 25.3005C168.017 30.3738 167.112 31.3751 164.307 31.2929ZM166.586 14.6532C163.304 14.6532 161.071 16.0725 161.071 16.0725V6.07231C161.071 5.81123 160.856 5.60085 160.591 5.60085H154.751C154.485 5.60085 154.269 5.81123 154.269 6.07231V35.6052C154.269 35.8656 154.485 36.0777 154.751 36.0777H158.803C158.986 36.0777 159.124 35.9866 159.226 35.8269C159.327 35.6682 159.472 34.4652 159.472 34.4652C159.472 34.4652 161.86 36.6584 166.381 36.6584C171.689 36.6584 174.732 34.0494 174.732 24.9463C174.732 15.8429 169.871 14.6532 166.586 14.6532Z" fill="#EEEEEE"/>
<path d="M102.665 15.2698H98.2959C98.2959 15.2698 98.2895 9.67794 98.2895 9.67662C98.2895 9.46491 98.177 9.35923 97.9243 9.35923H91.9713C91.7398 9.35923 91.6154 9.45796 91.6154 9.67331V15.453C91.6154 15.453 88.6322 16.1511 88.4305 16.2074C88.2294 16.264 88.0814 16.4433 88.0814 16.6576V20.2894C88.0814 20.5509 88.2968 20.7616 88.5631 20.7616H91.6154V29.4989C91.6154 35.9889 96.3127 36.6266 99.4826 36.6266C100.931 36.6266 102.664 36.1757 102.95 36.0734C103.123 36.0117 103.223 35.8381 103.223 35.6499L103.228 31.6543C103.228 31.3939 103.001 31.1829 102.745 31.1829C102.491 31.1829 101.839 31.2833 101.169 31.2833C99.0231 31.2833 98.2959 30.3165 98.2959 29.0648C98.2959 27.8141 98.2959 20.7616 98.2959 20.7616H102.665C102.931 20.7616 103.146 20.5509 103.146 20.2894V15.7402C103.146 15.4795 102.931 15.2698 102.665 15.2698Z" fill="#EEEEEE"/>
</svg>
