<svg width="88" height="81" viewBox="0 0 88 81" fill="none" xmlns="http://www.w3.org/2000/svg">
<path d="M8.31433 25.226L7.03435 27.8738L9.41096 29.5519C9.12597 30.1208 8.87095 30.7066 8.6477 31.3068L5.32295 28.9594C4.95572 28.7001 4.8236 28.2001 5.02167 27.7897L6.39654 24.9331C6.20236 24.6518 6.01402 24.3614 5.84678 24.0599L2.67671 24.0759C2.21604 24.0789 1.8212 23.7476 1.74403 23.2997L0.885337 18.3158C0.799711 17.862 1.06091 17.4176 1.49563 17.266L4.49107 16.2343C4.54777 15.8942 4.62775 15.5578 4.71688 15.2274L2.46534 12.9956C2.14094 12.6749 2.09227 12.1686 2.3578 11.7926L5.27872 7.65562C5.53801 7.2884 6.03798 7.15627 6.44842 7.35435L9.30494 8.72922C9.58626 8.53504 9.87672 8.3467 10.1782 8.17945L10.1465 4.99651C10.1436 4.53584 10.4748 4.141 10.9227 4.06383L15.9066 3.20486C16.3545 3.12769 16.7988 3.3889 16.9502 3.82401L17.9855 6.83404C18.3256 6.89073 18.6623 6.97101 18.9924 7.05986L21.2241 4.80832C21.5446 4.48431 22.06 4.44149 22.4272 4.70078L25.3546 6.76768C24.9255 7.21668 24.5154 7.68412 24.1258 8.1687L22.0054 6.67161L19.9387 8.76388C19.6909 9.0216 19.3205 9.10098 18.979 8.99077C18.4018 8.80587 17.7935 8.66485 17.1805 8.58623C16.8279 8.54725 16.5318 8.29835 16.413 7.96585L15.4415 5.18321L12.0231 5.77246L12.0389 8.71975C12.0382 9.07285 11.8424 9.40649 11.5232 9.56123C10.9718 9.84046 10.4459 10.1769 9.96379 10.5443C9.67882 10.7625 9.3032 10.8116 8.9835 10.6517L6.33571 9.37168L4.33481 12.2056L6.42708 14.2724C6.66998 14.5223 6.76418 14.8905 6.65397 15.232C6.46063 15.8033 6.32847 16.4178 6.24943 17.0305C6.21045 17.3831 5.96195 17.6795 5.62905 17.7981L2.84641 18.7695L3.43514 22.1865L6.38242 22.1707C6.73552 22.1714 7.06916 22.3671 7.2239 22.6864C7.512 23.244 7.83956 23.7637 8.20697 24.2457C8.4311 24.5223 8.47428 24.9063 8.31433 25.226Z" fill="#EEEEEE"/>
<path d="M12.3113 24.036C9.38154 21.9675 8.67938 17.8942 10.7483 14.964C12.7798 12.0868 16.8414 11.3866 19.7188 13.4182C20.0727 13.6681 20.3941 13.9472 20.682 14.25C20.4172 14.9698 20.1894 15.7077 20.0011 16.4613C19.6748 15.878 19.2179 15.3574 18.6385 14.9484C16.5983 13.5078 13.7187 14.0043 12.2783 16.0445C10.8085 18.1262 11.3098 21.0353 13.3857 22.5143C13.8242 22.8239 14.3022 23.0439 14.7967 23.1783C14.2214 23.5994 13.6735 24.0538 13.1556 24.5384C12.8652 24.3951 12.5829 24.2278 12.3113 24.036Z" fill="#EEEEEE"/>
<path d="M78.7026 26.4045C79.0471 25.1863 79.2317 23.919 79.2317 22.6147C79.2317 14.9983 73.0672 8.8338 65.4508 8.8338C63.396 8.8338 61.4026 9.27676 59.5447 10.1627C55.6565 4.62569 49.1721 0.958984 41.8264 0.958984C30.211 0.958984 20.6997 10.1258 20.1952 21.655C13.1817 24.1159 8.3584 30.7725 8.3584 38.3643C8.3584 48.1586 16.2824 56.0827 26.0767 56.0827H71.3569C80.0561 56.0827 87.1065 49.0446 87.1065 40.333C87.1065 34.55 83.932 29.1607 78.7026 26.4045ZM71.3569 52.1453H26.0767C18.4603 52.1453 12.2958 45.9808 12.2958 38.3643C12.2958 31.3755 17.4883 25.6047 24.2311 24.7065C24.1449 24.0174 24.108 23.3161 24.108 22.6147C24.108 12.8327 32.0444 4.89639 41.8264 4.89639C49.2459 4.89639 55.595 9.44902 58.2404 15.9211C60.0369 13.9893 62.5962 12.7712 65.4508 12.7712C70.8893 12.7712 75.2943 17.1762 75.2943 22.6147C75.2943 24.891 74.5191 26.9951 73.2149 28.6685C78.8626 29.5544 83.1691 34.4392 83.1691 40.333C83.1691 46.8544 77.8782 52.1453 71.3569 52.1453Z" fill="#EEEEEE"/>
<path fill-rule="evenodd" clip-rule="evenodd" d="M59.1273 74.7586C59.1273 75.5259 59.7504 76.1645 60.5332 76.1645H65.5355V79.5532C65.5355 80.3206 66.1587 80.9592 66.9415 80.9592H76.5302C77.2976 80.9592 77.9362 80.3361 77.9362 79.5532V69.9645C77.9362 69.1972 77.313 68.5586 76.5302 68.5586H66.9415C66.1741 68.5586 65.5355 69.1817 65.5355 69.9645V73.3687H61.94L61.8889 52.356H59.0882L59.1273 74.7586ZM75.0609 71.3704H68.2687V78.1625H75.0609V71.3704Z" fill="#EEEEEE"/>
<path fill-rule="evenodd" clip-rule="evenodd" d="M49.5224 73.3363H45.9269V69.9645C45.9269 69.1972 45.3037 68.5586 44.5209 68.5586H34.9322C34.1649 68.5586 33.5263 69.1817 33.5263 69.9645V79.5532C33.5263 80.3206 34.1494 80.9592 34.9322 80.9592H44.5209C45.2883 80.9592 45.9269 80.3361 45.9269 79.5532V76.1491H50.9292C51.6965 76.1491 52.3351 75.5259 52.3351 74.7431L52.296 52.356H49.4968L49.5224 73.3363ZM36.306 78.1625H43.0981V71.3704H36.306V78.1625Z" fill="#EEEEEE"/>
<path fill-rule="evenodd" clip-rule="evenodd" d="M33.5269 63.7805H29.9314L29.9299 60.3756C29.9299 59.6082 29.3068 58.9696 28.524 58.9696H18.9353C18.1679 58.9696 17.5293 59.5928 17.5293 60.3756V69.9643C17.5293 70.7317 18.1525 71.3703 18.9353 71.3703H28.524C29.2913 71.3703 29.9299 70.7471 29.9299 69.9643V66.5601H34.9322C35.6996 66.5601 36.3382 65.937 36.3382 65.1542L36.3152 52.356H33.5259L33.5269 63.7805ZM20.3252 68.5738H27.1173V61.7816H20.3252V68.5738Z" fill="#EEEEEE"/>
</svg>
