<svg width="66" height="81" viewBox="0 0 66 81" fill="none" xmlns="http://www.w3.org/2000/svg">
<path d="M46.8919 32.8212C48.7578 32.8212 50.2701 31.3089 50.2701 29.443C50.2701 27.5771 48.7578 26.0649 46.8919 26.0649C45.3195 26.0649 44.0099 27.1438 43.6331 28.5985H37.602V26.9094C37.602 25.9767 36.8456 25.2204 35.913 25.2204H30.8457C29.9131 25.2204 29.1567 25.9767 29.1567 26.9094V28.5985H23.1256C22.7488 27.1438 21.4392 26.0649 19.8668 26.0649C18.0009 26.0649 16.4886 27.5771 16.4886 29.443C16.4886 31.3089 18.0009 32.8212 19.8668 32.8212C21.4392 32.8212 22.7488 31.7423 23.1256 30.2876H29.0801C24.8253 31.9508 21.9475 35.8715 21.6234 40.422H19.8668C18.9341 40.422 18.1777 41.1784 18.1777 42.1111V47.1783C18.1777 48.111 18.9341 48.8674 19.8668 48.8674H24.934C25.8667 48.8674 26.6231 48.111 26.6231 47.1783V42.1111C26.6231 41.1784 25.8667 40.422 24.934 40.422H23.312C23.616 36.7583 25.8487 33.5844 29.1751 32.069C29.2258 32.9563 29.9458 33.6657 30.8457 33.6657H35.913C36.8129 33.6657 37.5329 32.9563 37.5836 32.069C40.91 33.585 43.1427 36.7583 43.4467 40.422H41.8247C40.892 40.422 40.1356 41.1784 40.1356 42.1111V47.1783C40.1356 48.111 40.892 48.8674 41.8247 48.8674H46.8919C47.8246 48.8674 48.581 48.111 48.581 47.1783V42.1111C48.581 41.1784 47.8246 40.422 46.8919 40.422H45.1358C44.8122 35.8715 41.934 31.9508 37.6791 30.2876H43.6336C44.0099 31.7423 45.3195 32.8212 46.8919 32.8212ZM24.934 47.1783H19.8668V42.1111H24.934V47.1783ZM19.8668 31.1321C18.9357 31.1321 18.1777 30.3741 18.1777 29.443C18.1777 28.5119 18.9357 27.754 19.8668 27.754C20.7979 27.754 21.5559 28.5119 21.5559 29.443C21.5559 30.3741 20.7979 31.1321 19.8668 31.1321ZM35.913 31.9766H30.8457V26.9094H35.913V31.9766ZM46.8919 47.1783H41.8247V42.1111H46.8919V47.1783ZM46.8919 27.754C47.823 27.754 48.581 28.5119 48.581 29.443C48.581 30.3741 47.823 31.1321 46.8919 31.1321C45.9608 31.1321 45.2028 30.3741 45.2028 29.443C45.2028 28.5119 45.9608 27.754 46.8919 27.754Z" fill="#EEEEEE"/>
<path fill-rule="evenodd" clip-rule="evenodd" d="M0.941406 79.1242C0.941406 79.9182 1.5837 80.5615 2.37662 80.5615H64.382C65.1749 80.5615 65.8172 79.9182 65.8172 79.1242V57.0982C65.8172 56.7012 65.6566 56.3418 65.3969 56.0817L65.3955 56.0803C65.1359 55.8211 64.7777 55.6609 64.382 55.6609H61.6296H58.7582H7.99892H5.12893H2.37662C1.98091 55.6609 1.62272 55.8211 1.36315 56.0803L1.36173 56.0817C1.10201 56.3418 0.941406 56.7012 0.941406 57.0982V79.1242ZM3.81187 58.5362V77.6869H62.9463V58.5362H3.81187Z" fill="#EEEEEE"/>
<path d="M25.8435 68.6267C25.3169 68.3444 24.5949 68.1021 23.6759 67.9011C23.1113 67.7859 22.6855 67.6733 22.3985 67.5632C22.1116 67.4532 21.9151 67.3406 21.8102 67.2254C21.7048 67.1107 21.6524 66.9621 21.6524 66.78C21.6524 66.4735 21.8005 66.2267 22.0972 66.04C22.3939 65.8528 22.7863 65.7598 23.2743 65.7598C23.6281 65.7598 23.9562 65.7958 24.2575 65.8672C24.5589 65.9392 24.8217 66.0349 25.0469 66.1547C25.2716 66.2745 25.4079 66.3486 25.4557 66.3774C25.647 66.4926 25.7951 66.5666 25.9006 66.6C26.006 66.634 26.1207 66.6504 26.2451 66.6504C26.475 66.6504 26.6735 66.545 26.8411 66.3342C27.0082 66.1238 27.0921 65.8744 27.0921 65.587C27.0921 65.3859 27.0561 65.2157 26.9846 65.0769C26.9126 64.938 26.7907 64.8063 26.6184 64.6819C26.1685 64.3564 25.6712 64.1167 25.1256 63.963C24.5805 63.8103 23.9582 63.7331 23.2599 63.7331C22.4653 63.7331 21.75 63.875 21.1139 64.1574C20.4772 64.4397 19.9774 64.8305 19.6143 65.3283C19.2502 65.8266 19.0687 66.3825 19.0687 66.9955C19.0687 67.5319 19.1761 67.9895 19.3916 68.368C19.6071 68.7465 19.982 69.0746 20.5183 69.3523C21.0542 69.63 21.7957 69.8697 22.7429 70.0707C23.5081 70.224 24.0275 70.3798 24.3 70.5382C24.5726 70.696 24.7094 70.8853 24.7094 71.1054C24.7094 71.4314 24.5633 71.6783 24.2718 71.8459C23.9797 72.0135 23.5513 72.0974 22.9872 72.0974C22.4992 72.0974 22.061 72.0496 21.6738 71.9534C21.286 71.8577 20.8962 71.6999 20.5039 71.4792C20.3316 71.3738 20.1881 71.3018 20.0734 71.2638C19.9583 71.2252 19.8384 71.2062 19.7145 71.2062C19.4846 71.2062 19.2841 71.3116 19.1118 71.5224C18.939 71.7333 18.8531 71.9822 18.8531 72.2696C18.8531 72.4805 18.8891 72.6528 18.9611 72.787C19.0326 72.9212 19.1499 73.0508 19.3124 73.1747C19.7335 73.4719 20.272 73.7044 20.9272 73.872C21.5828 74.0397 22.293 74.1235 23.0587 74.1235C23.9005 74.1235 24.64 73.9919 25.2761 73.7281C25.9122 73.4648 26.408 73.0914 26.7618 72.6075C27.1155 72.1236 27.293 71.5656 27.293 70.9331C27.293 70.4255 27.1829 69.9848 26.9628 69.6109C26.7422 69.2371 26.3696 68.909 25.8435 68.6267Z" fill="#EEEEEE"/>
<path d="M37.8278 64.1213C37.5501 63.9007 37.2395 63.7907 36.8949 63.7907C36.6651 63.7907 36.4547 63.8483 36.2635 63.9629C36.0716 64.0781 35.9235 64.2504 35.8186 64.4803L33.0052 70.6024L30.1778 64.4803C30.0724 64.2504 29.9218 64.0781 29.7253 63.9629C29.5294 63.8483 29.3165 63.7907 29.0866 63.7907C28.7328 63.7907 28.4124 63.9033 28.125 64.1285C27.838 64.3538 27.6945 64.6294 27.6945 64.9549C27.6945 65.137 27.7326 65.3046 27.8092 65.4578L31.5987 73.2898C31.7226 73.5485 31.9093 73.7475 32.1582 73.8863C32.4071 74.0252 32.675 74.0946 32.9619 74.0946C33.2494 74.0946 33.5168 74.0252 33.7657 73.8863C34.0146 73.7475 34.2013 73.5485 34.3257 73.2898L38.1146 65.4578C38.201 65.2851 38.2437 65.1179 38.2437 64.9549C38.2437 64.6196 38.1055 64.3419 37.8278 64.1213Z" fill="#EEEEEE"/>
<path d="M44.4734 68.2744C44.1576 68.2744 43.9134 68.3536 43.7411 68.5115C43.5688 68.6699 43.4829 68.8925 43.4829 69.18C43.4829 69.4674 43.5688 69.6901 43.7411 69.848C43.9134 70.0064 44.1576 70.0851 44.4734 70.0851H45.5065V71.9678C45.0565 72.0639 44.6025 72.1117 44.1433 72.1117C43.1863 72.1117 42.4756 71.8505 42.0118 71.3285C41.5474 70.8061 41.316 70.0039 41.316 68.9214C41.316 67.8672 41.5382 67.0865 41.983 66.579C42.4283 66.0709 43.1051 65.8174 44.0143 65.8174C44.3779 65.8174 44.7147 65.8601 45.0264 65.9464C45.337 66.0328 45.6697 66.1717 46.0235 66.363C46.1957 66.4689 46.3366 66.543 46.4472 66.5862C46.5573 66.6289 46.6884 66.6505 46.8416 66.6505C47.0715 66.6505 47.2674 66.5476 47.4305 66.3419C47.593 66.1357 47.6742 65.8842 47.6742 65.587C47.6742 65.3766 47.6382 65.2039 47.5662 65.0696C47.4948 64.9359 47.3775 64.811 47.215 64.6963C46.7558 64.3708 46.2606 64.1286 45.7294 63.9707C45.1981 63.8123 44.5975 63.7331 43.9279 63.7331C42.866 63.7331 41.9378 63.944 41.1433 64.3657C40.3493 64.7873 39.7368 65.3885 39.3064 66.1691C38.876 66.9502 38.6605 67.8671 38.6605 68.9213C38.6605 69.994 38.876 70.9212 39.3064 71.7018C39.7368 72.483 40.356 73.0815 41.1649 73.4981C41.9733 73.9152 42.9283 74.1235 44.0282 74.1235C44.4211 74.1235 44.8443 74.0972 45.2989 74.0443C45.753 73.9918 46.167 73.9178 46.5403 73.8216C46.9136 73.7162 47.1934 73.5917 47.3801 73.4483C47.5662 73.3043 47.6958 73.1058 47.7673 72.8518C47.8393 72.5977 47.8753 72.2316 47.8753 71.7523V69.2515C47.8753 68.9548 47.7817 68.7177 47.5955 68.5403C47.4083 68.3634 47.1574 68.2745 46.8416 68.2745L44.4734 68.2744Z" fill="#EEEEEE"/>
<path d="M2.37662 55.6609H5.12893L5.12894 52.3145L1.36315 56.0803C1.62272 55.8211 1.98091 55.6609 2.37662 55.6609Z" fill="#EEEEEE"/>
<path d="M64.382 55.6609C64.7777 55.6609 65.1359 55.8211 65.3955 56.0803L61.6296 52.3144L61.6296 55.6609H64.382Z" fill="#EEEEEE"/>
<path fill-rule="evenodd" clip-rule="evenodd" d="M44.496 3.43432V16.2772C44.496 17.0706 45.1388 17.714 45.9313 17.714H58.7576L58.7582 55.6609H61.6296L61.6296 52.3144L61.6291 16.2778C61.6291 16.2614 61.6271 16.2454 61.6266 16.229C61.6261 16.213 61.625 16.1971 61.624 16.1806C61.6199 16.1194 61.6132 16.0588 61.6014 15.9986V15.9971C61.589 15.9364 61.5721 15.8767 61.552 15.8181C61.5469 15.8032 61.5417 15.7883 61.5361 15.7733C61.5155 15.7183 61.4924 15.6648 61.4656 15.6124C61.4636 15.6093 61.4625 15.6057 61.4605 15.6021C61.4317 15.5476 61.3977 15.4957 61.3617 15.4453C61.3525 15.4319 61.3427 15.4185 61.3329 15.4057C61.2949 15.3563 61.2553 15.3085 61.2111 15.2642L61.2085 15.2612L46.9471 0.982691C46.9019 0.936923 46.8525 0.896297 46.8021 0.857729C46.7898 0.847958 46.7769 0.838702 46.7635 0.829446C46.7132 0.792935 46.6612 0.759508 46.6062 0.730196C46.6031 0.728139 46.6 0.72711 46.5964 0.725567C46.5445 0.698312 46.4905 0.675171 46.4354 0.654602C46.4205 0.648945 46.4061 0.643802 46.3912 0.63866C46.2745 0.599063 46.1526 0.57438 46.0276 0.566152C46.0122 0.565123 45.9968 0.564609 45.9814 0.564095C45.9649 0.56358 45.9485 0.561523 45.932 0.561523H6.56418C5.77173 0.561523 5.12897 1.20484 5.12897 1.99885L5.12894 52.3145L5.12893 55.6609H7.99892L7.99839 3.43419L44.496 3.43432ZM56.7279 14.8398L47.3666 5.46669V14.8398H56.7279Z" fill="#EEEEEE"/>
</svg>
