<svg width="82" height="81" viewBox="0 0 82 81" fill="none" xmlns="http://www.w3.org/2000/svg">
<path d="M0.952148 80.2647V0.264648H81.2759V80.2647H0.952148Z" fill="#FFD600"/>
<path d="M53.4692 60.1587C55.0132 62.6565 56.6911 65.0498 60.2454 65.0498C63.2308 65.0498 64.7971 63.572 64.7971 61.5276C64.7971 59.0809 63.1772 58.212 59.8929 56.7876L58.0923 56.0232C52.8958 53.8276 49.4397 51.0765 49.4397 45.2654C49.4397 39.9098 53.5562 35.8343 59.9888 35.8343C64.5695 35.8343 67.8605 37.4143 70.2345 41.552L64.6252 45.1231C63.3914 42.9276 62.0571 42.0631 59.9888 42.0631C57.8781 42.0631 56.5416 43.3898 56.5416 45.1231C56.5416 47.2654 57.8803 48.132 60.9705 49.4587L62.7711 50.2232C68.8958 52.8209 72.3497 55.4743 72.3497 61.4387C72.3497 67.8654 67.2536 71.3876 60.4127 71.3876C53.7213 71.3876 49.9216 68.0432 47.8064 63.9032L53.4692 60.1587ZM27.6184 60.3409C28.7474 62.3543 30.4632 63.9032 32.9309 63.9032C35.2916 63.9032 36.6504 62.9743 36.6504 59.3632V35.832H44.087V60.5009C44.087 67.9832 39.7294 71.3876 33.366 71.3876C27.6162 71.3876 23.4662 67.5076 21.7749 63.9032L27.6184 60.3409Z" fill="#000001"/>
</svg>
