<svg width="208" height="81" viewBox="0 0 208 81" fill="none" xmlns="http://www.w3.org/2000/svg">
<path d="M18.0991 1.09082L20.232 5.10212C20.6963 5.8257 21.2368 6.49743 21.8443 7.10582C23.6308 8.89231 25.3312 10.7649 26.8536 12.7706C30.4696 17.5196 32.9096 22.7929 34.6531 28.5027C35.698 31.9896 36.2654 35.5626 36.3085 39.1786C36.4846 49.9857 32.7785 59.2665 25.2843 66.9799C24.07 68.2026 22.7586 69.3249 21.363 70.3357C20.6194 70.3357 20.2731 69.7487 19.9678 69.2458C19.3808 68.2674 19.0521 67.1971 18.8779 66.1091C18.6157 64.8021 18.4416 63.495 18.5296 62.1429V61.5323C18.4866 61.4012 17.833 1.39803 18.0933 1.09278L18.0991 1.09082Z" fill="#599636"/>
<path d="M18.0995 0.961607C18.0114 0.785501 17.9234 0.91856 17.8373 1.00466C17.8803 1.8754 17.5751 2.66005 17.0937 3.40165C16.5712 4.14521 15.8727 4.70875 15.1761 5.31925C11.2979 8.67505 8.24926 12.7274 5.80726 17.2592C2.58256 23.3603 0.884118 29.8958 0.406675 36.7816C0.191435 39.2666 1.18937 48.025 1.97598 50.5511C4.10881 57.2627 7.94401 62.8824 12.9337 67.7625C14.1547 68.9366 15.4618 70.0284 16.8119 71.0733C17.2033 71.0733 17.2483 70.725 17.3344 70.4628C17.5061 69.9063 17.6369 69.338 17.7257 68.7624C18.1171 66.5846 18.3362 64.4048 18.5965 62.2269L18.1171 0.961607H18.0995Z" fill="#6CAC48"/>
<path d="M20.2378 72.9933C20.3258 71.9915 20.8248 71.1638 21.3277 70.3361C20.8052 70.1208 20.4119 69.6825 20.1067 69.2012C19.8445 68.7648 19.6273 68.2228 19.4531 67.763C18.8426 65.9334 18.7096 64.0158 18.5374 62.1413V61.0063C18.3222 61.1825 18.2752 62.6617 18.2752 62.8809C18.1441 64.8846 17.8838 66.8472 17.4925 68.7628C17.3614 69.5455 17.2773 70.3321 16.7959 71.0287C16.7959 71.1168 16.7959 71.2048 16.8389 71.334C17.6216 73.6429 17.8408 75.9969 17.9739 78.3939V79.2646C17.9739 80.3095 17.9308 80.0923 18.8016 80.4387C19.1498 80.5698 19.5451 80.6148 19.8914 80.875C20.1537 80.875 20.1967 80.6598 20.1967 80.4837L20.0656 79.0455V75.0342C20.0226 74.3376 20.1537 73.639 20.2417 72.9855L20.2378 72.9933Z" fill="#C2BFBF"/>
<path d="M184.746 47.2051C184.446 45.211 183.707 43.4368 182.424 41.8803C181.307 40.5052 179.86 39.4345 178.218 38.7673C176.5 38.058 174.668 37.8382 172.812 37.7842C172.046 37.7563 161.616 37.9201 160.851 37.7842C160.659 37.7563 160.524 37.8122 160.412 37.976C160.276 38.1759 160.138 38.3856 160.056 38.6034C159.728 39.3427 159.728 39.2868 160.52 39.3947C161.175 39.5046 161.802 39.5585 162.432 39.7503C163.005 39.9421 163.415 40.2698 163.551 40.8972C163.605 41.1969 163.66 50.8076 163.66 55.2873L163.551 58.4842C163.523 58.73 163.497 58.9757 163.415 59.1935C163.305 59.5212 163.115 59.7929 162.787 59.9328C162.427 60.1025 162.038 60.2041 161.64 60.2325C160.901 60.3124 160.793 60.3424 160.548 61.1616L160.468 61.4613C160.414 61.817 160.44 61.8709 160.795 61.8709L168.959 61.9508L172.156 61.8969L174.368 61.6232C176.88 61.1596 179.12 60.1206 181.03 58.4562C182.121 57.4925 183.012 56.3234 183.651 55.0156C184.416 53.487 184.744 51.8187 184.826 50.1283C184.962 49.1732 184.906 48.1902 184.746 47.2071V47.2051ZM180.786 51.0814C180.676 52.8297 180.322 54.522 179.421 56.0506C178.274 58.0446 176.636 59.4373 174.37 59.9268C173.387 60.1266 172.404 60.2265 171.373 60.0907C170.634 60.0107 169.926 59.9268 169.243 59.6811C168.014 59.2415 167.577 58.4822 167.551 57.2834L167.523 40.8193C167.523 39.8362 167.962 39.6205 168.67 39.5905C169.735 39.5106 170.828 39.5365 171.893 39.6444C173.026 39.7541 174.139 40.0231 175.197 40.4437C175.984 40.7714 176.712 41.2234 177.355 41.7824C178.83 43.0411 179.813 44.6196 180.352 46.4778C180.792 47.9804 180.872 49.5089 180.792 51.0374L180.786 51.0814ZM207.44 53.7588C207.44 53.5949 207.44 53.4591 207.412 53.2952C207.166 51.7927 206.373 50.6458 205.146 49.7726C204.355 49.1992 203.454 48.8176 202.525 48.5438C202.361 48.4899 202.225 48.4339 202.061 48.408C202.089 48.2721 202.171 48.2441 202.253 48.2161C202.799 47.9424 203.318 47.6427 203.782 47.2331C204.629 46.5238 205.18 45.6486 205.474 44.5837C205.638 44.0102 205.638 43.4368 205.584 42.8353C205.539 42.1318 205.337 41.4473 204.992 40.8326C204.647 40.218 204.167 39.6889 203.59 39.2848C202.331 38.3557 200.859 37.974 199.33 37.9461C196.381 37.8921 193.406 37.9461 190.459 37.9461C189.611 37.9461 188.766 38 187.891 37.8662C187.727 37.8382 187.491 37.7862 187.372 37.976C187.172 38.3317 186.932 38.6854 186.852 39.095C186.824 39.2868 186.88 39.3947 187.098 39.4226L188.982 39.6964C189.721 39.8063 190.241 40.2159 190.293 40.8712C190.346 41.3242 190.373 41.7799 190.373 42.2359L190.319 47.341L190.291 57.4432C190.291 58.0426 190.211 58.6181 190.099 59.2175C190.072 59.4078 189.991 59.5863 189.865 59.7316C189.739 59.8769 189.574 59.9829 189.39 60.0367C188.844 60.2005 188.325 60.3644 187.751 60.3644C187.598 60.3499 187.444 60.3878 187.315 60.472C187.187 60.5562 187.09 60.6817 187.042 60.8279C186.932 61.0737 186.842 61.3474 186.796 61.5932C186.742 61.9209 186.824 62.0328 187.152 61.9928C187.398 61.9648 196.409 62.1846 198.101 62.0208C199.112 61.9109 200.099 61.775 201.104 61.4753C202.823 60.9298 204.409 60.1366 205.664 58.7979C206.703 57.705 207.302 56.3942 207.356 54.8657C207.436 54.5101 207.436 54.1564 207.436 53.7728L207.44 53.7588ZM194.197 42.5696L194.277 40.3857C194.277 39.9761 194.441 39.7863 194.85 39.7024C195.506 39.5665 196.161 39.6225 196.816 39.6484C197.472 39.7024 198.099 39.7843 198.755 39.9761C199.953 40.3318 200.884 41.0151 201.432 42.16C201.68 42.6806 201.811 43.2496 201.814 43.8264C201.842 44.5916 201.786 45.3289 201.486 46.0642C201.022 47.0752 200.287 47.7306 199.22 47.9224C198.153 48.1142 195.124 48.0323 194.66 48.0323C194.251 48.0323 194.221 47.9784 194.221 47.5688V44.9973C194.157 44.1976 194.147 43.3945 194.193 42.5936L194.197 42.5696ZM203.068 57.2594C202.605 58.4882 201.758 59.3374 200.557 59.7969C199.901 60.0427 199.246 60.1966 198.559 60.1526C197.712 60.1246 196.866 60.1526 196.021 59.9888C194.874 59.743 194.355 58.65 194.273 57.8588C194.137 56.4662 194.219 55.0455 194.193 54.0085V50.404C194.193 49.9644 194.247 49.8306 194.712 49.8306L197.28 49.8586L199.028 50.0584C200.257 50.3321 201.376 50.7976 202.251 51.7507C202.96 52.516 203.344 53.4431 203.426 54.4541C203.506 55.4092 203.454 56.3383 203.098 57.2394L203.068 57.2594Z" fill="#8E714E"/>
<path d="M53.3273 54.7675V58.9175C53.3227 59.0818 53.3321 59.2463 53.3553 59.409C53.4093 59.9005 53.711 60.2002 54.1545 60.3381C54.5684 60.4471 54.9889 60.5292 55.4133 60.5839C55.6591 60.6119 55.741 60.7198 55.769 60.9835C55.797 61.9126 55.715 62.0225 54.8139 61.9665C52.7119 61.8567 50.608 61.8307 48.506 61.9665H48.3062C47.6508 61.9945 47.5969 61.9386 47.5969 61.2832C47.5969 61.1733 47.6249 61.0374 47.6249 60.9275C47.6249 60.7277 47.7607 60.6278 47.9525 60.6278C48.3921 60.5739 48.7997 60.464 49.2113 60.3821C49.7848 60.2462 50.1105 59.8906 50.1664 59.3171C50.2463 58.6897 50.2463 58.0343 50.2463 57.405L50.2743 50.088C50.2833 49.8758 50.2317 49.6654 50.1256 49.4814C50.0194 49.2974 49.8631 49.1475 49.6749 49.049C49.1808 48.7746 48.6582 48.5548 48.1164 48.3937C47.9525 48.3397 47.7887 48.3137 47.6528 48.2298C47.2532 48.038 47.2432 47.6844 47.6249 47.4646C47.7607 47.3846 47.9246 47.3287 48.0884 47.3007C49.7455 47.0562 51.3736 46.6445 52.9477 46.0719C53.2754 45.962 53.3573 45.992 53.3873 46.3177C53.4153 46.5175 53.3873 46.7573 53.3593 46.9451C53.3054 47.3007 53.3054 47.6544 53.3054 47.9841C53.3054 48.1199 53.3333 48.2578 53.4692 48.3397C53.6051 48.4216 53.7429 48.3397 53.8688 48.2598C54.4423 47.8202 55.0157 47.4126 55.6431 47.061C56.5422 46.5694 57.5013 46.1319 58.5403 45.996C59.7991 45.8321 60.888 46.1598 61.8451 46.979C62.2408 47.3332 62.5893 47.7368 62.8821 48.1799C63.1558 48.5795 63.1818 48.5895 63.5375 48.3157C64.5765 47.5505 65.6674 46.8691 66.8423 46.3776C68.0711 45.8581 69.3279 45.7782 70.5827 46.2138C71.8654 46.6773 72.7406 47.5785 73.2601 48.8073C73.6996 49.7903 73.8875 50.8053 73.8875 51.8643V59.1812C73.8875 59.6728 74.0873 59.9805 74.5708 60.2202C75.0903 60.42 75.6637 60.5199 76.2092 60.6298C76.5649 60.7098 76.5649 60.7098 76.5649 61.0694C76.5109 61.9685 76.429 62.0245 75.5538 61.9685C73.3623 61.8457 71.1657 61.8457 68.9742 61.9685C68.5346 61.9965 68.5346 61.9965 68.5107 61.5589V61.4231C68.4827 60.6838 68.4827 60.6838 69.194 60.5239L69.9033 60.3321C70.1436 60.2756 70.3579 60.1397 70.5116 59.9466C70.6653 59.7534 70.7494 59.514 70.7505 59.2672L70.8304 57.2191L70.7765 51.8683C70.7555 51.3906 70.6542 50.9197 70.4768 50.4757C69.7934 48.8093 68.2929 48.2098 66.8443 48.3737C65.7513 48.4836 64.7962 48.9192 63.8951 49.5486C63.7033 49.6844 63.5674 49.8483 63.5954 50.122C63.8412 51.8703 63.6753 53.6186 63.7053 55.3649V59.1613C63.7053 59.8446 63.979 60.1723 64.6344 60.3361L65.8932 60.6099C66.085 60.6378 66.1929 60.7197 66.1929 60.9375V61.1373C66.1649 61.9026 66.113 61.9366 65.3457 61.9286C63.1618 61.8187 60.9759 61.8487 58.82 61.9286C58.0807 61.9566 58.0208 61.8746 58.0548 61.1294C58.0827 60.6898 58.1347 60.6658 58.5463 60.5839L59.4454 60.42C60.2446 60.2562 60.5384 59.9565 60.5923 59.1093L60.6722 57.2791L60.6183 51.7904C60.5643 51.107 60.4185 50.4517 60.0448 49.8243C59.4994 48.8133 58.6462 48.2958 57.4773 48.2398C56.3025 48.1599 55.2655 48.5955 54.2804 49.1389C53.5971 49.5386 53.2974 50.0121 53.3513 50.8053V54.7915L53.3273 54.7675ZM104.772 54.9333V58.7836C104.776 59.0574 104.794 59.3308 104.826 59.6028C104.837 59.7841 104.907 59.9568 105.026 60.0948C105.144 60.2327 105.304 60.3287 105.481 60.3681C105.952 60.5054 106.437 60.5879 106.927 60.6139C107.201 60.6418 107.255 60.7497 107.283 60.9695V61.1613C107.255 62.1164 107.147 62.2263 106.218 62.1723C104.14 62.0365 102.068 62.0624 99.9922 62.1723L99.193 62.2003C99.0291 62.2003 98.9932 62.1204 98.9472 62.0085C98.8674 61.6304 98.8674 61.2397 98.9472 60.8616C98.9752 60.6978 99.0831 60.6618 99.2469 60.6158C99.6465 60.5619 99.9862 60.48 100.366 60.416C101.049 60.2522 101.295 59.9765 101.321 59.2692L101.401 56.9754V50.2579C101.401 49.7663 101.209 49.4666 100.773 49.2468C100.282 48.9731 99.7624 48.7833 99.215 48.5915C99.0511 48.5375 98.8873 48.4816 98.7514 48.3997C98.3957 48.1539 98.3518 47.8002 98.6975 47.5265C98.8525 47.3991 99.0429 47.3224 99.2429 47.3067C100.991 47.033 102.684 46.6514 104.322 45.996C104.514 45.9161 104.596 45.968 104.678 46.1319C104.76 46.2957 104.788 46.4875 104.758 46.6773L104.678 47.9601C104.678 48.1239 104.598 48.3597 104.732 48.4236C104.895 48.5335 105.005 48.2878 105.141 48.2238C105.947 47.5475 106.838 46.9787 107.791 46.5315C108.638 46.1319 109.509 45.8761 110.494 45.9321C112.324 46.0419 113.635 46.971 114.48 48.5815C114.92 49.4287 115.108 50.3558 115.19 51.3128L115.269 53.3109L115.297 59.3451C115.325 59.8086 115.489 60.1103 115.953 60.2742C116.433 60.4343 116.927 60.5533 117.427 60.6298C117.867 60.6838 117.891 60.7657 117.919 61.1753V61.3112C117.865 62.2403 117.809 62.2663 116.88 62.2103C114.843 62.1011 112.801 62.1011 110.764 62.2103C110.49 62.2383 110.218 62.2103 109.965 62.2383C109.801 62.2383 109.691 62.2103 109.665 62.0465C109.611 61.6908 109.555 61.3372 109.637 60.9535C109.665 60.7897 109.747 60.7078 109.937 60.6798L111.195 60.48C111.635 60.3701 111.879 60.0804 111.935 59.6808L111.989 58.9155L111.961 53.209C111.961 52.5536 111.933 51.8983 111.797 51.2429C111.469 49.8443 110.404 48.8452 108.96 48.7054C107.701 48.5695 106.562 48.8972 105.519 49.5785C104.999 49.9062 104.78 50.3698 104.78 50.9432V55.0672C104.78 54.9873 104.78 54.9873 104.808 54.9873L104.772 54.9333Z" fill="#654333"/>
<path d="M133.69 49.0331L134.399 49.143C135.164 49.1709 136.065 48.8972 136.337 47.8322C136.487 47.3236 136.487 46.7824 136.337 46.2737C136.173 46.2737 136.091 46.4096 136.009 46.4656C135.6 46.7932 135.136 46.9851 134.645 47.039C133.662 47.1489 132.678 47.093 131.723 46.7393L130.385 46.2757C129.451 45.97 128.468 45.8412 127.488 45.8961C126.095 46.006 124.784 46.4696 123.555 47.1249C122.245 47.8342 121.317 48.8992 120.878 50.3478C120.632 51.195 120.604 52.0661 120.714 52.9413C120.988 54.9354 122.025 56.328 123.881 57.0653C123.991 57.0933 124.073 57.1452 124.181 57.1752C124.426 57.3111 124.454 57.4489 124.235 57.6388L123.551 58.1023L121.913 59.1133C121.503 59.3591 121.449 59.5529 121.585 59.9865C121.748 60.4966 122.05 60.9507 122.458 61.2972C122.833 61.6187 123.258 61.8772 123.715 62.0625C124.015 62.1983 124.015 62.2623 123.743 62.502L122.185 63.621C121.665 64.0206 121.146 64.4202 120.71 64.9317C120.407 65.2559 120.189 65.6497 120.075 66.0784C119.96 66.5071 119.953 66.9574 120.055 67.3893C120.258 68.3372 120.754 69.197 121.473 69.8469C122.183 70.5044 123.047 70.9736 123.985 71.2116C125.513 71.6512 127.098 71.6752 128.654 71.3755C130.892 70.9659 132.85 69.9768 134.389 68.2904C135.454 67.1715 136.081 65.8608 136.137 64.2943C136.197 63.3884 135.933 62.4906 135.393 61.7607C134.853 61.0309 134.072 60.5162 133.188 60.3082L131.713 60.0344L127.208 59.6348C126.716 59.6068 126.225 59.5249 125.815 59.2792C125.296 58.9515 125.16 58.3241 125.487 57.9145C125.733 57.6148 126.033 57.423 126.417 57.395L127.29 57.3151C129.016 57.1394 130.638 56.4008 131.903 55.2131C132.579 54.5876 133.062 53.7821 133.296 52.8913C133.624 51.7165 133.624 50.4937 133.35 49.2948C133.27 48.9951 133.296 48.9671 133.678 49.0211L133.69 49.0331ZM126.996 62.6339C127.16 62.6619 127.324 62.6339 127.488 62.6339C128.634 62.6879 129.809 62.7698 130.928 63.0735C131.294 63.1815 131.65 63.3184 131.993 63.4831C133.086 64.0825 133.496 65.1215 133.358 66.2404C133.194 67.4692 132.511 68.3424 131.446 68.9178C130.736 69.3175 129.943 69.4913 129.124 69.5732C128.824 69.6012 128.55 69.5732 128.251 69.5732C127.296 69.6012 126.367 69.4933 125.465 69.1097C124.838 68.8639 124.319 68.5102 123.855 68.0167C122.9 67.0616 122.456 65.3133 123.883 63.8927C124.756 63.0935 125.741 62.528 126.996 62.6339ZM130.109 54.1142C129.536 55.5608 128.279 55.9983 127.024 55.8065C125.877 55.6427 125.03 55.0153 124.486 53.9763C123.777 52.5836 123.587 51.139 123.995 49.6345C124.295 48.5156 124.978 47.6684 126.179 47.4766C127.707 47.2028 129.176 47.7503 129.947 49.2788C130.347 50.0181 130.521 50.9173 130.521 52.2C130.493 52.7195 130.385 53.4288 130.111 54.1122L130.109 54.1142ZM95.7062 52.256C95.4605 50.7814 94.915 49.4427 93.904 48.3238C92.4014 46.6574 90.4913 45.9261 88.3334 45.9201C86.4492 45.8921 84.6769 46.4396 83.0905 47.4226C81.5308 48.356 80.3876 49.8509 79.8955 51.6006C79.432 53.1851 79.456 54.7975 79.8156 56.4059C80.7707 60.7218 84.1035 62.576 88.0876 62.3042C89.2625 62.2243 90.3814 61.8407 91.4444 61.3212C93.0288 60.5819 94.1757 59.409 94.967 57.8525C95.5944 56.5698 95.8661 55.2031 95.8401 53.6466L95.7043 52.254L95.7062 52.256ZM91.83 58.3181C91.6347 58.9325 91.2646 59.4766 90.765 59.884C90.2654 60.2914 89.6578 60.5443 89.0167 60.6119C87.8179 60.7757 86.695 60.476 85.6859 59.7647C84.9575 59.2289 84.3677 58.5267 83.9656 57.7167C82.8467 55.4229 82.6549 53.0212 83.2263 50.5636C83.4103 49.803 83.8083 49.111 84.3732 48.5695C85.3842 47.6404 86.5571 47.4226 87.8698 47.6964C89.1286 47.9701 90.0817 48.6515 90.8669 49.6904C91.6522 50.7294 92.0138 51.9283 92.2316 53.1871C92.3415 53.8145 92.3415 54.4698 92.3675 54.8794C92.3675 56.1902 92.2576 57.2771 91.848 58.3201L91.83 58.3181ZM155.369 52.4758C155.169 50.8913 154.577 49.4447 153.456 48.2438C151.982 46.6334 150.07 45.9501 147.942 45.9221C146.111 45.8941 144.419 46.4136 142.863 47.3147C141.114 48.3537 139.913 49.8263 139.45 51.8204C138.896 53.9959 139.128 56.297 140.105 58.3181C141.004 60.2303 142.535 61.4591 144.557 62.0045C146.795 62.6039 148.927 62.3322 151.001 61.3212C152.803 60.448 154.086 59.0834 154.823 57.2252C155.263 56.1322 155.423 54.9593 155.45 53.5927C155.478 53.3469 155.422 52.9093 155.371 52.4737L155.369 52.4758ZM151.6 57.9644C151.161 59.439 150.236 60.3941 148.679 60.6139C147.532 60.7777 146.441 60.504 145.456 59.8486C144.609 59.2752 144.01 58.5099 143.572 57.6108C143.08 56.6557 142.807 55.6447 142.699 54.6077C142.535 53.3249 142.535 52.0701 142.835 50.7854C142.892 50.532 142.974 50.2851 143.08 50.0481C143.846 48.1359 145.538 47.2628 147.532 47.7004C148.871 48.0001 149.88 48.7394 150.645 49.8583C151.384 50.9512 151.738 52.1521 151.904 53.4548C151.984 53.9743 152.014 54.5198 151.984 54.9833C151.984 56.0483 151.904 57.0313 151.584 57.9864L151.6 57.9644Z" fill="#654333"/>
</svg>
