<svg width="93" height="80" viewBox="0 0 93 80" fill="none" xmlns="http://www.w3.org/2000/svg">
<path d="M75.3125 25.9259C74.3483 25.6045 73.3841 25.301 72.4198 25.0153C72.5805 24.3546 72.7234 23.6939 72.8662 23.0332C75.0625 12.3909 73.6162 3.83782 68.7414 1.01655C64.0453 -1.67974 56.385 1.12368 48.6354 7.87332C47.8676 8.534 47.1176 9.23039 46.4034 9.92678C45.9212 9.46252 45.4213 8.99826 44.9213 8.55186C36.7967 1.33796 28.6543 -1.69759 23.7796 1.14154C19.1012 3.85568 17.7085 11.9088 19.6726 21.9797C19.8691 22.9797 20.0833 23.9617 20.3333 24.9617C19.1905 25.2831 18.0656 25.6402 17.0121 26.0152C7.47686 29.3186 0.637939 34.5326 0.637939 39.9252C0.637939 45.4963 7.92326 51.0853 17.8334 54.478C18.637 54.7458 19.4405 55.0137 20.2619 55.2458C19.994 56.3172 19.7619 57.3707 19.5476 58.4599C17.6727 68.3701 19.137 76.2268 23.8153 78.9231C28.6364 81.7087 36.7432 78.8517 44.6356 71.9413C45.2606 71.3878 45.8855 70.8164 46.5105 70.2093C47.2962 70.9771 48.1175 71.7092 48.9389 72.4234C56.5814 78.9945 64.1346 81.6551 68.795 78.9588C73.6162 76.1732 75.1875 67.7273 73.1519 57.4421C72.9912 56.6564 72.8127 55.8529 72.6162 55.0315C73.1876 54.8708 73.7412 54.6922 74.2947 54.5137C84.5977 51.1032 92.0616 45.5856 92.0616 39.9252C92.0616 34.5148 85.0263 29.265 75.3125 25.9259ZM51.1531 10.766C57.7956 4.98062 63.9917 2.71288 66.813 4.3378C69.8307 6.06985 70.9913 13.0695 69.0986 22.2654C68.9736 22.8725 68.8486 23.4618 68.6879 24.051C64.7238 23.1582 60.7062 22.5154 56.6707 22.1583C54.3494 18.837 51.8138 15.6586 49.0639 12.6766C49.7603 12.016 50.4389 11.391 51.1531 10.766ZM30.4935 49.1925C31.4042 50.746 32.3327 52.2995 33.3148 53.8173C30.5292 53.5137 27.7615 53.0673 25.0295 52.4781C25.8152 49.9068 26.7973 47.2462 27.9401 44.5321C28.7614 46.1034 29.6007 47.6569 30.4935 49.1925ZM25.0831 27.7115C27.6544 27.1401 30.3864 26.6759 33.2255 26.3188C32.2791 27.8008 31.3506 29.3186 30.4756 30.8542C29.6007 32.372 28.7436 33.9255 27.9401 35.4968C26.8151 32.8363 25.8687 30.2293 25.0831 27.7115ZM29.9757 40.0145C31.1542 37.5503 32.4398 35.1397 33.7969 32.7649C35.154 30.39 36.6182 28.0865 38.1538 25.8188C40.8322 25.6224 43.5642 25.5152 46.3498 25.5152C49.1353 25.5152 51.8852 25.6224 54.5458 25.8188C56.0635 28.0687 57.5099 30.3721 58.8848 32.7291C60.2598 35.0862 61.5454 37.4967 62.7596 39.943C61.5633 42.4072 60.2776 44.8356 58.9027 47.2284C57.5456 49.6032 56.0993 51.9067 54.5815 54.1923C51.9209 54.3887 49.1532 54.478 46.3498 54.478C43.5464 54.478 40.8322 54.3887 38.2074 54.228C36.6539 51.9603 35.1897 49.6389 33.8147 47.2641C32.4398 44.8892 31.172 42.4786 29.9757 40.0145ZM62.2239 49.1568C63.1346 47.5855 63.9917 45.9963 64.8309 44.3892C65.9737 46.9784 66.9737 49.6032 67.8486 52.2995C65.0809 52.9245 62.2775 53.4066 59.4562 53.728C60.4205 52.2281 61.3311 50.6925 62.2239 49.1568ZM64.7952 35.4968C63.956 33.9255 63.0989 32.3542 62.2061 30.8185C61.3311 29.3007 60.4205 27.8008 59.4741 26.3188C62.3489 26.6759 65.0988 27.158 67.6701 27.7473C66.8487 30.39 65.8845 32.9613 64.7952 35.4968ZM46.3855 15.4086C48.2604 17.4442 50.0282 19.587 51.6709 21.8012C48.1354 21.6404 44.582 21.6404 41.0465 21.8012C42.7964 19.4977 44.5999 17.355 46.3855 15.4086ZM25.6723 4.46279C28.6722 2.71288 35.3325 5.21275 42.35 11.4267C42.7964 11.8195 43.2428 12.2481 43.7071 12.6766C40.9394 15.6586 38.3859 18.837 36.0468 22.1583C32.0113 22.5154 28.0115 23.1404 24.0474 24.0153C23.8153 23.1047 23.6189 22.1761 23.4224 21.2476C21.744 12.6052 22.851 6.0877 25.6723 4.46279ZM21.2975 51.5317C20.5476 51.3174 19.8155 51.0853 19.0834 50.8353C15.28 49.6389 10.9588 47.7462 7.83398 45.2642C6.03051 44.0142 4.81629 42.0858 4.47702 39.9252C4.47702 36.6575 10.1196 32.4791 18.262 29.64C19.2798 29.2829 20.3155 28.9615 21.3511 28.6579C22.5653 32.5327 24.0295 36.3361 25.7259 40.0145C24.0117 43.7464 22.5296 47.6033 21.2975 51.5317ZM42.1179 69.0308C39.1716 71.7271 35.7611 73.8698 32.047 75.334C30.0649 76.2804 27.7793 76.3697 25.7437 75.5661C22.9046 73.9234 21.7261 67.6201 23.3332 59.1384C23.5296 58.1385 23.7438 57.1385 23.9938 56.1565C27.9936 57.0136 32.0291 57.6028 36.1182 57.9064C38.4752 61.2455 41.0643 64.4417 43.8321 67.4416C43.2607 67.9951 42.6893 68.5308 42.1179 69.0308ZM46.4926 64.6917C44.6713 62.7275 42.85 60.5491 41.0822 58.2099C42.7964 58.2813 44.5642 58.3171 46.3498 58.3171C48.189 58.3171 49.9924 58.2813 51.7781 58.1921C50.1353 60.4598 48.3675 62.6204 46.4926 64.6917ZM69.8307 70.0486C69.67 72.227 68.5986 74.2626 66.8844 75.6376C64.0453 77.2803 57.992 75.1376 51.4567 69.5307C50.7067 68.8879 49.9567 68.1915 49.1889 67.4773C51.9209 64.4596 54.4386 61.2633 56.7242 57.9064C60.8133 57.5671 64.8845 56.9421 68.9021 56.0315C69.0807 56.7636 69.2414 57.4957 69.3843 58.2099C70.2592 62.0669 70.4021 66.0845 69.8307 70.0486ZM73.0805 50.8532C72.5805 51.0139 72.0806 51.1746 71.5627 51.3174C70.3128 47.4248 68.7772 43.6214 67.0094 39.9252C68.7236 36.2825 70.1699 32.5327 71.3842 28.6936C72.3127 28.9615 73.2055 29.2472 74.0626 29.5329C82.3836 32.3899 88.2225 36.6396 88.2225 39.8895C88.2225 43.3893 81.9907 47.9069 73.0805 50.8532ZM46.3498 48.1747C50.8674 48.1747 54.5279 44.5142 54.5279 39.9966C54.5279 35.479 50.8674 31.8185 46.3498 31.8185C41.8322 31.8185 38.1716 35.479 38.1716 39.9966C38.1716 44.5142 41.8322 48.1747 46.3498 48.1747Z" fill="#61DBFB"/>
</svg>
