<svg width="108" height="81" viewBox="0 0 108 81" fill="none" xmlns="http://www.w3.org/2000/svg">
<path d="M92.2466 46.1051C88.501 46.1245 85.257 47.0196 82.5391 48.3561C81.5454 46.3792 80.5372 44.6401 80.3691 43.3472C80.1718 41.8385 79.9429 40.9362 80.1816 39.1388C80.4203 37.3414 81.465 34.7945 81.4504 34.6029C81.4358 34.4113 81.2166 33.4968 79.0564 33.4798C76.8962 33.4653 75.0477 33.8946 74.831 34.4622C74.6142 35.0298 74.1978 36.3081 73.9396 37.6422C73.5621 39.5924 69.6265 46.5514 67.3932 50.1898C66.6626 48.7684 66.0416 47.5168 65.9125 46.5272C65.7152 45.0185 65.4863 44.1161 65.725 42.3188C65.9636 40.5214 67.0084 37.9745 66.9938 37.7829C66.9792 37.5912 66.76 36.6768 64.5998 36.6598C62.4396 36.6453 60.5911 37.0746 60.3744 37.6422C60.1576 38.2098 59.9238 39.5366 59.483 40.8222C59.0397 42.1053 53.8109 53.7118 52.4398 56.722C51.7408 58.255 51.1344 59.4872 50.7057 60.3265C50.7033 60.324 50.7033 60.3216 50.7033 60.3216C50.7033 60.3216 50.6765 60.3774 50.6327 60.472C50.2649 61.1875 50.0482 61.5829 50.0482 61.5829C50.0482 61.5829 50.0506 61.5878 50.0555 61.5975C49.7632 62.1238 49.4515 62.6114 49.2981 62.6114C49.1909 62.6114 48.9742 61.2118 49.3443 59.2907C50.1237 55.2642 51.9916 48.9867 51.9746 48.7684C51.9649 48.6569 52.3229 47.5629 50.7545 46.9905C49.2299 46.435 48.6868 47.3616 48.548 47.364C48.414 47.3664 48.3142 47.6915 48.3142 47.6915C48.3142 47.6915 50.0117 40.6305 45.0751 40.6305C41.987 40.6305 37.7104 43.9948 35.6037 47.0438C34.274 47.7667 31.427 49.3142 28.4095 50.966C27.2503 51.6015 26.0666 52.2492 24.9439 52.8653C24.8684 52.7804 24.7905 52.6979 24.7125 52.613C18.7239 46.2507 7.65733 41.7512 8.12493 33.1961C8.29541 30.0864 9.3816 21.8976 29.3934 11.9671C45.7862 3.83166 58.9107 6.0705 61.178 11.0309C64.4171 18.1209 54.164 31.2944 37.1405 33.1961C30.655 33.9213 27.2381 31.4157 26.3881 30.4842C25.4943 29.5019 25.3604 29.4582 25.0267 29.6425C24.4836 29.9433 24.827 30.8093 25.0267 31.3259C25.5357 32.643 27.6204 34.9789 31.1761 36.1432C34.3057 37.1668 41.9212 37.7271 51.1295 34.1784C61.4459 30.2053 69.4999 19.1494 67.1326 9.91023C64.7264 0.513435 49.0813 -2.57679 34.274 2.66252C25.4505 5.78185 15.911 10.6767 9.05039 17.0658C0.894177 24.6628 -0.406335 31.2774 0.129457 34.0402C2.03395 43.859 15.6211 50.2529 21.0619 54.9901C20.794 55.1381 20.5407 55.2763 20.3118 55.4025C17.5841 56.7463 7.22626 62.1457 4.63498 67.8483C1.69543 74.3173 5.10258 78.96 7.35777 79.5858C14.345 81.5214 21.5148 78.0382 25.3701 72.3138C29.2229 66.5918 28.7529 59.1379 26.9848 55.7372C26.9629 55.696 26.9385 55.6547 26.9166 55.6111C27.6204 55.1963 28.3389 54.7742 29.05 54.357C30.4382 53.5445 31.802 52.7877 32.9832 52.1473C32.3208 53.952 31.8361 56.118 31.5853 59.2446C31.2882 62.917 32.8006 67.6639 34.7781 69.5316C35.65 70.3539 36.6972 70.3733 37.3597 70.3733C39.6611 70.3733 40.7108 68.4668 41.8676 66.211C43.285 63.4458 44.5441 60.2246 44.5441 60.2246C44.5441 60.2246 42.966 68.9228 47.2669 68.9228C48.8353 68.9228 50.4111 66.8974 51.1149 65.8665C51.1173 65.8787 51.1173 65.8835 51.1173 65.8835C51.1173 65.8835 51.1587 65.8156 51.2391 65.6822C51.4023 65.4348 51.4948 65.2771 51.4948 65.2771C51.4948 65.2771 51.4973 65.2601 51.5021 65.231C52.1329 64.1419 53.5308 61.6581 55.6253 57.5613C58.3335 52.2686 60.9296 45.637 60.9296 45.637C60.9296 45.637 61.1707 47.2573 61.9622 49.94C62.4274 51.5167 63.4162 53.2607 64.198 54.9343C63.5696 55.8027 63.1848 56.2999 63.1848 56.2999C63.1848 56.2999 63.1873 56.3096 63.1946 56.3266C62.6929 56.9912 62.1303 57.7068 61.5409 58.4054C59.4026 60.9401 56.8576 63.8363 56.5166 64.6707C56.1148 65.6555 56.2098 66.3783 56.9867 66.9629C57.5541 67.3874 58.5624 67.4553 59.6169 67.385C61.5385 67.2564 62.8877 66.781 63.555 66.4923C64.5949 66.1261 65.8053 65.5512 66.9402 64.7192C69.0371 63.1838 70.3011 60.9886 70.1793 58.0779C70.1111 56.4746 69.5997 54.8858 68.9495 53.3868C69.1394 53.1151 69.3294 52.8386 69.5218 52.5621C72.8266 47.7497 75.3911 42.4619 75.3911 42.4619C75.3911 42.4619 75.6322 44.0822 76.4237 46.7649C76.8231 48.1208 77.6147 49.6028 78.3258 51.0534C75.2182 53.5687 73.2918 56.4916 72.6221 58.4078C71.3849 61.954 72.3542 63.5598 74.171 63.9261C74.9942 64.091 76.1583 63.715 77.0326 63.3463C78.1212 62.9873 79.429 62.3882 80.6516 61.4932C82.7485 59.9578 84.765 57.8087 84.6433 54.9004C84.5872 53.576 84.2268 52.2613 83.7373 51C86.3724 49.9061 89.782 49.2997 94.1268 49.8042C103.447 50.8884 105.274 56.6832 104.925 59.1088C104.575 61.5344 102.622 62.8685 101.966 63.2711C101.314 63.6738 101.114 63.8145 101.168 64.1128C101.248 64.547 101.55 64.5325 102.108 64.4379C102.875 64.3093 107 62.4658 107.178 57.9882C107.4 52.2977 101.932 46.0542 92.2466 46.1051ZM20.4092 70.2254C17.3211 73.58 13.0104 74.8461 11.1595 73.7789C9.16242 72.6267 9.95393 67.6882 13.741 64.1274C16.0498 61.9589 19.0307 59.9602 21.0083 58.7304C21.4588 58.4612 22.1188 58.0658 22.9225 57.5855C23.0565 57.5103 23.132 57.4691 23.132 57.4691L23.1295 57.4642C23.2854 57.3721 23.4437 57.2775 23.6069 57.178C24.9877 62.2451 23.6507 66.7058 20.4092 70.2254ZM42.9002 54.9998C41.8262 57.6098 39.5759 64.2899 38.2048 63.9309C37.0284 63.6229 36.3124 58.5461 37.971 53.5493C38.8039 51.034 40.5866 48.0286 41.6338 46.8619C43.3191 44.9845 45.1749 44.3708 45.6255 45.1325C46.1978 46.1027 43.5748 53.3625 42.9002 54.9998ZM61.48 63.829C61.0246 64.0667 60.6057 64.2147 60.4133 64.1007C60.2696 64.0158 60.6008 63.7029 60.6008 63.7029C60.6008 63.7029 62.9242 61.2118 63.8399 60.079C64.3733 59.4193 64.9895 58.6358 65.6616 57.7626C65.6665 57.8499 65.6689 57.9372 65.6689 58.0221C65.6641 61.0056 62.7708 63.0189 61.48 63.829ZM75.793 60.5787C75.452 60.3386 75.5105 59.56 76.6283 57.1319C77.0667 56.1787 78.0701 54.5753 79.809 53.0424C80.0111 53.673 80.1329 54.277 80.1304 54.8397C80.1085 58.5946 77.4198 59.9966 75.793 60.5787Z" fill="#F06292"/>
</svg>
