<svg width="55" height="81" viewBox="0 0 55 81" fill="none" xmlns="http://www.w3.org/2000/svg">
<path d="M29.6118 27.2642H14.3121C6.91847 27.2642 0.924805 21.2947 0.924805 13.931C0.924805 6.56716 6.91847 0.597656 14.3121 0.597656H29.6118V27.2642Z" fill="#E64A19"/>
<path d="M27.6993 53.9283H14.312C6.91846 53.9283 0.924805 47.9588 0.924805 40.595C0.924805 33.2312 6.91846 27.2617 14.312 27.2617H27.6993V53.9283Z" fill="#7C4DFF"/>
<path d="M14.312 80.5973C6.91846 80.5973 0.924805 74.6277 0.924805 67.264C0.924805 59.9002 6.91846 53.9307 14.312 53.9307H27.6993V67.264C27.6993 74.6277 21.7056 80.5973 14.312 80.5973Z" fill="#66BB6A"/>
<path d="M41.084 27.2642H27.6968V0.597656H41.084C48.4776 0.597656 54.4712 6.56716 54.4712 13.931C54.4712 21.2947 48.4776 27.2642 41.084 27.2642Z" fill="#FF7043"/>
<path d="M41.084 53.9283C48.4775 53.9283 54.4712 47.9588 54.4712 40.595C54.4712 33.2312 48.4775 27.2617 41.084 27.2617C33.6904 27.2617 27.6968 33.2312 27.6968 40.595C27.6968 47.9588 33.6904 53.9283 41.084 53.9283Z" fill="#29B6F6"/>
</svg>
