<svg width="82" height="101" viewBox="0 0 82 101" fill="none" xmlns="http://www.w3.org/2000/svg">
<path fill-rule="evenodd" clip-rule="evenodd" d="M0.856445 98.5249C0.856445 99.5174 1.65931 100.322 2.65046 100.322H80.1571C81.1483 100.322 81.9512 99.5174 81.9512 98.5249V70.9924C81.9512 70.4961 81.7504 70.0469 81.4258 69.7218L81.424 69.72C81.0995 69.396 80.6518 69.1957 80.1572 69.1957H76.7167H73.1274H9.67833H6.09085H2.65047C2.15583 69.1957 1.70809 69.396 1.38363 69.72L1.38185 69.7218C1.05719 70.0469 0.856445 70.4961 0.856445 70.9924V98.5249ZM4.44452 72.7898V96.7283H78.3625V72.7898H4.44452Z" fill="white"/>
<path d="M31.8134 84.3788C31.1551 84.0259 30.2526 83.7231 29.1039 83.4718C28.3981 83.3278 27.8658 83.187 27.5072 83.0495C27.1485 82.9119 26.9029 82.7711 26.7718 82.6271C26.64 82.4838 26.5744 82.298 26.5744 82.0705C26.5744 81.6874 26.7596 81.3788 27.1305 81.1455C27.5014 80.9115 27.9918 80.7951 28.6019 80.7951C29.0441 80.7951 29.4542 80.8401 29.8309 80.9295C30.2076 81.0195 30.5361 81.139 30.8176 81.2888C31.0985 81.4386 31.2689 81.5312 31.3287 81.5672C31.5678 81.7112 31.7529 81.8037 31.8847 81.8455C32.0165 81.8879 32.1598 81.9085 32.3154 81.9085C32.6027 81.9085 32.8508 81.7767 33.0604 81.5132C33.2693 81.2503 33.3741 80.9385 33.3741 80.5792C33.3741 80.3278 33.3291 80.1151 33.2397 79.9415C33.1497 79.7679 32.9974 79.6034 32.782 79.4478C32.2196 79.0409 31.598 78.7414 30.9159 78.5492C30.2346 78.3583 29.4568 78.2618 28.5838 78.2618C27.5907 78.2618 26.6965 78.4393 25.9013 78.7922C25.1055 79.1451 24.4807 79.6336 24.0268 80.2558C23.5717 80.8787 23.3448 81.5736 23.3448 82.3398C23.3448 83.0103 23.4792 83.5824 23.7485 84.0555C24.0178 84.5286 24.4865 84.9387 25.1569 85.2858C25.8267 85.633 26.7536 85.9325 27.9376 86.1838C28.8941 86.3754 29.5434 86.5702 29.884 86.7682C30.2247 86.9655 30.3957 87.202 30.3957 87.4772C30.3957 87.8847 30.2131 88.1933 29.8487 88.4028C29.4836 88.6124 28.9481 88.7172 28.2429 88.7172C27.6329 88.7172 27.0852 88.6574 26.6012 88.5372C26.1165 88.4176 25.6293 88.2203 25.1388 87.9445C24.9235 87.8127 24.7441 87.7227 24.6008 87.6752C24.4568 87.627 24.307 87.6032 24.1521 87.6032C23.8648 87.6032 23.6141 87.7349 23.3987 87.9985C23.1828 88.262 23.0754 88.5732 23.0754 88.9325C23.0754 89.196 23.1204 89.4114 23.2104 89.5792C23.2998 89.7469 23.4463 89.9089 23.6494 90.0638C24.1759 90.4354 24.8489 90.7259 25.6679 90.9355C26.4875 91.145 27.3752 91.2498 28.3323 91.2498C29.3846 91.2498 30.309 91.0853 31.1041 90.7555C31.8993 90.4264 32.519 89.9597 32.9612 89.3548C33.4034 88.7499 33.6252 88.0525 33.6252 87.2618C33.6252 86.6273 33.4877 86.0765 33.2125 85.6091C32.9368 85.1418 32.4709 84.7317 31.8134 84.3788Z" fill="white"/>
<path d="M46.7937 78.7471C46.4466 78.4713 46.0583 78.3338 45.6277 78.3338C45.3403 78.3338 45.0774 78.4058 44.8383 78.5491C44.5985 78.6931 44.4134 78.9084 44.2823 79.1958L40.7655 86.8484L37.2313 79.1958C37.0995 78.9084 36.9112 78.6931 36.6656 78.5491C36.4207 78.4058 36.1546 78.3338 35.8672 78.3338C35.425 78.3338 35.0245 78.4745 34.6652 78.7561C34.3065 79.0376 34.1272 79.3822 34.1272 79.7891C34.1272 80.0166 34.1747 80.2262 34.2705 80.4177L39.0073 90.2077C39.1622 90.531 39.3956 90.7798 39.7067 90.9533C40.0178 91.1269 40.3527 91.2137 40.7114 91.2137C41.0707 91.2137 41.405 91.1269 41.7161 90.9533C42.0272 90.7798 42.2605 90.531 42.4161 90.2077L47.1523 80.4177C47.2603 80.2018 47.3136 79.9929 47.3136 79.7891C47.3136 79.37 47.1408 79.0229 46.7937 78.7471Z" fill="white"/>
<path d="M55.1007 83.9384C54.706 83.9384 54.4007 84.0374 54.1853 84.2348C53.97 84.4328 53.8627 84.7111 53.8627 85.0704C53.8627 85.4298 53.97 85.7081 54.1853 85.9054C54.4007 86.1034 54.706 86.2018 55.1007 86.2018H56.3921V88.5551C55.8297 88.6753 55.2621 88.7351 54.6881 88.7351C53.4918 88.7351 52.6035 88.4086 52.0237 87.7561C51.4433 87.103 51.154 86.1003 51.154 84.7472C51.154 83.4294 51.4317 82.4535 51.9877 81.8192C52.5444 81.1841 53.3903 80.8672 54.5269 80.8672C54.9813 80.8672 55.4024 80.9205 55.7919 81.0285C56.1802 81.1365 56.5961 81.31 57.0383 81.5492C57.2537 81.6816 57.4298 81.7742 57.568 81.8282C57.7056 81.8815 57.8695 81.9085 58.061 81.9085C58.3484 81.9085 58.5933 81.78 58.7971 81.5228C59.0002 81.2651 59.1018 80.9507 59.1018 80.5792C59.1018 80.3163 59.0568 80.1003 58.9668 79.9325C58.8774 79.7654 58.7309 79.6092 58.5277 79.4658C57.9537 79.0589 57.3347 78.7562 56.6707 78.5588C56.0067 78.3608 55.2559 78.2618 54.4189 78.2618C53.0915 78.2618 51.9312 78.5254 50.9381 79.0525C49.9456 79.5796 49.18 80.331 48.642 81.3068C48.104 82.2832 47.8347 83.4293 47.8347 84.7471C47.8347 86.088 48.104 87.2469 48.642 88.2227C49.18 89.1991 49.954 89.9473 50.9651 90.4681C51.9756 90.9894 53.1694 91.2498 54.5443 91.2498C55.0354 91.2498 55.5644 91.217 56.1326 91.1508C56.7002 91.0852 57.2177 90.9927 57.6844 90.8725C58.151 90.7407 58.5007 90.5851 58.7341 90.4058C58.9668 90.2258 59.1287 89.9777 59.2181 89.6601C59.3081 89.3426 59.3531 88.8849 59.3531 88.2858V85.1598C59.3531 84.7889 59.2361 84.4926 59.0034 84.2708C58.7694 84.0497 58.4557 83.9385 58.061 83.9385L55.1007 83.9384Z" fill="white"/>
<path d="M2.65047 69.1957H6.09085L6.09086 65.0128L1.38363 69.72C1.70809 69.396 2.15583 69.1957 2.65047 69.1957Z" fill="white"/>
<path d="M80.1572 69.1957C80.6518 69.1957 81.0995 69.396 81.424 69.72L76.7167 65.0127L76.7167 69.1957H80.1572Z" fill="white"/>
<path fill-rule="evenodd" clip-rule="evenodd" d="M55.2997 3.91252V19.9661C55.2997 20.9579 56.1032 21.7621 57.0937 21.7621H73.1267L73.1274 69.1957H76.7167L76.7167 65.0127L76.7161 19.9669C76.7161 19.9463 76.7135 19.9264 76.7129 19.9058C76.7122 19.8859 76.711 19.866 76.7097 19.8454C76.7045 19.7689 76.6962 19.6931 76.6814 19.6179V19.6159C76.666 19.5401 76.6448 19.4655 76.6197 19.3922C76.6133 19.3736 76.6068 19.355 76.5998 19.3363C76.574 19.2675 76.5451 19.2007 76.5117 19.1351C76.5091 19.1313 76.5078 19.1268 76.5053 19.1223C76.4693 19.0541 76.4268 18.9892 76.3818 18.9262C76.3703 18.9095 76.3581 18.8928 76.3458 18.8767C76.2983 18.815 76.2488 18.7552 76.1935 18.6999L76.1903 18.6961L58.3636 0.847993C58.307 0.790782 58.2453 0.740001 58.1823 0.69179C58.1669 0.679576 58.1508 0.668006 58.1341 0.656436C58.0711 0.610797 58.0062 0.569014 57.9374 0.532373C57.9336 0.529802 57.9297 0.528516 57.9252 0.526588C57.8603 0.492519 57.7928 0.463593 57.724 0.437881C57.7053 0.43081 57.6873 0.424382 57.6687 0.417954C57.5228 0.368458 57.3704 0.337603 57.2142 0.327318C57.195 0.326033 57.1757 0.32539 57.1564 0.324747C57.1358 0.324104 57.1152 0.321533 57.0947 0.321533H7.88492C6.89435 0.321533 6.0909 1.12568 6.0909 2.11819L6.09086 65.0128L6.09085 69.1957H9.67833L9.67767 3.91236L55.2997 3.91252ZM70.5896 18.1694L58.8879 6.45299V18.1694H70.5896Z" fill="white"/>
</svg>
